<svg id="Ebene_1" data-name="Ebene 1" xmlns="http://www.w3.org/2000/svg" viewBox="0 0 201.46 28.35"><defs><style>.cls-1{fill:#1d1d1b;}</style></defs><title>fhnw_e</title><path class="cls-1" d="M510.17,296.3l2.33-5.54h.82l2.24,5.54h-.84l-.6-1.44h-2.57l-.6,1.44Zm1.65-2.1h2.06l-1-2.68Z" transform="translate(-323.33 -283.68)"/><path class="cls-1" d="M517.15,296.3h-.73v-3.85h.73v.74h0a1.07,1.07,0,0,1,1.13-.8h.25v.69a.89.89,0,0,0-.31,0c-.92,0-1.08.52-1.08,1.33Z" transform="translate(-323.33 -283.68)"/><path class="cls-1" d="M519.5,292.45v-.82l.73-.23v1.05l.89,0V293h-.89v2.48c0,.28.21.41.48.41a1.66,1.66,0,0,0,.38,0v.56c-.17,0-.33,0-.5,0a2.61,2.61,0,0,1-.49,0,.69.69,0,0,1-.43-.25c-.13-.18-.17-.2-.17-.71V293h-.66v-.54Z" transform="translate(-323.33 -283.68)"/><path class="cls-1" d="M498.08,293.92c0-.67,0-1.06-.81-1.06a.66.66,0,0,0-.72.61h-.77c0-.84.7-1.14,1.45-1.14s1.57.24,1.57,1.31v1.84c0,.17,0,.49,0,.81h-.49c-.07,0-.2,0-.21-.05s0-.34,0-.52h0a1.23,1.23,0,0,1-1.2.69c-.67,0-1.34-.35-1.34-1.1,0-1.08,1-1.4,1.87-1.4Zm-.73.51c-.44,0-1,.18-1,.74a.68.68,0,0,0,.76.71c.86,0,1-.74,1-1.46Z" transform="translate(-323.33 -283.68)"/><path class="cls-1" d="M500.73,293h0a1.34,1.34,0,0,1,1.17-.68,1.32,1.32,0,0,1,1.46,1.3v2.66h-.73v-2.42c0-.64-.27-1-.88-1a1,1,0,0,0-.71.28c-.11.11-.31.28-.31,1v2.09H500v-3.85h.71Z" transform="translate(-323.33 -283.68)"/><path class="cls-1" d="M507.29,290.76H508v4.85c0,.23,0,.46,0,.68h-.74l0-.58v0h0a1.36,1.36,0,0,1-1.33.73c-1.14,0-1.6-1.05-1.6-2s.53-2,1.72-2a1.25,1.25,0,0,1,1.2.64h0Zm-1.08,5.14c.88,0,1.09-.82,1.09-1.54s-.26-1.53-1.09-1.53-1.09.81-1.09,1.53S505.39,295.91,506.21,295.91Z" transform="translate(-323.33 -283.68)"/><path class="cls-1" d="M523.19,292.33c.73,0,1.55.31,1.49,1.18h-.77c0-.49-.35-.65-.77-.65s-.71.18-.71.61.66.46.94.54c.65.21,1.4.29,1.4,1.16s-.92,1.23-1.71,1.23-1.48-.37-1.47-1.26h.77a.71.71,0,0,0,.78.73c.43,0,.87-.17.87-.67,0-.86-2.34-.21-2.34-1.72C521.68,292.69,522.49,292.33,523.19,292.33Z" transform="translate(-323.33 -283.68)"/><path class="cls-1" d="M389.39,294.1a2.23,2.23,0,1,1-4.46,0v-3.34h.77v3.53a1.46,1.46,0,0,0,2.93,0v-3.53h.77Z" transform="translate(-323.33 -283.68)"/><path class="cls-1" d="M391.43,293h0a1.34,1.34,0,0,1,1.17-.68,1.32,1.32,0,0,1,1.46,1.3v2.66h-.73v-2.42c0-.64-.27-1-.88-1a1,1,0,0,0-.71.28c-.11.11-.31.28-.31,1v2.09h-.73v-3.85h.71Z" transform="translate(-323.33 -283.68)"/><path class="cls-1" d="M395.42,290.76h.87v.79h-.87Zm.07,5.54v-3.85h.73v3.85Z" transform="translate(-323.33 -283.68)"/><path class="cls-1" d="M398.73,296.3l-1.61-3.85h.8l1.23,3.05,1.2-3.05h.8l-1.69,3.85Z" transform="translate(-323.33 -283.68)"/><path class="cls-1" d="M402.38,294.51c-.05.67.22,1.37,1,1.37a.81.81,0,0,0,.94-.78H405a1.53,1.53,0,0,1-1.71,1.31c-1.23,0-1.72-.87-1.72-2s.57-2.07,1.79-2.07a1.62,1.62,0,0,1,1.69,1.82v.36Zm1.95-.51c0-.64-.28-1.14-1-1.14a1,1,0,0,0-1,1.14Z" transform="translate(-323.33 -283.68)"/><path class="cls-1" d="M406.89,296.3h-.73v-3.85h.73v.74h0a1.07,1.07,0,0,1,1.13-.8h.25v.69a.89.89,0,0,0-.31,0c-.92,0-1.08.52-1.08,1.33Z" transform="translate(-323.33 -283.68)"/><path class="cls-1" d="M410.31,292.33c.73,0,1.55.31,1.5,1.18H411c0-.49-.34-.65-.77-.65s-.71.18-.71.61.66.46.94.54c.65.21,1.4.29,1.4,1.16s-.92,1.23-1.71,1.23-1.48-.37-1.47-1.26h.77a.72.72,0,0,0,.78.73c.43,0,.87-.17.87-.67,0-.86-2.34-.21-2.34-1.72C408.8,292.69,409.61,292.33,410.31,292.33Z" transform="translate(-323.33 -283.68)"/><path class="cls-1" d="M412.82,290.76h.87v.79h-.87Zm.07,5.54v-3.85h.73v3.85Z" transform="translate(-323.33 -283.68)"/><path class="cls-1" d="M415.12,292.45v-.82l.73-.23v1l.89,0V293h-.89v2.48c0,.28.21.41.48.41a1.66,1.66,0,0,0,.38,0v.56c-.17,0-.33,0-.5,0a2.61,2.61,0,0,1-.49,0,.69.69,0,0,1-.43-.25c-.13-.18-.17-.2-.17-.71V293h-.66v-.54Z" transform="translate(-323.33 -283.68)"/><path class="cls-1" d="M418.91,297.77h-.74l.58-1.49-1.6-3.83H418l1.2,3,1.23-3h.78Z" transform="translate(-323.33 -283.68)"/><path class="cls-1" d="M426.68,294.37a1.92,1.92,0,1,1-1.92-2A1.83,1.83,0,0,1,426.68,294.37Zm-1.92,1.51c.87,0,1.15-.69,1.15-1.51s-.28-1.51-1.15-1.51-1.15.69-1.15,1.51S423.9,295.88,424.77,295.88Z" transform="translate(-323.33 -283.68)"/><path class="cls-1" d="M428.05,296.3V293h-.75v-.51h.75v-.74a1.06,1.06,0,0,1,1.2-1.07,3.08,3.08,0,0,1,.52.08v.61l-.37,0c-.41,0-.65.11-.63.53v.61h.89V293h-.89v3.34Z" transform="translate(-323.33 -283.68)"/><path class="cls-1" d="M431.36,296.3l2.33-5.54h.82l2.24,5.54h-.83l-.6-1.44h-2.57l-.6,1.44Zm1.65-2.1h2.06l-1-2.68Z" transform="translate(-323.33 -283.68)"/><path class="cls-1" d="M437.56,293.14c0-.23,0-.46,0-.69h.74l0,.61h0a1.25,1.25,0,0,1,1.31-.73c1.08,0,1.62,1,1.62,2a1.81,1.81,0,0,1-1.85,2,1.33,1.33,0,0,1-1.07-.55h0v1.91h-.73Zm1.82-.28c-.83,0-1.09.81-1.09,1.51s.21,1.51,1,1.51,1.16-.79,1.16-1.51S440.25,292.86,439.38,292.86Z" transform="translate(-323.33 -283.68)"/><path class="cls-1" d="M442.32,293.14c0-.23,0-.46,0-.69H443l0,.61h0a1.25,1.25,0,0,1,1.31-.73c1.08,0,1.62,1,1.62,2a1.81,1.81,0,0,1-1.85,2,1.34,1.34,0,0,1-1.07-.55h0v1.91h-.73Zm1.82-.28c-.83,0-1.09.81-1.09,1.51s.21,1.51,1,1.51,1.16-.79,1.16-1.51S445,292.86,444.14,292.86Z" transform="translate(-323.33 -283.68)"/><path class="cls-1" d="M447.13,296.3v-5.54h.73v5.54Z" transform="translate(-323.33 -283.68)"/><path class="cls-1" d="M449.27,290.76h.87v.79h-.87Zm.07,5.54v-3.85h.73v3.85Z" transform="translate(-323.33 -283.68)"/><path class="cls-1" d="M451.88,294.51c-.05.67.22,1.37,1,1.37a.81.81,0,0,0,.94-.78h.77a1.53,1.53,0,0,1-1.71,1.31c-1.23,0-1.72-.87-1.72-2s.57-2.07,1.79-2.07a1.62,1.62,0,0,1,1.69,1.82v.36Zm1.95-.51c0-.64-.28-1.14-1-1.14a1,1,0,0,0-1,1.14Z" transform="translate(-323.33 -283.68)"/><path class="cls-1" d="M458.3,290.76H459v4.85c0,.23,0,.46,0,.68h-.74l0-.58v0h0a1.36,1.36,0,0,1-1.33.73c-1.14,0-1.59-1.05-1.59-2s.53-2,1.72-2a1.25,1.25,0,0,1,1.2.64h0Zm-1.08,5.14c.88,0,1.09-.82,1.09-1.54s-.26-1.53-1.09-1.53-1.09.8-1.09,1.53S456.4,295.91,457.22,295.91Z" transform="translate(-323.33 -283.68)"/><path class="cls-1" d="M462.73,294.68c0,.78.47,1.07,1.21,1.07s1.4-.18,1.4-1c0-.54-.44-.76-.9-.85-.91-.2-2.43-.41-2.43-1.65s1.1-1.65,2.13-1.65,1.87.42,1.87,1.5h-.8c0-.62-.55-.84-1.1-.84s-1.29.2-1.29.86.45.67.93.82c1,.33,2.41.33,2.41,1.73s-1.13,1.7-2.25,1.7-2-.49-2-1.73Z" transform="translate(-323.33 -283.68)"/><path class="cls-1" d="M469.35,293.68c0-.48-.27-.82-.79-.82-.7,0-1,.61-1,1.51s.27,1.51,1,1.51c.48,0,.78-.31.82-.87h.73a1.46,1.46,0,0,1-1.56,1.4c-1.23,0-1.72-.87-1.72-2s.57-2.07,1.79-2.07a1.37,1.37,0,0,1,1.46,1.35Z" transform="translate(-323.33 -283.68)"/><path class="cls-1" d="M470.93,290.76h.87v.79h-.87Zm.07,5.54v-3.85h.73v3.85Z" transform="translate(-323.33 -283.68)"/><path class="cls-1" d="M473.66,294.51c-.05.67.22,1.37,1,1.37a.81.81,0,0,0,.94-.78h.77a1.53,1.53,0,0,1-1.71,1.31c-1.23,0-1.72-.87-1.72-2s.57-2.07,1.79-2.07a1.62,1.62,0,0,1,1.69,1.82v.36Zm1.95-.51c0-.64-.28-1.14-1-1.14a1,1,0,0,0-1,1.14Z" transform="translate(-323.33 -283.68)"/><path class="cls-1" d="M478.24,293h0a1.33,1.33,0,0,1,1.16-.68,1.32,1.32,0,0,1,1.46,1.3v2.66h-.73v-2.42c0-.64-.27-1-.88-1a1,1,0,0,0-.71.28c-.11.11-.31.28-.31,1v2.09h-.73v-3.85h.71Z" transform="translate(-323.33 -283.68)"/><path class="cls-1" d="M484.3,293.68c0-.48-.27-.82-.79-.82-.7,0-1,.61-1,1.51s.27,1.51,1,1.51c.48,0,.78-.31.82-.87h.73a1.46,1.46,0,0,1-1.56,1.4c-1.23,0-1.73-.87-1.73-2s.57-2.07,1.79-2.07a1.37,1.37,0,0,1,1.46,1.35Z" transform="translate(-323.33 -283.68)"/><path class="cls-1" d="M486.59,294.51c-.05.67.22,1.37,1,1.37a.81.81,0,0,0,.94-.78h.77a1.53,1.53,0,0,1-1.71,1.31c-1.23,0-1.72-.87-1.72-2s.57-2.07,1.79-2.07a1.62,1.62,0,0,1,1.69,1.82v.36Zm1.95-.51c0-.64-.28-1.14-1-1.14a1,1,0,0,0-1,1.14Z" transform="translate(-323.33 -283.68)"/><path class="cls-1" d="M491.69,292.33c.73,0,1.55.31,1.49,1.18h-.77c0-.49-.35-.65-.77-.65s-.7.18-.7.61.66.46.94.54c.65.21,1.4.29,1.4,1.16s-.92,1.23-1.71,1.23-1.48-.37-1.47-1.26h.77a.71.71,0,0,0,.78.73c.43,0,.87-.17.87-.67,0-.86-2.34-.21-2.34-1.72C490.18,292.69,491,292.33,491.69,292.33Z" transform="translate(-323.33 -283.68)"/><path class="cls-1" d="M389.38,299.41v5.54h-1l-2.8-4.7h0v4.7h-.68v-5.54h1l2.7,4.58h0v-4.58Z" transform="translate(-323.33 -283.68)"/><path class="cls-1" d="M394.25,303a1.92,1.92,0,1,1-1.92-2A1.83,1.83,0,0,1,394.25,303Zm-1.92,1.51c.87,0,1.15-.69,1.15-1.51s-.28-1.51-1.15-1.51-1.15.69-1.15,1.51S391.47,304.53,392.34,304.53Z" transform="translate(-323.33 -283.68)"/><path class="cls-1" d="M395.89,304.94h-.73v-3.85h.73v.74h0A1.07,1.07,0,0,1,397,301h.25v.69a.89.89,0,0,0-.31,0c-.92,0-1.08.52-1.08,1.33Z" transform="translate(-323.33 -283.68)"/><path class="cls-1" d="M398.16,301.09v-.82l.73-.23v1.05l.89,0v.55h-.89v2.48c0,.28.21.41.47.41a1.61,1.61,0,0,0,.38,0V305c-.17,0-.33,0-.5,0a2.67,2.67,0,0,1-.49,0,.7.7,0,0,1-.43-.25c-.13-.18-.17-.2-.17-.71v-2.45h-.66v-.55Z" transform="translate(-323.33 -283.68)"/><path class="cls-1" d="M400.75,304.94v-5.54h.73v2.2h0a1.37,1.37,0,0,1,1.25-.63,1.21,1.21,0,0,1,1.32,1.36v2.61h-.73v-2.28c0-.67-.18-1.11-.86-1.13a1,1,0,0,0-.87.54,1.87,1.87,0,0,0-.12.89v2Z" transform="translate(-323.33 -283.68)"/><path class="cls-1" d="M410.85,301.09l-1.36,3.85h-.83l-.9-3.17h0l-1,3.17h-.85l-1.27-3.85h.79l.93,3.1h0l1-3.1h.94l.87,3h0l1-3Z" transform="translate(-323.33 -283.68)"/><path class="cls-1" d="M412,303.16c-.05.67.22,1.37,1,1.37a.81.81,0,0,0,.94-.78h.77a1.53,1.53,0,0,1-1.71,1.31c-1.23,0-1.72-.87-1.72-2S411.82,301,413,301a1.62,1.62,0,0,1,1.69,1.82v.36Zm1.95-.51c0-.64-.28-1.14-1-1.14a1,1,0,0,0-1,1.14Z" transform="translate(-323.33 -283.68)"/><path class="cls-1" d="M417.11,301c.73,0,1.55.31,1.5,1.18h-.77c0-.49-.35-.65-.77-.65s-.71.18-.71.61.66.46.94.54c.65.21,1.4.29,1.4,1.16s-.92,1.23-1.71,1.23-1.48-.37-1.47-1.26h.77a.71.71,0,0,0,.78.73c.43,0,.87-.17.87-.67,0-.86-2.34-.21-2.34-1.72C415.6,301.34,416.42,301,417.11,301Z" transform="translate(-323.33 -283.68)"/><path class="cls-1" d="M419.91,301.09v-.82l.73-.23v1.05l.89,0v.55h-.89v2.48c0,.28.21.41.48.41a1.6,1.6,0,0,0,.38,0V305c-.17,0-.33,0-.5,0a2.67,2.67,0,0,1-.49,0,.7.7,0,0,1-.43-.25c-.13-.18-.17-.2-.17-.71v-2.45h-.66v-.55Z" transform="translate(-323.33 -283.68)"/><path class="cls-1" d="M422.93,303.16c-.05.67.22,1.37,1,1.37a.81.81,0,0,0,.94-.78h.77a1.53,1.53,0,0,1-1.71,1.31c-1.23,0-1.72-.87-1.72-2S422.73,301,424,301a1.62,1.62,0,0,1,1.69,1.82v.36Zm1.95-.51c0-.64-.28-1.14-1-1.14a1,1,0,0,0-1,1.14Z" transform="translate(-323.33 -283.68)"/><path class="cls-1" d="M427.25,304.94h-.73v-3.85h.73v.74h0a1.07,1.07,0,0,1,1.13-.8h.25v.69a.89.89,0,0,0-.31,0c-.92,0-1.08.52-1.08,1.33Z" transform="translate(-323.33 -283.68)"/><path class="cls-1" d="M430.12,301.66h0a1.33,1.33,0,0,1,1.16-.68,1.32,1.32,0,0,1,1.46,1.3v2.66H432v-2.42c0-.64-.27-1-.88-1a1,1,0,0,0-.7.28c-.11.11-.31.28-.31,1v2.09h-.73v-3.85h.71Z" transform="translate(-323.33 -283.68)"/><path class="cls-1" d="M436.57,303.32c0,.78.47,1.07,1.21,1.07s1.4-.18,1.4-1c0-.54-.44-.76-.9-.85-.91-.2-2.43-.41-2.43-1.65s1.1-1.65,2.13-1.65,1.87.42,1.87,1.5H439c0-.62-.55-.84-1.1-.84s-1.29.2-1.29.86.45.67.93.82c1,.33,2.41.33,2.41,1.73s-1.13,1.7-2.25,1.7-2-.49-2-1.73Z" transform="translate(-323.33 -283.68)"/><path class="cls-1" d="M446.68,301.09l-1.36,3.85h-.83l-.9-3.17h0l-1,3.17h-.85l-1.27-3.85h.79l.93,3.1h0l1-3.1h.94l.87,3h0l1-3Z" transform="translate(-323.33 -283.68)"/><path class="cls-1" d="M447.32,299.41h.87v.79h-.87Zm.07,5.54v-3.85h.73v3.85Z" transform="translate(-323.33 -283.68)"/><path class="cls-1" d="M449.62,301.09v-.82l.73-.23v1.05l.89,0v.55h-.89v2.48c0,.28.21.41.48.41a1.6,1.6,0,0,0,.38,0V305c-.17,0-.33,0-.5,0a2.67,2.67,0,0,1-.49,0,.7.7,0,0,1-.43-.25c-.13-.18-.17-.2-.17-.71v-2.45H449v-.55Z" transform="translate(-323.33 -283.68)"/><path class="cls-1" d="M454.63,304.94h-2.8v-.51l1.94-2.84h-1.91v-.51h2.69v.51l-1.93,2.84h2Z" transform="translate(-323.33 -283.68)"/><path class="cls-1" d="M456,303.16c-.05.67.22,1.37,1,1.37a.81.81,0,0,0,.94-.78h.77a1.53,1.53,0,0,1-1.71,1.31c-1.23,0-1.72-.87-1.72-2S455.77,301,457,301a1.62,1.62,0,0,1,1.69,1.82v.36Zm1.95-.51c0-.64-.28-1.14-1-1.14a1,1,0,0,0-1,1.14Z" transform="translate(-323.33 -283.68)"/><path class="cls-1" d="M460.48,304.94h-.73v-3.85h.73v.74h0a1.07,1.07,0,0,1,1.13-.8h.25v.69a.89.89,0,0,0-.31,0c-.92,0-1.08.52-1.08,1.33Z" transform="translate(-323.33 -283.68)"/><path class="cls-1" d="M462.68,304.94v-5.54h.73v5.54Z" transform="translate(-323.33 -283.68)"/><path class="cls-1" d="M467,302.56c0-.67,0-1.06-.81-1.06a.66.66,0,0,0-.72.61h-.77c0-.84.7-1.14,1.46-1.14s1.57.24,1.57,1.31v1.84c0,.17,0,.49,0,.81h-.49c-.07,0-.2,0-.21-.05s0-.35,0-.52h0a1.23,1.23,0,0,1-1.2.69c-.67,0-1.34-.34-1.34-1.1,0-1.08,1-1.4,1.87-1.4Zm-.73.51c-.44,0-1,.18-1,.74a.68.68,0,0,0,.76.71c.86,0,1-.74,1-1.46Z" transform="translate(-323.33 -283.68)"/><path class="cls-1" d="M469.7,301.66h0a1.33,1.33,0,0,1,1.17-.68,1.32,1.32,0,0,1,1.46,1.3v2.66h-.73v-2.42c0-.64-.27-1-.88-1a1,1,0,0,0-.71.28c-.11.11-.31.28-.31,1v2.09H469v-3.85h.71Z" transform="translate(-323.33 -283.68)"/><path class="cls-1" d="M476.18,299.41h.73v4.85c0,.23,0,.46,0,.68h-.74l0-.57v0h0a1.36,1.36,0,0,1-1.33.73c-1.14,0-1.59-1.05-1.59-2s.53-2,1.73-2a1.25,1.25,0,0,1,1.2.64h0Zm-1.08,5.14c.88,0,1.09-.82,1.09-1.54s-.26-1.53-1.09-1.53-1.09.8-1.09,1.53S474.28,304.55,475.1,304.55Z" transform="translate(-323.33 -283.68)"/><rect class="cls-1" x="19.85" width="0.97" height="28.35"/><path class="cls-1" d="M328.6,293.1a5,5,0,0,1,4.6-2.68,5.32,5.32,0,0,1,3.79,1.3,5.74,5.74,0,0,1,1.41,4.22v9h-5.57V297a1.88,1.88,0,0,0-1.89-2,2,2,0,0,0-2,2.3v7.62h-5.57V290.78h5.27Z" transform="translate(-323.33 -283.68)"/><path class="cls-1" d="M368.87,290.45a1.89,1.89,0,1,0,0,3.78,1.85,1.85,0,0,0,1.39-.66c.54,1.65-2.33,10.21-6.25,10.21-1.27,0-1.66-1-1.66-2.36a21.82,21.82,0,0,1,1-5.35c.6-2.15,1.15-4.2,1.45-5.3H361c-.52,1.86-4.21,12.74-7.35,12.74-.39,0-.82-.42-.82-1.18a13.9,13.9,0,0,1,.54-2.45l1.24-4.23a11.29,11.29,0,0,0,.67-2.87,2.18,2.18,0,0,0-2.24-2.33c-3.42,0-4.84,3.05-5.54,4.29l.58.36c.33-.54,1.84-3.11,2.87-3.11.15,0,.27.18.27.72a10.29,10.29,0,0,1-.42,1.93l-1.3,4.29a14.86,14.86,0,0,0-.73,3.39,2.85,2.85,0,0,0,2.84,3c4.85,0,7-5.87,7.65-7.56l.06.06a16.5,16.5,0,0,0-.52,3c0,2.6,1.16,4.47,3.7,4.47C369.93,305.33,373.95,290.45,368.87,290.45Z" transform="translate(-323.33 -283.68)"/></svg>