<?xml version="1.0" encoding="utf-8"?>
<!-- Generator: Adobe Illustrator 21.0.2, SVG Export Plug-In . SVG Version: 6.00 Build 0)  -->
<svg version="1.1" id="Ebene_1" xmlns="http://www.w3.org/2000/svg" xmlns:xlink="http://www.w3.org/1999/xlink" x="0px" y="0px"
	 viewBox="0 0 217 50" style="enable-background:new 0 0 217 50;" xml:space="preserve">
<style type="text/css">
	.st0{fill:#1A1918;}
</style>
<title>11E25499-DC5D-4CB1-A94C-515655BCDA10</title>
<desc>Created with sketchtool.</desc>
<g id="Symbols">
	<g id="header" transform="translate(-40.000000, -32.000000)">
		<g id="FHNW_10mm_Desktop_Wortmarke">
			<g transform="translate(40.000000, 32.000000)">
				<polygon id="Fill-1" class="st0" points="35.4,49.6 37.1,49.6 37.1,0.7 35.4,0.7 				"/>
				<path id="Fill-2" class="st0" d="M10,16.9c0.8-1.1,2.6-4.6,8-4.6c3.8,0,5.8,1.5,6.6,2.2c2.3,2.2,2.5,5.5,2.5,7.3v15.5h-9.7V23.7
					c0-0.3,0-3.5-3.3-3.5c-3.4,0-3.5,3.1-3.5,4v13.1H0.8V12.9H10V16.9"/>
				<path id="Fill-3" class="st0" d="M80.2,12.4c-1.8,0-3.3,1.5-3.3,3.3c0,1.8,1.5,3.3,3.3,3.3c1.7,0,2.4-1.2,2.4-1.1
					c0.9,2.8-4.1,17.6-10.9,17.6c-2.2,0-2.9-1.8-2.9-4.1c0-2.7,0.8-5.5,1.8-9.2c1.1-3.7,2-7.2,2.5-9.1h-6.6c-0.9,3.2-7.3,22-12.8,22
					c-0.7,0-1.4-0.7-1.4-2c0-0.7,0.6-3.3,1-4.2l2.2-7.3c0.5-1.5,1.2-3.5,1.2-5c0-2.6-1.8-4-3.9-4c-6,0-8.4,5.3-9.7,7.4l1,0.6
					c0.6-0.9,3.2-5.4,5-5.4c0.3,0,0.5,0.3,0.5,1.2c0,0.6-0.4,2-0.7,3.3L46.5,27c-0.4,1.4-1.3,4-1.3,5.8c0,3.4,2.6,5.2,5,5.2
					c8.5,0,12.1-10.1,13.3-13l0.1,0.1c-0.2,0.6-0.9,3.6-0.9,5.2c0,4.5,2,7.7,6.5,7.7C82,38,89,12.4,80.2,12.4"/>
				<polyline id="Fill-4" class="st0" points="108.2,22.4 108.2,12.9 113.9,12.9 113.9,14 109.5,14 109.5,17 113.6,17 113.6,18.2 
					109.5,18.2 109.5,22.4 108.2,22.4 				"/>
				<path id="Fill-5" class="st0" d="M119,18.3c0-1.1-0.1-1.8-1.4-1.8c-0.6,0-1.2,0.4-1.3,1.1H115c0.1-1.5,1.2-2,2.5-2
					c1.4,0,2.7,0.4,2.7,2.3V21c0,0.3,0,0.8,0.1,1.4h-0.9c-0.1,0-0.3,0.1-0.4-0.1c0-0.3-0.1-0.6-0.1-0.9h0c-0.4,0.8-1.2,1.2-2.1,1.2
					c-1.2,0-2.3-0.6-2.3-1.9c0-1.9,1.7-2.4,3.3-2.4H119L119,18.3z M117.7,19.2c-0.8,0-1.8,0.3-1.8,1.3c0,0.8,0.6,1.2,1.3,1.2
					c1.5,0,1.8-1.3,1.7-2.5H117.7L117.7,19.2z"/>
				<path id="Fill-6" class="st0" d="M126.3,17.9c-0.1-0.8-0.5-1.4-1.4-1.4c-1.2,0-1.7,1-1.7,2.6s0.5,2.6,1.7,2.6
					c0.8,0,1.4-0.5,1.4-1.5h1.3c-0.1,1.5-1.2,2.4-2.7,2.4c-2.1,0-3-1.5-3-3.5c0-1.9,1-3.6,3.1-3.6c1.4,0,2.5,0.9,2.5,2.3H126.3"/>
				<path id="Fill-7" class="st0" d="M129.4,22.4v-9.5h1.3v3.8h0c0.5-0.7,1.2-1.1,2.2-1.1c1.7,0,2.3,1.1,2.3,2.3v4.5h-1.3v-3.9
					c0-1.2-0.3-1.9-1.5-1.9c-0.5,0-1.3,0.4-1.5,0.9c-0.3,0.7-0.2,1.2-0.2,1.5v3.4H129.4"/>
				<path id="Fill-8" class="st0" d="M137.5,22.4v-9.5h1.3v3.8h0c0.5-0.7,1.2-1.1,2.2-1.1c1.7,0,2.3,1.1,2.3,2.3v4.5H142v-3.9
					c0-1.2-0.3-1.9-1.5-1.9c-0.5,0-1.3,0.4-1.5,0.9c-0.3,0.7-0.2,1.2-0.2,1.5v3.4H137.5"/>
				<path id="Fill-9" class="st0" d="M151.5,19.1c0,2.1-1.1,3.5-3.3,3.5c-2.2,0-3.3-1.5-3.3-3.5s1.1-3.5,3.3-3.5
					C150.4,15.6,151.5,17.1,151.5,19.1L151.5,19.1z M148.2,21.7c1.5,0,2-1.2,2-2.6s-0.5-2.6-2-2.6s-2,1.2-2,2.6
					S146.6,21.7,148.2,21.7L148.2,21.7z"/>
				<path id="Fill-10" class="st0" d="M157.1,17.9c-0.1-0.8-0.5-1.4-1.4-1.4c-1.2,0-1.7,1-1.7,2.6s0.5,2.6,1.7,2.6
					c0.8,0,1.4-0.5,1.4-1.5h1.3c-0.1,1.5-1.2,2.4-2.7,2.4c-2.1,0-3-1.5-3-3.5c0-1.9,1-3.6,3.1-3.6c1.4,0,2.5,0.9,2.5,2.3H157.1"/>
				<path id="Fill-11" class="st0" d="M160.2,22.4v-9.5h1.3v3.8h0c0.5-0.7,1.2-1.1,2.2-1.1c1.8,0,2.3,1.1,2.3,2.3v4.5h-1.3v-3.9
					c0-1.2-0.3-1.9-1.5-1.9c-0.5,0-1.3,0.4-1.5,0.9c-0.3,0.7-0.2,1.2-0.2,1.5v3.4H160.2"/>
				<path id="Fill-12" class="st0" d="M170.3,15.6c1.3,0,2.7,0.5,2.6,2h-1.3c0.1-0.8-0.6-1.1-1.3-1.1c-0.7,0-1.2,0.3-1.2,1.1
					c0,0.7,1.1,0.8,1.6,0.9c1.1,0.4,2.4,0.5,2.4,2c0,1.6-1.6,2.1-3,2.1c-1.4,0-2.6-0.6-2.6-2.2h1.3c0,0.8,0.6,1.3,1.4,1.3
					c0.7,0,1.5-0.3,1.5-1.1c0-1.5-4.1-0.4-4.1-3C167.7,16.2,169.1,15.6,170.3,15.6"/>
				<path id="Fill-13" class="st0" d="M178.7,17.9c-0.1-0.8-0.5-1.4-1.4-1.4c-1.2,0-1.7,1-1.7,2.6s0.5,2.6,1.7,2.6
					c0.8,0,1.4-0.5,1.4-1.5h1.3c-0.1,1.5-1.2,2.4-2.7,2.4c-2.1,0-3-1.5-3-3.5c0-1.9,1-3.6,3.1-3.6c1.4,0,2.5,0.9,2.5,2.3H178.7"/>
				<path id="Fill-14" class="st0" d="M181.8,22.4v-9.5h1.3v3.8h0c0.5-0.7,1.2-1.1,2.2-1.1c1.7,0,2.3,1.1,2.3,2.3v4.5h-1.3v-3.9
					c0-1.2-0.3-1.9-1.5-1.9c-0.5,0-1.3,0.4-1.5,0.9c-0.3,0.7-0.2,1.2-0.2,1.5v3.4H181.8"/>
				<path id="Fill-15" class="st0" d="M194.1,15.8h1.3v6.6h-1.2v-1h0c-0.5,0.8-1.4,1.2-2.3,1.2c-1.4,0-2.2-1.1-2.2-2.4v-4.4h1.3v3.9
					c0,1.1,0.3,2,1.5,2c0.5,0,1.2-0.3,1.5-1c0.2-0.6,0.3-1.4,0.3-1.6V15.8"/>
				<polygon id="Fill-16" class="st0" points="197.5,22.4 198.7,22.4 198.7,12.9 197.5,12.9 				"/>
				<path id="Fill-17" class="st0" d="M201.9,19.4c-0.1,1.2,0.4,2.4,1.7,2.4c1,0,1.5-0.4,1.6-1.3h1.3c-0.2,1.5-1.4,2.3-3,2.3
					c-2.1,0-3-1.5-3-3.5c0-1.9,1-3.6,3.1-3.6c2,0,2.9,1.3,2.9,3.1v0.6H201.9L201.9,19.4z M205.3,18.5c0-1.1-0.5-2-1.7-2
					c-1.1,0-1.7,0.9-1.7,2H205.3L205.3,18.5z"/>
				<polyline id="Fill-18" class="st0" points="115.9,27.8 115.9,37.3 114.3,37.3 109.4,29.2 109.4,29.2 109.4,37.3 108.2,37.3 
					108.2,27.8 110,27.8 114.7,35.7 114.7,35.7 114.7,27.8 115.9,27.8 				"/>
				<path id="Fill-19" class="st0" d="M124.4,34c0,2.1-1.1,3.5-3.3,3.5c-2.2,0-3.3-1.5-3.3-3.5c0-2.1,1.1-3.5,3.3-3.5
					C123.3,30.5,124.4,32,124.4,34L124.4,34z M121.1,36.6c1.5,0,2-1.2,2-2.6c0-1.4-0.5-2.6-2-2.6s-2,1.2-2,2.6
					C119.1,35.4,119.6,36.6,121.1,36.6L121.1,36.6z"/>
				<path id="Fill-20" class="st0" d="M127.4,37.3h-1.3v-6.6h1.3V32h0c0.2-0.9,1-1.4,2-1.4c0.2,0,0.3,0,0.4,0v1.2
					c-0.2-0.1-0.4-0.1-0.5-0.1c-1.6,0.1-1.9,0.9-1.9,2.3V37.3"/>
				<path id="Fill-21" class="st0" d="M135.4,27.8h1.3v8.4c0,0.4,0,0.8,0.1,1.2h-1.3l0-1v-0.1h0c-0.5,0.9-1.3,1.3-2.3,1.3
					c-2,0-2.8-1.8-2.8-3.5c0-1.8,0.9-3.5,3-3.5c0.9,0,1.7,0.3,2.1,1.1h0V27.8L135.4,27.8z M133.5,36.7c1.5,0,1.9-1.4,1.9-2.7
					c0-1.2-0.5-2.6-1.9-2.6c-1.5,0-1.9,1.4-1.9,2.6C131.6,35.2,132.1,36.7,133.5,36.7L133.5,36.7z"/>
				<polyline id="Fill-22" class="st0" points="148.7,30.7 146.3,37.3 144.9,37.3 143.3,31.9 143.3,31.9 141.6,37.3 140.1,37.3 
					137.9,30.7 139.2,30.7 140.9,36 140.9,36 142.6,30.7 144.2,30.7 145.7,35.9 145.7,35.9 147.4,30.7 148.7,30.7 				"/>
				<path id="Fill-23" class="st0" d="M150.8,34.3c-0.1,1.2,0.4,2.4,1.7,2.4c1,0,1.5-0.4,1.6-1.3h1.3c-0.2,1.5-1.4,2.3-3,2.3
					c-2.1,0-3-1.5-3-3.5c0-1.9,1-3.6,3.1-3.6c2,0,2.9,1.3,2.9,3.1v0.6H150.8L150.8,34.3z M154.2,33.4c0-1.1-0.5-2-1.7-2
					c-1.1,0-1.7,0.9-1.7,2H154.2L154.2,33.4z"/>
				<path id="Fill-24" class="st0" d="M159.5,30.5c1.3,0,2.7,0.5,2.6,2h-1.3c0.1-0.8-0.6-1.1-1.3-1.1c-0.7,0-1.2,0.3-1.2,1.1
					c0,0.7,1.1,0.8,1.6,0.9c1.1,0.4,2.4,0.5,2.4,2c0,1.6-1.6,2.1-3,2.1c-1.4,0-2.6-0.6-2.6-2.2h1.3c0,0.8,0.6,1.3,1.4,1.3
					c0.7,0,1.5-0.3,1.5-1.1c0-1.5-4.1-0.4-4.1-3C156.9,31.1,158.3,30.5,159.5,30.5"/>
				<path id="Fill-25" class="st0" d="M164.5,30.7v-1.4l1.3-0.4v1.8l1.5,0v0.9l-1.5,0v4.3c0,0.5,0.4,0.7,0.8,0.7
					c0.2,0,0.5,0,0.7-0.1v1c-0.3,0-0.6,0.1-0.9,0.1c-0.3,0-0.5,0-0.9-0.1c-0.2,0-0.5-0.1-0.7-0.4c-0.2-0.3-0.3-0.3-0.3-1.2v-4.2
					l-1.1,0v-0.9L164.5,30.7"/>
				<path id="Fill-26" class="st0" d="M171.1,30.5c1.3,0,2.7,0.5,2.6,2h-1.3c0.1-0.8-0.6-1.1-1.3-1.1c-0.7,0-1.2,0.3-1.2,1.1
					c0,0.7,1.1,0.8,1.6,0.9c1.1,0.4,2.4,0.5,2.4,2c0,1.6-1.6,2.1-3,2.1c-1.4,0-2.6-0.6-2.6-2.2h1.3c0,0.8,0.6,1.3,1.4,1.3
					c0.7,0,1.5-0.3,1.5-1.1c0-1.5-4.1-0.4-4.1-3C168.5,31.1,169.9,30.5,171.1,30.5"/>
				<path id="Fill-27" class="st0" d="M179.5,32.8c-0.1-0.8-0.5-1.4-1.4-1.4c-1.2,0-1.7,1-1.7,2.6c0,1.6,0.5,2.6,1.7,2.6
					c0.8,0,1.4-0.5,1.4-1.5h1.3c-0.1,1.5-1.2,2.4-2.7,2.4c-2.1,0-3-1.5-3-3.5c0-1.9,1-3.6,3.1-3.6c1.4,0,2.5,0.9,2.6,2.3H179.5"/>
				<path id="Fill-28" class="st0" d="M182.5,37.3v-9.5h1.3v3.8h0c0.5-0.7,1.2-1.1,2.2-1.1c1.7,0,2.3,1.1,2.3,2.3v4.5H187v-3.9
					c0-1.2-0.3-1.9-1.5-1.9c-0.5,0-1.3,0.4-1.5,0.9c-0.3,0.7-0.2,1.2-0.2,1.5v3.4H182.5"/>
				<polyline id="Fill-29" class="st0" points="200.1,30.7 197.7,37.3 196.3,37.3 194.7,31.9 194.7,31.9 193,37.3 191.5,37.3 
					189.3,30.7 190.7,30.7 192.3,36 192.3,36 194,30.7 195.6,30.7 197.1,35.9 197.1,35.9 198.8,30.7 200.1,30.7 				"/>
				<path id="Fill-30" class="st0" d="M202.2,34.3c-0.1,1.2,0.4,2.4,1.7,2.4c1,0,1.5-0.4,1.6-1.3h1.3c-0.2,1.5-1.4,2.3-3,2.3
					c-2.1,0-3-1.5-3-3.5c0-1.9,1-3.6,3.1-3.6c2,0,2.9,1.3,2.9,3.1v0.6H202.2L202.2,34.3z M205.6,33.4c0-1.1-0.5-2-1.7-2
					c-1.1,0-1.7,0.9-1.7,2H205.6L205.6,33.4z"/>
				<path id="Fill-31" class="st0" d="M208.4,29.2h1.5v-1.4h-1.5V29.2z M208.6,37.3h1.3v-6.6h-1.3V37.3z"/>
				<polyline id="Fill-32" class="st0" points="216.6,37.3 211.7,37.3 211.7,36.5 215.1,31.6 211.8,31.6 211.8,30.7 216.4,30.7 
					216.4,31.6 213.1,36.5 216.6,36.5 216.6,37.3 				"/>
				<path id="Fill-33" class="st0" d="M119,18.3c0-1.1-0.1-1.8-1.4-1.8c-0.6,0-1.2,0.4-1.3,1.1H115c0.1-1.5,1.2-2,2.5-2
					c1.4,0,2.7,0.4,2.7,2.3V21c0,0.3,0,0.8,0.1,1.4h-0.9c-0.1,0-0.3,0.1-0.4-0.1c0-0.3-0.1-0.6-0.1-0.9h0c-0.4,0.8-1.2,1.2-2.1,1.2
					c-1.2,0-2.3-0.6-2.3-1.9c0-1.9,1.7-2.4,3.3-2.4H119L119,18.3z M117.7,19.2c-0.8,0-1.8,0.3-1.8,1.3c0,0.8,0.6,1.2,1.3,1.2
					c1.5,0,1.8-1.3,1.7-2.5H117.7L117.7,19.2z"/>
				<path id="Fill-34" class="st0" d="M126.3,17.9c-0.1-0.8-0.5-1.4-1.4-1.4c-1.2,0-1.7,1-1.7,2.6s0.5,2.6,1.7,2.6
					c0.8,0,1.4-0.5,1.4-1.5h1.3c-0.1,1.5-1.2,2.4-2.7,2.4c-2.1,0-3-1.5-3-3.5c0-1.9,1-3.6,3.1-3.6c1.4,0,2.5,0.9,2.5,2.3H126.3"/>
				<path id="Fill-35" class="st0" d="M129.4,22.4v-9.5h1.3v3.8h0c0.5-0.7,1.2-1.1,2.2-1.1c1.7,0,2.3,1.1,2.3,2.3v4.5h-1.3v-3.9
					c0-1.2-0.3-1.9-1.5-1.9c-0.5,0-1.3,0.4-1.5,0.9c-0.3,0.7-0.2,1.2-0.2,1.5v3.4H129.4"/>
				<path id="Fill-36" class="st0" d="M137.5,22.4v-9.5h1.3v3.8h0c0.5-0.7,1.2-1.1,2.2-1.1c1.7,0,2.3,1.1,2.3,2.3v4.5H142v-3.9
					c0-1.2-0.3-1.9-1.5-1.9c-0.5,0-1.3,0.4-1.5,0.9c-0.3,0.7-0.2,1.2-0.2,1.5v3.4H137.5"/>
				<path id="Fill-37" class="st0" d="M151.5,19.1c0,2.1-1.1,3.5-3.3,3.5c-2.2,0-3.3-1.5-3.3-3.5s1.1-3.5,3.3-3.5
					C150.4,15.6,151.5,17.1,151.5,19.1L151.5,19.1z M148.2,21.7c1.5,0,2-1.2,2-2.6s-0.5-2.6-2-2.6s-2,1.2-2,2.6
					S146.6,21.7,148.2,21.7L148.2,21.7z"/>
				<path id="Fill-38" class="st0" d="M157.1,17.9c-0.1-0.8-0.5-1.4-1.4-1.4c-1.2,0-1.7,1-1.7,2.6s0.5,2.6,1.7,2.6
					c0.8,0,1.4-0.5,1.4-1.5h1.3c-0.1,1.5-1.2,2.4-2.7,2.4c-2.1,0-3-1.5-3-3.5c0-1.9,1-3.6,3.1-3.6c1.4,0,2.5,0.9,2.5,2.3H157.1"/>
				<path id="Fill-39" class="st0" d="M160.2,22.4v-9.5h1.3v3.8h0c0.5-0.7,1.2-1.1,2.2-1.1c1.8,0,2.3,1.1,2.3,2.3v4.5h-1.3v-3.9
					c0-1.2-0.3-1.9-1.5-1.9c-0.5,0-1.3,0.4-1.5,0.9c-0.3,0.7-0.2,1.2-0.2,1.5v3.4H160.2"/>
				<path id="Fill-40" class="st0" d="M170.3,15.6c1.3,0,2.7,0.5,2.6,2h-1.3c0.1-0.8-0.6-1.1-1.3-1.1c-0.7,0-1.2,0.3-1.2,1.1
					c0,0.7,1.1,0.8,1.6,0.9c1.1,0.4,2.4,0.5,2.4,2c0,1.6-1.6,2.1-3,2.1c-1.4,0-2.6-0.6-2.6-2.2h1.3c0,0.8,0.6,1.3,1.4,1.3
					c0.7,0,1.5-0.3,1.5-1.1c0-1.5-4.1-0.4-4.1-3C167.7,16.2,169.1,15.6,170.3,15.6"/>
				<path id="Fill-41" class="st0" d="M178.7,17.9c-0.1-0.8-0.5-1.4-1.4-1.4c-1.2,0-1.7,1-1.7,2.6s0.5,2.6,1.7,2.6
					c0.8,0,1.4-0.5,1.4-1.5h1.3c-0.1,1.5-1.2,2.4-2.7,2.4c-2.1,0-3-1.5-3-3.5c0-1.9,1-3.6,3.1-3.6c1.4,0,2.5,0.9,2.5,2.3H178.7"/>
				<path id="Fill-42" class="st0" d="M181.8,22.4v-9.5h1.3v3.8h0c0.5-0.7,1.2-1.1,2.2-1.1c1.7,0,2.3,1.1,2.3,2.3v4.5h-1.3v-3.9
					c0-1.2-0.3-1.9-1.5-1.9c-0.5,0-1.3,0.4-1.5,0.9c-0.3,0.7-0.2,1.2-0.2,1.5v3.4H181.8"/>
				<path id="Fill-43" class="st0" d="M194.1,15.8h1.3v6.6h-1.2v-1h0c-0.5,0.8-1.4,1.2-2.3,1.2c-1.4,0-2.2-1.1-2.2-2.4v-4.4h1.3v3.9
					c0,1.1,0.3,2,1.5,2c0.5,0,1.2-0.3,1.5-1c0.2-0.6,0.3-1.4,0.3-1.6V15.8"/>
				<polygon id="Fill-44" class="st0" points="197.5,22.4 198.7,22.4 198.7,12.9 197.5,12.9 				"/>
				<path id="Fill-45" class="st0" d="M201.9,19.4c-0.1,1.2,0.4,2.4,1.7,2.4c1,0,1.5-0.4,1.6-1.3h1.3c-0.2,1.5-1.4,2.3-3,2.3
					c-2.1,0-3-1.5-3-3.5c0-1.9,1-3.6,3.1-3.6c2,0,2.9,1.3,2.9,3.1v0.6H201.9L201.9,19.4z M205.3,18.5c0-1.1-0.5-2-1.7-2
					c-1.1,0-1.7,0.9-1.7,2H205.3L205.3,18.5z"/>
				<polyline id="Fill-46" class="st0" points="115.9,27.8 115.9,37.3 114.3,37.3 109.4,29.2 109.4,29.2 109.4,37.3 108.2,37.3 
					108.2,27.8 110,27.8 114.7,35.7 114.7,35.7 114.7,27.8 115.9,27.8 				"/>
				<path id="Fill-47" class="st0" d="M124.4,34c0,2.1-1.1,3.5-3.3,3.5c-2.2,0-3.3-1.5-3.3-3.5c0-2.1,1.1-3.5,3.3-3.5
					C123.3,30.5,124.4,32,124.4,34L124.4,34z M121.1,36.6c1.5,0,2-1.2,2-2.6c0-1.4-0.5-2.6-2-2.6s-2,1.2-2,2.6
					C119.1,35.4,119.6,36.6,121.1,36.6L121.1,36.6z"/>
				<path id="Fill-48" class="st0" d="M127.4,37.3h-1.3v-6.6h1.3V32h0c0.2-0.9,1-1.4,2-1.4c0.2,0,0.3,0,0.4,0v1.2
					c-0.2-0.1-0.4-0.1-0.5-0.1c-1.6,0.1-1.9,0.9-1.9,2.3V37.3"/>
				<path id="Fill-49" class="st0" d="M135.4,27.8h1.3v8.4c0,0.4,0,0.8,0.1,1.2h-1.3l0-1v-0.1h0c-0.5,0.9-1.3,1.3-2.3,1.3
					c-2,0-2.8-1.8-2.8-3.5c0-1.8,0.9-3.5,3-3.5c0.9,0,1.7,0.3,2.1,1.1h0V27.8L135.4,27.8z M133.5,36.7c1.5,0,1.9-1.4,1.9-2.7
					c0-1.2-0.5-2.6-1.9-2.6c-1.5,0-1.9,1.4-1.9,2.6C131.6,35.2,132.1,36.7,133.5,36.7L133.5,36.7z"/>
				<polyline id="Fill-50" class="st0" points="148.7,30.7 146.3,37.3 144.9,37.3 143.3,31.9 143.3,31.9 141.6,37.3 140.1,37.3 
					137.9,30.7 139.2,30.7 140.9,36 140.9,36 142.6,30.7 144.2,30.7 145.7,35.9 145.7,35.9 147.4,30.7 148.7,30.7 				"/>
				<path id="Fill-51" class="st0" d="M150.8,34.3c-0.1,1.2,0.4,2.4,1.7,2.4c1,0,1.5-0.4,1.6-1.3h1.3c-0.2,1.5-1.4,2.3-3,2.3
					c-2.1,0-3-1.5-3-3.5c0-1.9,1-3.6,3.1-3.6c2,0,2.9,1.3,2.9,3.1v0.6H150.8L150.8,34.3z M154.2,33.4c0-1.1-0.5-2-1.7-2
					c-1.1,0-1.7,0.9-1.7,2H154.2L154.2,33.4z"/>
				<path id="Fill-52" class="st0" d="M159.5,30.5c1.3,0,2.7,0.5,2.6,2h-1.3c0.1-0.8-0.6-1.1-1.3-1.1c-0.7,0-1.2,0.3-1.2,1.1
					c0,0.7,1.1,0.8,1.6,0.9c1.1,0.4,2.4,0.5,2.4,2c0,1.6-1.6,2.1-3,2.1c-1.4,0-2.6-0.6-2.6-2.2h1.3c0,0.8,0.6,1.3,1.4,1.3
					c0.7,0,1.5-0.3,1.5-1.1c0-1.5-4.1-0.4-4.1-3C156.9,31.1,158.3,30.5,159.5,30.5"/>
				<path id="Fill-53" class="st0" d="M164.5,30.7v-1.4l1.3-0.4v1.8l1.5,0v0.9l-1.5,0v4.3c0,0.5,0.4,0.7,0.8,0.7
					c0.2,0,0.5,0,0.7-0.1v1c-0.3,0-0.6,0.1-0.9,0.1c-0.3,0-0.5,0-0.9-0.1c-0.2,0-0.5-0.1-0.7-0.4c-0.2-0.3-0.3-0.3-0.3-1.2v-4.2
					l-1.1,0v-0.9L164.5,30.7"/>
				<path id="Fill-54" class="st0" d="M171.1,30.5c1.3,0,2.7,0.5,2.6,2h-1.3c0.1-0.8-0.6-1.1-1.3-1.1c-0.7,0-1.2,0.3-1.2,1.1
					c0,0.7,1.1,0.8,1.6,0.9c1.1,0.4,2.4,0.5,2.4,2c0,1.6-1.6,2.1-3,2.1c-1.4,0-2.6-0.6-2.6-2.2h1.3c0,0.8,0.6,1.3,1.4,1.3
					c0.7,0,1.5-0.3,1.5-1.1c0-1.5-4.1-0.4-4.1-3C168.5,31.1,169.9,30.5,171.1,30.5"/>
				<path id="Fill-55" class="st0" d="M179.5,32.8c-0.1-0.8-0.5-1.4-1.4-1.4c-1.2,0-1.7,1-1.7,2.6c0,1.6,0.5,2.6,1.7,2.6
					c0.8,0,1.4-0.5,1.4-1.5h1.3c-0.1,1.5-1.2,2.4-2.7,2.4c-2.1,0-3-1.5-3-3.5c0-1.9,1-3.6,3.1-3.6c1.4,0,2.5,0.9,2.6,2.3H179.5"/>
				<path id="Fill-56" class="st0" d="M182.5,37.3v-9.5h1.3v3.8h0c0.5-0.7,1.2-1.1,2.2-1.1c1.7,0,2.3,1.1,2.3,2.3v4.5H187v-3.9
					c0-1.2-0.3-1.9-1.5-1.9c-0.5,0-1.3,0.4-1.5,0.9c-0.3,0.7-0.2,1.2-0.2,1.5v3.4H182.5"/>
				<polyline id="Fill-57" class="st0" points="200.1,30.7 197.7,37.3 196.3,37.3 194.7,31.9 194.7,31.9 193,37.3 191.5,37.3 
					189.3,30.7 190.7,30.7 192.3,36 192.3,36 194,30.7 195.6,30.7 197.1,35.9 197.1,35.9 198.8,30.7 200.1,30.7 				"/>
				<path id="Fill-58" class="st0" d="M202.2,34.3c-0.1,1.2,0.4,2.4,1.7,2.4c1,0,1.5-0.4,1.6-1.3h1.3c-0.2,1.5-1.4,2.3-3,2.3
					c-2.1,0-3-1.5-3-3.5c0-1.9,1-3.6,3.1-3.6c2,0,2.9,1.3,2.9,3.1v0.6H202.2L202.2,34.3z M205.6,33.4c0-1.1-0.5-2-1.7-2
					c-1.1,0-1.7,0.9-1.7,2H205.6L205.6,33.4z"/>
				<path id="Fill-59" class="st0" d="M208.4,29.2h1.5v-1.4h-1.5V29.2z M208.6,37.3h1.3v-6.6h-1.3V37.3z"/>
				<polyline id="Fill-60" class="st0" points="216.6,37.3 211.7,37.3 211.7,36.5 215.1,31.6 211.8,31.6 211.8,30.7 216.4,30.7 
					216.4,31.6 213.1,36.5 216.6,36.5 216.6,37.3 				"/>
			</g>
		</g>
	</g>
</g>
</svg>
