<?xml version="1.0" encoding="UTF-8" standalone="no"?>
<svg width="85px" height="51px" viewBox="0 0 85 51" version="1.1" xmlns="http://www.w3.org/2000/svg" xmlns:xlink="http://www.w3.org/1999/xlink">
    <!-- Generator: sketchtool 3.7.2 (28276) - http://www.bohemiancoding.com/sketch -->
    <title>1EA9DBD3-1622-4801-A6A3-5D0E5997CF75</title>
    <desc>Created with sketchtool.</desc>
    <defs>
        <rect id="path-1" x="0" y="0" width="106" height="67"></rect>
    </defs>
    <g id="Symbols" stroke="none" stroke-width="1" fill="none" fill-rule="evenodd">
        <g id="header_normal_230" transform="translate(-34.000000, -23.000000)">
            <g id="FHNW_10mm_Bildmarke">
                <g transform="translate(24.000000, 13.000000)">
                    <mask id="mask-2" fill="white">
                        <use xlink:href="#path-1"></use>
                    </mask>
                    <use id="Mask" fill="#FFFFFF" opacity="0" xlink:href="#path-1"></use>
                    <g id="FHNW_10mm" mask="url(#mask-2)" fill="#1A1918">
                        <g transform="translate(9.464286, 9.571429)">
                            <polygon id="Fill-1" points="35.9743254 51.2223251 37.6928883 51.2223251 37.6928883 0.700430542 35.9743254 0.700430542"></polygon>
                            <path d="M10.1480463,17.4947232 C10.9630349,16.3398148 12.8304217,12.723597 18.2908451,12.723597 C22.1390086,12.723597 24.1853386,14.2652571 24.9985554,15.0369783 C27.3460769,17.3503596 27.4895857,20.676068 27.4895857,22.5545764 L27.4895857,38.5860591 L17.6193654,38.5860591 L17.6193654,24.495464 C17.6193654,24.2103015 17.5750726,20.9166739 14.267282,20.9166739 C10.7681463,20.9166739 10.6760171,24.1497044 10.6760171,25.0141034 L10.6760171,38.5860591 L0.805796857,38.5860591 L0.805796857,13.3491724 L10.1480463,13.3491724 L10.1480463,17.4947232" id="Fill-2"></path>
                            <path d="M81.4878937,12.769936 C79.638224,12.769936 78.1393537,14.2795153 78.1393537,16.1384187 C78.1393537,17.9991044 79.638224,19.5069015 81.4878937,19.5069015 C83.1834243,19.5069015 83.9346311,18.2771379 83.9558917,18.3395172 C84.9143891,21.2820384 79.8295691,36.5435823 72.879134,36.5435823 C70.6290569,36.5435823 69.9327731,34.7131951 69.9327731,32.3427813 C69.9327731,29.5392768 70.7371314,26.6823044 71.7558671,22.8023113 C72.8277543,18.9757862 73.7915669,15.3114473 74.3283963,13.3491724 L67.633088,13.3491724 C66.7188834,16.6588404 60.167084,36.0588059 54.610988,36.0588059 C53.916476,36.0588059 53.1652691,35.3049074 53.1652691,33.9575143 C53.1652691,33.205398 53.8066297,30.5622975 54.1308534,29.5909626 L56.3242357,22.0484128 C56.806142,20.4835833 57.5024257,18.4393241 57.5024257,16.9297448 C57.5024257,14.2884266 55.6828751,12.7788473 53.5408726,12.7788473 C47.4869249,12.7788473 44.9693189,18.2218877 43.734434,20.4301153 L44.7549414,21.0788601 C45.3431506,20.1093074 48.0219826,15.5288837 49.8433049,15.5288837 C50.1108337,15.5288837 50.3269829,15.8514739 50.3269829,16.8210266 C50.3269829,17.4679892 49.9513794,18.9223182 49.575776,20.2697113 L47.2725474,27.9209793 C46.896944,29.3236227 45.9845111,32.0184089 45.9845111,33.9575143 C45.9845111,37.5149172 48.6651149,39.2936187 51.0214949,39.2936187 C59.6125374,39.2936187 63.3437677,28.837064 64.5751091,25.82147 L64.6831837,25.9284059 C64.5219577,26.5219005 63.7707509,29.6996808 63.7707509,31.3179783 C63.7707509,35.95187 65.8294829,39.2936187 70.3278654,39.2936187 C83.3729977,39.2936187 90.489974,12.769936 81.4878937,12.769936" id="Fill-3"></path>
                        </g>
                    </g>
                </g>
            </g>
        </g>
    </g>
</svg>