<?xml version="1.0" encoding="UTF-8" standalone="no"?>
<svg width="217px" height="50px" viewBox="0 0 217 50" version="1.1" xmlns="http://www.w3.org/2000/svg" xmlns:xlink="http://www.w3.org/1999/xlink">
    <!-- Generator: sketchtool 3.7.2 (28276) - http://www.bohemiancoding.com/sketch -->
    <title>11E25499-DC5D-4CB1-A94C-515655BCDA10</title>
    <desc>Created with sketchtool.</desc>
    <defs></defs>
    <g id="Symbols" stroke="none" stroke-width="1" fill="none" fill-rule="evenodd">
        <g id="header" transform="translate(-40.000000, -32.000000)" fill="#1A1918">
            <g id="FHNW_10mm_Desktop_Wortmarke">
                <g transform="translate(40.000000, 32.000000)">
                    <polygon id="Fill-1" points="35.4004375 49.5517241 37.0915846 49.5517241 37.0915846 0.677586207 35.4004375 0.677586207"></polygon>
                    <path d="M9.98615746,16.9241379 C10.7881448,15.8068966 12.6257417,12.3086207 17.9990566,12.3086207 C21.7858314,12.3086207 23.7995169,13.8 24.5997608,14.5465517 C26.9098329,16.7844828 27.0510524,20.0017241 27.0510524,21.8189655 L27.0510524,37.3275862 L17.3382888,37.3275862 L17.3382888,23.6965517 C17.3382888,23.4206897 17.2947026,20.2344828 14.0396802,20.2344828 C10.5963652,20.2344828 10.5057058,23.362069 10.5057058,24.1982759 L10.5057058,37.3275862 L0.792942215,37.3275862 L0.792942215,12.9137931 L9.98615746,12.9137931 L9.98615746,16.9241379" id="Fill-2"></path>
                    <path d="M80.1879411,12.3534483 C78.3677786,12.3534483 76.8928194,13.8137931 76.8928194,15.612069 C76.8928194,17.412069 78.3677786,18.8706897 80.1879411,18.8706897 C81.8564233,18.8706897 82.5956464,17.6810345 82.6165678,17.7413793 C83.5597746,20.587931 78.5560713,35.3517241 71.7165144,35.3517241 C69.5023321,35.3517241 68.817156,33.5810345 68.817156,31.287931 C68.817156,28.5758621 69.6086826,25.812069 70.6111667,22.0586207 C71.6659543,18.3568966 72.6143915,14.812069 73.142657,12.9137931 L66.554157,12.9137931 C65.6545365,16.1155172 59.207256,34.8827586 53.7397948,34.8827586 C53.0563622,34.8827586 52.3171391,34.1534483 52.3171391,32.85 C52.3171391,32.1224138 52.9482682,29.5655172 53.2673197,28.6258621 L55.4257116,21.3293103 C55.8999302,19.8155172 56.5851063,17.837931 56.5851063,16.3775862 C56.5851063,13.8224138 54.7945825,12.362069 52.6867506,12.362069 C46.7293798,12.362069 44.2519364,17.6275862 43.0367513,19.7637931 L44.0409789,20.3913793 C44.6198045,19.4534483 47.2559019,15.0224138 49.0481691,15.0224138 C49.3114302,15.0224138 49.5241312,15.3344828 49.5241312,16.2724138 C49.5241312,16.8982759 49.1545196,18.3051724 48.7849081,19.6086207 L46.5184222,27.0103448 C46.1488107,28.3672414 45.2509336,30.9741379 45.2509336,32.85 C45.2509336,36.2913793 47.8887745,38.012069 50.2075638,38.012069 C58.661556,38.012069 62.333263,27.8965517 63.5449612,24.9793103 L63.6513117,25.0827586 C63.4926577,25.6568966 62.7534346,28.7310345 62.7534346,30.2965517 C62.7534346,34.7793103 64.7793243,38.012069 69.2059455,38.012069 C82.0429726,38.012069 89.0464138,12.3534483 80.1879411,12.3534483" id="Fill-3"></path>
                    <polyline id="Fill-4" points="108.175554 22.4293103 108.175554 12.9017241 113.883612 12.9017241 113.883612 14.037931 109.509294 14.037931 109.509294 17.0310345 113.632555 17.0310345 113.632555 18.1672414 109.509294 18.1672414 109.509294 22.4293103 108.175554 22.4293103"></polyline>
                    <path d="M118.981461,18.337931 C118.981461,17.1896552 118.913467,16.5172414 117.565779,16.5172414 C116.925933,16.5172414 116.326186,16.8862069 116.312238,17.5724138 L114.976755,17.5724138 C115.046493,16.1224138 116.193684,15.6068966 117.513476,15.6068966 C118.887315,15.6068966 120.24895,16.0172414 120.24895,17.8637931 L120.24895,21.0293103 C120.24895,21.3206897 120.262898,21.8741379 120.302997,22.4293103 L119.448706,22.4293103 C119.328408,22.4293103 119.101759,22.4948276 119.087812,22.337931 C119.059917,22.0327586 119.035508,21.7431034 119.023304,21.4396552 L118.995409,21.4396552 C118.580468,22.2706897 117.834271,22.6258621 116.911985,22.6258621 C115.754334,22.6258621 114.579248,22.0327586 114.579248,20.7396552 C114.579248,18.8793103 116.244244,18.337931 117.834271,18.337931 L118.981461,18.337931 L118.981461,18.337931 Z M117.715716,19.2103448 C116.938137,19.25 115.914732,19.5258621 115.914732,20.4896552 C115.914732,21.3068966 116.486583,21.7172414 117.234524,21.7172414 C118.726918,21.7172414 119.009357,20.4362069 118.981461,19.2103448 L117.715716,19.2103448 L117.715716,19.2103448 Z" id="Fill-5"></path>
                    <path d="M126.333593,17.9293103 C126.265598,17.0982759 125.866348,16.5172414 124.95801,16.5172414 C123.746312,16.5172414 123.279067,17.5603448 123.279067,19.1172414 C123.279067,20.6741379 123.746312,21.7172414 124.95801,21.7172414 C125.800097,21.7172414 126.319645,21.1758621 126.38764,20.2241379 L127.655128,20.2241379 C127.548778,21.7172414 126.425996,22.6258621 124.944063,22.6258621 C122.799618,22.6258621 121.943584,21.1241379 121.943584,19.1689655 C121.943584,17.2310345 122.932121,15.6068966 125.0539,15.6068966 C126.466095,15.6068966 127.53483,16.4913793 127.601081,17.9293103 L126.333593,17.9293103" id="Fill-6"></path>
                    <path d="M129.429961,22.4293103 L129.429961,12.9017241 L130.695706,12.9017241 L130.695706,16.6896552 L130.723601,16.6896552 C131.20305,15.95 131.924839,15.6068966 132.899428,15.6068966 C134.646365,15.6068966 135.193809,16.7551724 135.193809,17.9431034 L135.193809,22.4293103 L133.928064,22.4293103 L133.928064,18.5103448 C133.928064,17.3482759 133.621216,16.5965517 132.432183,16.5706897 C131.924839,16.5568966 131.15249,16.9396552 130.910151,17.4948276 C130.617251,18.1793103 130.695706,18.6551724 130.695706,19.0241379 L130.695706,22.4293103 L129.429961,22.4293103" id="Fill-7"></path>
                    <path d="M137.516085,22.4293103 L137.516085,12.9017241 L138.783574,12.9017241 L138.783574,16.6896552 L138.809726,16.6896552 C139.290918,15.95 140.012706,15.6068966 140.985552,15.6068966 C142.732489,15.6068966 143.281676,16.7551724 143.281676,17.9431034 L143.281676,22.4293103 L142.010701,22.4293103 L142.010701,18.5103448 C142.010701,17.3482759 141.705597,16.5965517 140.516564,16.5706897 C140.012706,16.5568966 139.236871,16.9396552 138.998018,17.4948276 C138.705118,18.1793103 138.783574,18.6551724 138.783574,19.0241379 L138.783574,22.4293103 L137.516085,22.4293103" id="Fill-8"></path>
                    <path d="M151.484612,19.1172414 C151.484612,21.1758621 150.353112,22.6258621 148.151134,22.6258621 C145.947412,22.6258621 144.81417,21.1758621 144.81417,19.1172414 C144.81417,17.0586207 145.947412,15.6068966 148.151134,15.6068966 C150.353112,15.6068966 151.484612,17.0586207 151.484612,19.1172414 L151.484612,19.1172414 Z M148.151134,21.7172414 C149.659219,21.7172414 150.152615,20.5293103 150.152615,19.1172414 C150.152615,17.7051724 149.659219,16.5172414 148.151134,16.5172414 C146.643049,16.5172414 146.147909,17.7051724 146.147909,19.1172414 C146.147909,20.5293103 146.643049,21.7172414 148.151134,21.7172414 L148.151134,21.7172414 Z" id="Fill-9"></path>
                    <path d="M157.129905,17.9293103 C157.06191,17.0982759 156.664404,16.5172414 155.754322,16.5172414 C154.542624,16.5172414 154.071892,17.5603448 154.071892,19.1172414 C154.071892,20.6741379 154.542624,21.7172414 155.754322,21.7172414 C156.594666,21.7172414 157.115957,21.1758621 157.182208,20.2241379 L158.45144,20.2241379 C158.341603,21.7172414 157.222308,22.6258621 155.740375,22.6258621 C153.592444,22.6258621 152.74164,21.1241379 152.74164,19.1689655 C152.74164,17.2310345 153.728433,15.6068966 155.850212,15.6068966 C157.262407,15.6068966 158.329399,16.4913793 158.397394,17.9293103 L157.129905,17.9293103" id="Fill-10"></path>
                    <path d="M160.22453,22.4293103 L160.22453,12.9017241 L161.492018,12.9017241 L161.492018,16.6896552 L161.519914,16.6896552 C161.999363,15.95 162.717664,15.6068966 163.692253,15.6068966 C165.442678,15.6068966 165.986634,16.7551724 165.986634,17.9431034 L165.986634,22.4293103 L164.720889,22.4293103 L164.720889,18.5103448 C164.720889,17.3482759 164.414042,16.5965517 163.225008,16.5706897 C162.717664,16.5568966 161.945316,16.9396552 161.706463,17.4948276 C161.410076,18.1793103 161.492018,18.6551724 161.492018,19.0241379 L161.492018,22.4293103 L160.22453,22.4293103" id="Fill-11"></path>
                    <path d="M170.312135,15.6068966 C171.57788,15.6068966 173.009253,16.1344828 172.913364,17.637931 L171.57788,17.637931 C171.631927,16.7948276 170.978133,16.5172414 170.244141,16.5172414 C169.565938,16.5172414 169.016751,16.8344828 169.016751,17.5724138 C169.016751,18.312069 170.165685,18.3637931 170.645134,18.5103448 C171.778377,18.8793103 173.085965,19.0103448 173.085965,20.5034483 C173.085965,22.1258621 171.487221,22.6258621 170.109895,22.6258621 C168.711648,22.6258621 167.536562,21.9931034 167.550509,20.4637931 L168.884249,20.4637931 C168.912144,21.2810345 169.470049,21.7172414 170.244141,21.7172414 C170.992081,21.7172414 171.752225,21.4258621 171.752225,20.5689655 C171.752225,19.0913793 167.683012,20.2 167.683012,17.6137931 C167.683012,16.2275862 169.095207,15.6068966 170.312135,15.6068966" id="Fill-12"></path>
                    <path d="M178.691159,17.9293103 C178.623164,17.0982759 178.225658,16.5172414 177.315576,16.5172414 C176.103878,16.5172414 175.636633,17.5603448 175.636633,19.1172414 C175.636633,20.6741379 176.103878,21.7172414 177.315576,21.7172414 C178.157663,21.7172414 178.678955,21.1758621 178.746949,20.2241379 L180.012695,20.2241379 C179.904601,21.7172414 178.783562,22.6258621 177.301629,22.6258621 C175.153698,22.6258621 174.302894,21.1241379 174.302894,19.1689655 C174.302894,17.2310345 175.289687,15.6068966 177.411466,15.6068966 C178.823661,15.6068966 179.89414,16.4913793 179.958648,17.9293103 L178.691159,17.9293103" id="Fill-13"></path>
                    <path d="M181.787527,22.4293103 L181.787527,12.9017241 L183.053273,12.9017241 L183.053273,16.6896552 L183.081168,16.6896552 C183.560617,15.95 184.282405,15.6068966 185.256994,15.6068966 C187.003932,15.6068966 187.551375,16.7551724 187.551375,17.9431034 L187.551375,22.4293103 L186.28563,22.4293103 L186.28563,18.5103448 C186.28563,17.3482759 185.978783,16.5965517 184.789749,16.5706897 C184.282405,16.5568966 183.510057,16.9396552 183.267717,17.4948276 C182.974817,18.1793103 183.053273,18.6551724 183.053273,19.0241379 L183.053273,22.4293103 L181.787527,22.4293103" id="Fill-14"></path>
                    <path d="M194.103263,15.8051724 L195.370751,15.8051724 L195.370751,22.4293103 L194.131158,22.4293103 L194.131158,21.4517241 L194.103263,21.4517241 C193.595919,22.2844828 192.741628,22.6258621 191.808882,22.6258621 C190.408891,22.6258621 189.60516,21.5724138 189.60516,20.237931 L189.60516,15.8051724 L190.876136,15.8051724 L190.876136,19.7241379 C190.876136,20.8706897 191.14114,21.7172414 192.356325,21.7172414 C192.87413,21.7172414 193.581971,21.4517241 193.852206,20.7655172 C194.089315,20.1465517 194.103263,19.3672414 194.103263,19.2103448 L194.103263,15.8051724" id="Fill-15"></path>
                    <polygon id="Fill-16" points="197.454175 22.4293103 198.721663 22.4293103 198.721663 12.9017241 197.454175 12.9017241"></polygon>
                    <path d="M201.880796,19.3551724 C201.788393,20.5155172 202.269586,21.7172414 203.563226,21.7172414 C204.550019,21.7172414 205.045159,21.3344828 205.191609,20.3706897 L206.525349,20.3706897 C206.324852,21.8741379 205.153253,22.6258621 203.549278,22.6258621 C201.401347,22.6258621 200.550543,21.1241379 200.550543,19.1689655 C200.550543,17.2310345 201.537336,15.6068966 203.659116,15.6068966 C205.65711,15.6465517 206.607291,16.9 206.607291,18.7344828 L206.607291,19.3551724 L201.880796,19.3551724 L201.880796,19.3551724 Z M205.271808,18.4844828 C205.299703,17.3758621 204.792359,16.5172414 203.563226,16.5172414 C202.511925,16.5172414 201.880796,17.4017241 201.880796,18.4844828 L205.271808,18.4844828 L205.271808,18.4844828 Z" id="Fill-17"></path>
                    <polyline id="Fill-18" points="115.907758 27.8051724 115.907758 37.3310345 114.25148 37.3310345 109.383766 29.2431034 109.35587 29.2431034 109.35587 37.3310345 108.170324 37.3310345 108.170324 27.8051724 109.995717 27.8051724 114.690829 35.6827586 114.718725 35.6827586 114.718725 27.8051724 115.907758 27.8051724"></polyline>
                    <path d="M124.447179,34.0189655 C124.447179,36.0793103 123.313936,37.5310345 121.110215,37.5310345 C118.90998,37.5310345 117.776737,36.0793103 117.776737,34.0189655 C117.776737,31.962069 118.90998,30.5086207 121.110215,30.5086207 C123.313936,30.5086207 124.447179,31.962069 124.447179,34.0189655 L124.447179,34.0189655 Z M121.110215,36.6189655 C122.618299,36.6189655 123.111696,35.4327586 123.111696,34.0189655 C123.111696,32.6086207 122.618299,31.4224138 121.110215,31.4224138 C119.60213,31.4224138 119.110477,32.6086207 119.110477,34.0189655 C119.110477,35.4327586 119.60213,36.6189655 121.110215,36.6189655 L121.110215,36.6189655 Z" id="Fill-19"></path>
                    <path d="M127.355255,37.3310345 L126.087766,37.3310345 L126.087766,30.7068966 L127.355255,30.7068966 L127.355255,31.987931 L127.38315,31.987931 C127.569699,31.0775862 128.42399,30.6155172 129.344532,30.6155172 C129.504929,30.6155172 129.637432,30.6293103 129.783882,30.6293103 L129.783882,31.8155172 C129.609536,31.7517241 129.412527,31.7517241 129.238181,31.7517241 C127.634207,31.8034483 127.355255,32.6465517 127.355255,34.0465517 L127.355255,37.3310345" id="Fill-20"></path>
                    <path d="M135.40128,27.8051724 L136.668768,27.8051724 L136.668768,36.1586207 C136.668768,36.5534483 136.708868,36.95 136.736763,37.3310345 L135.443122,37.3310345 L135.40128,36.3431034 L135.40128,36.2775862 L135.375128,36.2775862 C134.921831,37.2 134.039645,37.5310345 133.065056,37.5310345 C131.077522,37.5310345 130.291226,35.7224138 130.291226,34.0189655 C130.291226,32.2258621 131.213511,30.5086207 133.293448,30.5086207 C134.147739,30.5086207 134.989825,30.8137931 135.375128,31.6051724 L135.40128,31.6051724 L135.40128,27.8051724 L135.40128,27.8051724 Z M133.52184,36.6603448 C135.054333,36.6603448 135.415227,35.2465517 135.415227,34.0086207 C135.415227,32.8051724 134.96193,31.3810345 133.52184,31.3810345 C131.999807,31.3810345 131.624965,32.7672414 131.624965,34.0086207 C131.624965,35.2465517 132.09221,36.6603448 133.52184,36.6603448 L133.52184,36.6603448 Z" id="Fill-21"></path>
                    <polyline id="Fill-22" points="148.691604 30.7068966 146.329228 37.3310345 144.889138 37.3310345 143.32875 31.8827586 143.300854 31.8827586 141.564378 37.3310345 140.084188 37.3310345 137.870006 30.7068966 139.245588 30.7068966 140.860023 36.037931 140.887919 36.037931 142.552914 30.7068966 144.193501 30.7068966 145.701586 35.9344828 145.729481 35.9344828 147.397963 30.7068966 148.691604 30.7068966"></polyline>
                    <path d="M150.787231,34.2568966 C150.694829,35.4189655 151.170791,36.6189655 152.467918,36.6189655 C153.452967,36.6189655 153.949851,36.237931 154.096301,35.2741379 L155.428297,35.2741379 C155.229544,36.7793103 154.056201,37.5310345 152.45397,37.5310345 C150.306039,37.5310345 149.451748,36.0275862 149.451748,34.0724138 C149.451748,32.1344828 150.438541,30.5086207 152.560321,30.5086207 C154.561802,30.55 155.508496,31.8034483 155.508496,33.637931 L155.508496,34.2568966 L150.787231,34.2568966 L150.787231,34.2568966 Z M154.174756,33.3862069 C154.200908,32.2793103 153.695307,31.4224138 152.467918,31.4224138 C151.41313,31.4224138 150.787231,32.3051724 150.787231,33.3862069 L154.174756,33.3862069 L154.174756,33.3862069 Z" id="Fill-23"></path>
                    <path d="M159.523663,30.5086207 C160.794638,30.5086207 162.220781,31.037931 162.124891,32.5431034 L160.794638,32.5431034 C160.845198,31.6982759 160.191404,31.4224138 159.459155,31.4224138 C158.777466,31.4224138 158.230022,31.737931 158.230022,32.4758621 C158.230022,33.2172414 159.377213,33.2689655 159.858405,33.4137931 C160.991648,33.7827586 162.299236,33.9137931 162.299236,35.4051724 C162.299236,37.0293103 160.698748,37.5310345 159.326653,37.5310345 C157.923175,37.5310345 156.751576,36.8965517 156.762037,35.3672414 L158.09752,35.3672414 C158.123672,36.1844828 158.683319,36.6189655 159.459155,36.6189655 C160.205352,36.6189655 160.96724,36.3293103 160.96724,35.4724138 C160.96724,33.9948276 156.898026,35.1017241 156.898026,32.5155172 C156.898026,31.1310345 158.311964,30.5086207 159.523663,30.5086207" id="Fill-24"></path>
                    <path d="M164.461115,30.7068966 L164.461115,29.2965517 L165.73209,28.9017241 L165.73209,30.7068966 L167.276788,30.6672414 L167.276788,31.6051724 L165.73209,31.5913793 L165.73209,35.8689655 C165.73209,36.3431034 166.103445,36.5672414 166.554999,36.5672414 C166.757239,36.5672414 167.025731,36.5396552 167.222741,36.487931 L167.222741,37.4517241 C166.929841,37.4637931 166.650889,37.5310345 166.357989,37.5310345 C166.051142,37.5310345 165.810546,37.5172414 165.503698,37.4637931 C165.303202,37.4241379 164.968459,37.3172414 164.754015,37.0293103 C164.529109,36.712069 164.461115,36.6844828 164.461115,35.8034483 L164.461115,31.5913793 L163.313924,31.6051724 L163.313924,30.6672414 L164.461115,30.7068966" id="Fill-25"></path>
                    <path d="M171.108892,30.5086207 C172.374637,30.5086207 173.802523,31.037931 173.710121,32.5431034 L172.374637,32.5431034 C172.428684,31.6982759 171.77489,31.4224138 171.040898,31.4224138 C170.359208,31.4224138 169.813508,31.737931 169.813508,32.4758621 C169.813508,33.2172414 170.962442,33.2689655 171.441891,33.4137931 C172.576878,33.7827586 173.884466,33.9137931 173.884466,35.4051724 C173.884466,37.0293103 172.283978,37.5310345 170.906652,37.5310345 C169.504918,37.5310345 168.333319,36.8965517 168.343779,35.3672414 L169.677519,35.3672414 C169.705414,36.1844828 170.266805,36.6189655 171.040898,36.6189655 C171.785351,36.6189655 172.548982,36.3293103 172.548982,35.4724138 C172.548982,33.9948276 168.479769,35.1017241 168.479769,32.5155172 C168.479769,31.1310345 169.891964,30.5086207 171.108892,30.5086207" id="Fill-26"></path>
                    <path d="M179.487916,32.8327586 C179.419921,32 179.018928,31.4224138 178.112333,31.4224138 C176.897148,31.4224138 176.429904,32.4637931 176.429904,34.0189655 C176.429904,35.5775862 176.897148,36.6189655 178.112333,36.6189655 C178.95442,36.6189655 179.475712,36.0793103 179.540219,35.1293103 L180.809452,35.1293103 C180.701358,36.6189655 179.580319,37.5310345 178.098386,37.5310345 C175.950455,37.5310345 175.096164,36.0275862 175.096164,34.0724138 C175.096164,32.1344828 176.082957,30.5086207 178.204736,30.5086207 C179.620418,30.5086207 180.68741,31.3948276 180.755405,32.8327586 L179.487916,32.8327586" id="Fill-27"></path>
                    <path d="M182.51629,37.3310345 L182.51629,27.8051724 L183.782035,27.8051724 L183.782035,31.5913793 L183.80993,31.5913793 C184.289379,30.8517241 185.011168,30.5086207 185.985756,30.5086207 C187.732694,30.5086207 188.280138,31.6568966 188.280138,32.8465517 L188.280138,37.3310345 L187.014392,37.3310345 L187.014392,33.4137931 C187.014392,32.2517241 186.704058,31.4982759 185.518512,31.4741379 C185.011168,31.4603448 184.238819,31.8431034 183.996479,32.3982759 C183.70358,33.0844828 183.782035,33.5586207 183.782035,33.9275862 L183.782035,37.3310345 L182.51629,37.3310345" id="Fill-28"></path>
                    <polyline id="Fill-29" points="200.10422 30.7068966 197.740101 37.3310345 196.300011 37.3310345 194.736135 31.8827586 194.71347 31.8827586 192.976994 37.3310345 191.495061 37.3310345 189.282622 30.7068966 190.654717 30.7068966 192.270896 36.037931 192.295304 36.037931 193.963787 30.7068966 195.604374 30.7068966 197.114202 35.9344828 197.140354 35.9344828 198.808836 30.7068966 200.10422 30.7068966"></polyline>
                    <path d="M202.198104,34.2568966 C202.105701,35.4189655 202.58515,36.6189655 203.880534,36.6189655 C204.867327,36.6189655 205.360724,36.237931 205.507173,35.2741379 L206.842657,35.2741379 C206.64216,36.7793103 205.467074,37.5310345 203.866586,37.5310345 C201.716912,37.5310345 200.862621,36.0275862 200.862621,34.0724138 C200.862621,32.1344828 201.849414,30.5086207 203.971193,30.5086207 C205.974418,30.55 206.921112,31.8034483 206.921112,33.637931 L206.921112,34.2568966 L202.198104,34.2568966 L202.198104,34.2568966 Z M205.585629,33.3862069 C205.613524,32.2793103 205.10618,31.4224138 203.880534,31.4224138 C202.824003,31.4224138 202.198104,32.3051724 202.198104,33.3862069 L205.585629,33.3862069 L205.585629,33.3862069 Z" id="Fill-30"></path>
                    <path d="M208.443144,29.1655172 L209.951229,29.1655172 L209.951229,27.8051724 L208.443144,27.8051724 L208.443144,29.1655172 Z M208.561699,37.3310345 L209.829188,37.3310345 L209.829188,30.7068966 L208.561699,30.7068966 L208.561699,37.3310345 Z" id="Fill-31"></path>
                    <polyline id="Fill-32" points="216.581572 37.3310345 211.712114 37.3310345 211.712114 36.4603448 215.085691 31.5793103 211.766161 31.5793103 211.766161 30.7068966 216.44907 30.7068966 216.44907 31.5793103 213.087697 36.4603448 216.581572 36.4603448 216.581572 37.3310345"></polyline>
                    <path d="M118.981461,18.337931 C118.981461,17.1896552 118.913467,16.5172414 117.565779,16.5172414 C116.925933,16.5172414 116.326186,16.8862069 116.312238,17.5724138 L114.976755,17.5724138 C115.046493,16.1224138 116.193684,15.6068966 117.513476,15.6068966 C118.887315,15.6068966 120.24895,16.0172414 120.24895,17.8637931 L120.24895,21.0293103 C120.24895,21.3206897 120.262898,21.8741379 120.302997,22.4293103 L119.448706,22.4293103 C119.328408,22.4293103 119.101759,22.4948276 119.087812,22.337931 C119.059917,22.0327586 119.035508,21.7431034 119.023304,21.4396552 L118.995409,21.4396552 C118.580468,22.2706897 117.834271,22.6258621 116.911985,22.6258621 C115.754334,22.6258621 114.579248,22.0327586 114.579248,20.7396552 C114.579248,18.8793103 116.244244,18.337931 117.834271,18.337931 L118.981461,18.337931 L118.981461,18.337931 Z M117.715716,19.2103448 C116.938137,19.25 115.914732,19.5258621 115.914732,20.4896552 C115.914732,21.3068966 116.486583,21.7172414 117.234524,21.7172414 C118.726918,21.7172414 119.009357,20.4362069 118.981461,19.2103448 L117.715716,19.2103448 L117.715716,19.2103448 Z" id="Fill-33"></path>
                    <path d="M126.333593,17.9293103 C126.265598,17.0982759 125.866348,16.5172414 124.95801,16.5172414 C123.746312,16.5172414 123.279067,17.5603448 123.279067,19.1172414 C123.279067,20.6741379 123.746312,21.7172414 124.95801,21.7172414 C125.800097,21.7172414 126.319645,21.1758621 126.38764,20.2241379 L127.655128,20.2241379 C127.548778,21.7172414 126.425996,22.6258621 124.944063,22.6258621 C122.799618,22.6258621 121.943584,21.1241379 121.943584,19.1689655 C121.943584,17.2310345 122.932121,15.6068966 125.0539,15.6068966 C126.466095,15.6068966 127.53483,16.4913793 127.601081,17.9293103 L126.333593,17.9293103" id="Fill-34"></path>
                    <path d="M129.429961,22.4293103 L129.429961,12.9017241 L130.695706,12.9017241 L130.695706,16.6896552 L130.723601,16.6896552 C131.20305,15.95 131.924839,15.6068966 132.899428,15.6068966 C134.646365,15.6068966 135.193809,16.7551724 135.193809,17.9431034 L135.193809,22.4293103 L133.928064,22.4293103 L133.928064,18.5103448 C133.928064,17.3482759 133.621216,16.5965517 132.432183,16.5706897 C131.924839,16.5568966 131.15249,16.9396552 130.910151,17.4948276 C130.617251,18.1793103 130.695706,18.6551724 130.695706,19.0241379 L130.695706,22.4293103 L129.429961,22.4293103" id="Fill-35"></path>
                    <path d="M137.516085,22.4293103 L137.516085,12.9017241 L138.783574,12.9017241 L138.783574,16.6896552 L138.809726,16.6896552 C139.290918,15.95 140.012706,15.6068966 140.985552,15.6068966 C142.732489,15.6068966 143.281676,16.7551724 143.281676,17.9431034 L143.281676,22.4293103 L142.010701,22.4293103 L142.010701,18.5103448 C142.010701,17.3482759 141.705597,16.5965517 140.516564,16.5706897 C140.012706,16.5568966 139.236871,16.9396552 138.998018,17.4948276 C138.705118,18.1793103 138.783574,18.6551724 138.783574,19.0241379 L138.783574,22.4293103 L137.516085,22.4293103" id="Fill-36"></path>
                    <path d="M151.484612,19.1172414 C151.484612,21.1758621 150.353112,22.6258621 148.151134,22.6258621 C145.947412,22.6258621 144.81417,21.1758621 144.81417,19.1172414 C144.81417,17.0586207 145.947412,15.6068966 148.151134,15.6068966 C150.353112,15.6068966 151.484612,17.0586207 151.484612,19.1172414 L151.484612,19.1172414 Z M148.151134,21.7172414 C149.659219,21.7172414 150.152615,20.5293103 150.152615,19.1172414 C150.152615,17.7051724 149.659219,16.5172414 148.151134,16.5172414 C146.643049,16.5172414 146.147909,17.7051724 146.147909,19.1172414 C146.147909,20.5293103 146.643049,21.7172414 148.151134,21.7172414 L148.151134,21.7172414 Z" id="Fill-37"></path>
                    <path d="M157.129905,17.9293103 C157.06191,17.0982759 156.664404,16.5172414 155.754322,16.5172414 C154.542624,16.5172414 154.071892,17.5603448 154.071892,19.1172414 C154.071892,20.6741379 154.542624,21.7172414 155.754322,21.7172414 C156.594666,21.7172414 157.115957,21.1758621 157.182208,20.2241379 L158.45144,20.2241379 C158.341603,21.7172414 157.222308,22.6258621 155.740375,22.6258621 C153.592444,22.6258621 152.74164,21.1241379 152.74164,19.1689655 C152.74164,17.2310345 153.728433,15.6068966 155.850212,15.6068966 C157.262407,15.6068966 158.329399,16.4913793 158.397394,17.9293103 L157.129905,17.9293103" id="Fill-38"></path>
                    <path d="M160.22453,22.4293103 L160.22453,12.9017241 L161.492018,12.9017241 L161.492018,16.6896552 L161.519914,16.6896552 C161.999363,15.95 162.717664,15.6068966 163.692253,15.6068966 C165.442678,15.6068966 165.986634,16.7551724 165.986634,17.9431034 L165.986634,22.4293103 L164.720889,22.4293103 L164.720889,18.5103448 C164.720889,17.3482759 164.414042,16.5965517 163.225008,16.5706897 C162.717664,16.5568966 161.945316,16.9396552 161.706463,17.4948276 C161.410076,18.1793103 161.492018,18.6551724 161.492018,19.0241379 L161.492018,22.4293103 L160.22453,22.4293103" id="Fill-39"></path>
                    <path d="M170.312135,15.6068966 C171.57788,15.6068966 173.009253,16.1344828 172.913364,17.637931 L171.57788,17.637931 C171.631927,16.7948276 170.978133,16.5172414 170.244141,16.5172414 C169.565938,16.5172414 169.016751,16.8344828 169.016751,17.5724138 C169.016751,18.312069 170.165685,18.3637931 170.645134,18.5103448 C171.778377,18.8793103 173.085965,19.0103448 173.085965,20.5034483 C173.085965,22.1258621 171.487221,22.6258621 170.109895,22.6258621 C168.711648,22.6258621 167.536562,21.9931034 167.550509,20.4637931 L168.884249,20.4637931 C168.912144,21.2810345 169.470049,21.7172414 170.244141,21.7172414 C170.992081,21.7172414 171.752225,21.4258621 171.752225,20.5689655 C171.752225,19.0913793 167.683012,20.2 167.683012,17.6137931 C167.683012,16.2275862 169.095207,15.6068966 170.312135,15.6068966" id="Fill-40"></path>
                    <path d="M178.691159,17.9293103 C178.623164,17.0982759 178.225658,16.5172414 177.315576,16.5172414 C176.103878,16.5172414 175.636633,17.5603448 175.636633,19.1172414 C175.636633,20.6741379 176.103878,21.7172414 177.315576,21.7172414 C178.157663,21.7172414 178.678955,21.1758621 178.746949,20.2241379 L180.012695,20.2241379 C179.904601,21.7172414 178.783562,22.6258621 177.301629,22.6258621 C175.153698,22.6258621 174.302894,21.1241379 174.302894,19.1689655 C174.302894,17.2310345 175.289687,15.6068966 177.411466,15.6068966 C178.823661,15.6068966 179.89414,16.4913793 179.958648,17.9293103 L178.691159,17.9293103" id="Fill-41"></path>
                    <path d="M181.787527,22.4293103 L181.787527,12.9017241 L183.053273,12.9017241 L183.053273,16.6896552 L183.081168,16.6896552 C183.560617,15.95 184.282405,15.6068966 185.256994,15.6068966 C187.003932,15.6068966 187.551375,16.7551724 187.551375,17.9431034 L187.551375,22.4293103 L186.28563,22.4293103 L186.28563,18.5103448 C186.28563,17.3482759 185.978783,16.5965517 184.789749,16.5706897 C184.282405,16.5568966 183.510057,16.9396552 183.267717,17.4948276 C182.974817,18.1793103 183.053273,18.6551724 183.053273,19.0241379 L183.053273,22.4293103 L181.787527,22.4293103" id="Fill-42"></path>
                    <path d="M194.103263,15.8051724 L195.370751,15.8051724 L195.370751,22.4293103 L194.131158,22.4293103 L194.131158,21.4517241 L194.103263,21.4517241 C193.595919,22.2844828 192.741628,22.6258621 191.808882,22.6258621 C190.408891,22.6258621 189.60516,21.5724138 189.60516,20.237931 L189.60516,15.8051724 L190.876136,15.8051724 L190.876136,19.7241379 C190.876136,20.8706897 191.14114,21.7172414 192.356325,21.7172414 C192.87413,21.7172414 193.581971,21.4517241 193.852206,20.7655172 C194.089315,20.1465517 194.103263,19.3672414 194.103263,19.2103448 L194.103263,15.8051724" id="Fill-43"></path>
                    <polygon id="Fill-44" points="197.454175 22.4293103 198.721663 22.4293103 198.721663 12.9017241 197.454175 12.9017241"></polygon>
                    <path d="M201.880796,19.3551724 C201.788393,20.5155172 202.269586,21.7172414 203.563226,21.7172414 C204.550019,21.7172414 205.045159,21.3344828 205.191609,20.3706897 L206.525349,20.3706897 C206.324852,21.8741379 205.153253,22.6258621 203.549278,22.6258621 C201.401347,22.6258621 200.550543,21.1241379 200.550543,19.1689655 C200.550543,17.2310345 201.537336,15.6068966 203.659116,15.6068966 C205.65711,15.6465517 206.607291,16.9 206.607291,18.7344828 L206.607291,19.3551724 L201.880796,19.3551724 L201.880796,19.3551724 Z M205.271808,18.4844828 C205.299703,17.3758621 204.792359,16.5172414 203.563226,16.5172414 C202.511925,16.5172414 201.880796,17.4017241 201.880796,18.4844828 L205.271808,18.4844828 L205.271808,18.4844828 Z" id="Fill-45"></path>
                    <polyline id="Fill-46" points="115.907758 27.8051724 115.907758 37.3310345 114.25148 37.3310345 109.383766 29.2431034 109.35587 29.2431034 109.35587 37.3310345 108.170324 37.3310345 108.170324 27.8051724 109.995717 27.8051724 114.690829 35.6827586 114.718725 35.6827586 114.718725 27.8051724 115.907758 27.8051724"></polyline>
                    <path d="M124.447179,34.0189655 C124.447179,36.0793103 123.313936,37.5310345 121.110215,37.5310345 C118.90998,37.5310345 117.776737,36.0793103 117.776737,34.0189655 C117.776737,31.962069 118.90998,30.5086207 121.110215,30.5086207 C123.313936,30.5086207 124.447179,31.962069 124.447179,34.0189655 L124.447179,34.0189655 Z M121.110215,36.6189655 C122.618299,36.6189655 123.111696,35.4327586 123.111696,34.0189655 C123.111696,32.6086207 122.618299,31.4224138 121.110215,31.4224138 C119.60213,31.4224138 119.110477,32.6086207 119.110477,34.0189655 C119.110477,35.4327586 119.60213,36.6189655 121.110215,36.6189655 L121.110215,36.6189655 Z" id="Fill-47"></path>
                    <path d="M127.355255,37.3310345 L126.087766,37.3310345 L126.087766,30.7068966 L127.355255,30.7068966 L127.355255,31.987931 L127.38315,31.987931 C127.569699,31.0775862 128.42399,30.6155172 129.344532,30.6155172 C129.504929,30.6155172 129.637432,30.6293103 129.783882,30.6293103 L129.783882,31.8155172 C129.609536,31.7517241 129.412527,31.7517241 129.238181,31.7517241 C127.634207,31.8034483 127.355255,32.6465517 127.355255,34.0465517 L127.355255,37.3310345" id="Fill-48"></path>
                    <path d="M135.40128,27.8051724 L136.668768,27.8051724 L136.668768,36.1586207 C136.668768,36.5534483 136.708868,36.95 136.736763,37.3310345 L135.443122,37.3310345 L135.40128,36.3431034 L135.40128,36.2775862 L135.375128,36.2775862 C134.921831,37.2 134.039645,37.5310345 133.065056,37.5310345 C131.077522,37.5310345 130.291226,35.7224138 130.291226,34.0189655 C130.291226,32.2258621 131.213511,30.5086207 133.293448,30.5086207 C134.147739,30.5086207 134.989825,30.8137931 135.375128,31.6051724 L135.40128,31.6051724 L135.40128,27.8051724 L135.40128,27.8051724 Z M133.52184,36.6603448 C135.054333,36.6603448 135.415227,35.2465517 135.415227,34.0086207 C135.415227,32.8051724 134.96193,31.3810345 133.52184,31.3810345 C131.999807,31.3810345 131.624965,32.7672414 131.624965,34.0086207 C131.624965,35.2465517 132.09221,36.6603448 133.52184,36.6603448 L133.52184,36.6603448 Z" id="Fill-49"></path>
                    <polyline id="Fill-50" points="148.691604 30.7068966 146.329228 37.3310345 144.889138 37.3310345 143.32875 31.8827586 143.300854 31.8827586 141.564378 37.3310345 140.084188 37.3310345 137.870006 30.7068966 139.245588 30.7068966 140.860023 36.037931 140.887919 36.037931 142.552914 30.7068966 144.193501 30.7068966 145.701586 35.9344828 145.729481 35.9344828 147.397963 30.7068966 148.691604 30.7068966"></polyline>
                    <path d="M150.787231,34.2568966 C150.694829,35.4189655 151.170791,36.6189655 152.467918,36.6189655 C153.452967,36.6189655 153.949851,36.237931 154.096301,35.2741379 L155.428297,35.2741379 C155.229544,36.7793103 154.056201,37.5310345 152.45397,37.5310345 C150.306039,37.5310345 149.451748,36.0275862 149.451748,34.0724138 C149.451748,32.1344828 150.438541,30.5086207 152.560321,30.5086207 C154.561802,30.55 155.508496,31.8034483 155.508496,33.637931 L155.508496,34.2568966 L150.787231,34.2568966 L150.787231,34.2568966 Z M154.174756,33.3862069 C154.200908,32.2793103 153.695307,31.4224138 152.467918,31.4224138 C151.41313,31.4224138 150.787231,32.3051724 150.787231,33.3862069 L154.174756,33.3862069 L154.174756,33.3862069 Z" id="Fill-51"></path>
                    <path d="M159.523663,30.5086207 C160.794638,30.5086207 162.220781,31.037931 162.124891,32.5431034 L160.794638,32.5431034 C160.845198,31.6982759 160.191404,31.4224138 159.459155,31.4224138 C158.777466,31.4224138 158.230022,31.737931 158.230022,32.4758621 C158.230022,33.2172414 159.377213,33.2689655 159.858405,33.4137931 C160.991648,33.7827586 162.299236,33.9137931 162.299236,35.4051724 C162.299236,37.0293103 160.698748,37.5310345 159.326653,37.5310345 C157.923175,37.5310345 156.751576,36.8965517 156.762037,35.3672414 L158.09752,35.3672414 C158.123672,36.1844828 158.683319,36.6189655 159.459155,36.6189655 C160.205352,36.6189655 160.96724,36.3293103 160.96724,35.4724138 C160.96724,33.9948276 156.898026,35.1017241 156.898026,32.5155172 C156.898026,31.1310345 158.311964,30.5086207 159.523663,30.5086207" id="Fill-52"></path>
                    <path d="M164.461115,30.7068966 L164.461115,29.2965517 L165.73209,28.9017241 L165.73209,30.7068966 L167.276788,30.6672414 L167.276788,31.6051724 L165.73209,31.5913793 L165.73209,35.8689655 C165.73209,36.3431034 166.103445,36.5672414 166.554999,36.5672414 C166.757239,36.5672414 167.025731,36.5396552 167.222741,36.487931 L167.222741,37.4517241 C166.929841,37.4637931 166.650889,37.5310345 166.357989,37.5310345 C166.051142,37.5310345 165.810546,37.5172414 165.503698,37.4637931 C165.303202,37.4241379 164.968459,37.3172414 164.754015,37.0293103 C164.529109,36.712069 164.461115,36.6844828 164.461115,35.8034483 L164.461115,31.5913793 L163.313924,31.6051724 L163.313924,30.6672414 L164.461115,30.7068966" id="Fill-53"></path>
                    <path d="M171.108892,30.5086207 C172.374637,30.5086207 173.802523,31.037931 173.710121,32.5431034 L172.374637,32.5431034 C172.428684,31.6982759 171.77489,31.4224138 171.040898,31.4224138 C170.359208,31.4224138 169.813508,31.737931 169.813508,32.4758621 C169.813508,33.2172414 170.962442,33.2689655 171.441891,33.4137931 C172.576878,33.7827586 173.884466,33.9137931 173.884466,35.4051724 C173.884466,37.0293103 172.283978,37.5310345 170.906652,37.5310345 C169.504918,37.5310345 168.333319,36.8965517 168.343779,35.3672414 L169.677519,35.3672414 C169.705414,36.1844828 170.266805,36.6189655 171.040898,36.6189655 C171.785351,36.6189655 172.548982,36.3293103 172.548982,35.4724138 C172.548982,33.9948276 168.479769,35.1017241 168.479769,32.5155172 C168.479769,31.1310345 169.891964,30.5086207 171.108892,30.5086207" id="Fill-54"></path>
                    <path d="M179.487916,32.8327586 C179.419921,32 179.018928,31.4224138 178.112333,31.4224138 C176.897148,31.4224138 176.429904,32.4637931 176.429904,34.0189655 C176.429904,35.5775862 176.897148,36.6189655 178.112333,36.6189655 C178.95442,36.6189655 179.475712,36.0793103 179.540219,35.1293103 L180.809452,35.1293103 C180.701358,36.6189655 179.580319,37.5310345 178.098386,37.5310345 C175.950455,37.5310345 175.096164,36.0275862 175.096164,34.0724138 C175.096164,32.1344828 176.082957,30.5086207 178.204736,30.5086207 C179.620418,30.5086207 180.68741,31.3948276 180.755405,32.8327586 L179.487916,32.8327586" id="Fill-55"></path>
                    <path d="M182.51629,37.3310345 L182.51629,27.8051724 L183.782035,27.8051724 L183.782035,31.5913793 L183.80993,31.5913793 C184.289379,30.8517241 185.011168,30.5086207 185.985756,30.5086207 C187.732694,30.5086207 188.280138,31.6568966 188.280138,32.8465517 L188.280138,37.3310345 L187.014392,37.3310345 L187.014392,33.4137931 C187.014392,32.2517241 186.704058,31.4982759 185.518512,31.4741379 C185.011168,31.4603448 184.238819,31.8431034 183.996479,32.3982759 C183.70358,33.0844828 183.782035,33.5586207 183.782035,33.9275862 L183.782035,37.3310345 L182.51629,37.3310345" id="Fill-56"></path>
                    <polyline id="Fill-57" points="200.10422 30.7068966 197.740101 37.3310345 196.300011 37.3310345 194.736135 31.8827586 194.71347 31.8827586 192.976994 37.3310345 191.495061 37.3310345 189.282622 30.7068966 190.654717 30.7068966 192.270896 36.037931 192.295304 36.037931 193.963787 30.7068966 195.604374 30.7068966 197.114202 35.9344828 197.140354 35.9344828 198.808836 30.7068966 200.10422 30.7068966"></polyline>
                    <path d="M202.198104,34.2568966 C202.105701,35.4189655 202.58515,36.6189655 203.880534,36.6189655 C204.867327,36.6189655 205.360724,36.237931 205.507173,35.2741379 L206.842657,35.2741379 C206.64216,36.7793103 205.467074,37.5310345 203.866586,37.5310345 C201.716912,37.5310345 200.862621,36.0275862 200.862621,34.0724138 C200.862621,32.1344828 201.849414,30.5086207 203.971193,30.5086207 C205.974418,30.55 206.921112,31.8034483 206.921112,33.637931 L206.921112,34.2568966 L202.198104,34.2568966 L202.198104,34.2568966 Z M205.585629,33.3862069 C205.613524,32.2793103 205.10618,31.4224138 203.880534,31.4224138 C202.824003,31.4224138 202.198104,32.3051724 202.198104,33.3862069 L205.585629,33.3862069 L205.585629,33.3862069 Z" id="Fill-58"></path>
                    <path d="M208.443144,29.1655172 L209.951229,29.1655172 L209.951229,27.8051724 L208.443144,27.8051724 L208.443144,29.1655172 Z M208.561699,37.3310345 L209.829188,37.3310345 L209.829188,30.7068966 L208.561699,30.7068966 L208.561699,37.3310345 Z" id="Fill-59"></path>
                    <polyline id="Fill-60" points="216.581572 37.3310345 211.712114 37.3310345 211.712114 36.4603448 215.085691 31.5793103 211.766161 31.5793103 211.766161 30.7068966 216.44907 30.7068966 216.44907 31.5793103 213.087697 36.4603448 216.581572 36.4603448 216.581572 37.3310345"></polyline>
                </g>
            </g>
        </g>
    </g>
</svg>