<?xml version="1.0" encoding="UTF-8" standalone="no"?>
<svg width="35px" height="36px" shape-rendering="geometricPrecision" viewBox="0 0 35 36" version="1.1" xmlns="http://www.w3.org/2000/svg" xmlns:xlink="http://www.w3.org/1999/xlink">
    <!-- Generator: Sketch 3.7.2 (28276) - http://www.bohemiancoding.com/sketch -->
    <title>facebook</title>
    <desc>Created with Sketch.</desc>
    <defs></defs>
    <g id="Page-1" stroke="none" stroke-width="1" fill="none" fill-rule="evenodd">
        <g id="facebook" fill="#000000">
            <g id="Symbols">
                <g id="header_normal_230">
                    <g id="Social">
                        <g id="Group" transform="translate(0.000000, 0.878131)">
                            <g id="Facebook">
                                <path d="M19.0816023,13.7215909 C19.0816023,13.0780682 19.147625,12.7336364 20.1379659,12.7336364 L21.4608068,12.7336364 L21.4608068,10.3393182 L19.3433068,10.3393182 C16.8010341,10.3393182 15.9053523,11.5372727 15.9053523,13.5505682 L15.9053523,15.1056818 L14.3200114,15.1056818 L14.3200114,17.5 L15.9053523,17.5 L15.9053523,24.6606818 L19.077625,24.6606818 L19.077625,17.5 L21.195125,17.5 L21.4767159,15.1056818 L19.077625,15.1056818 L19.0816023,13.7215909 L19.0816023,13.7215909 Z M17.5002386,0 C7.83467045,0 0.000238636364,7.83522727 0.000238636364,17.5 C0.000238636364,27.1647727 7.83467045,35 17.5002386,35 C27.1650114,35 35.0002386,27.1647727 35.0002386,17.5 C35.0002386,7.83522727 27.1650114,0 17.5002386,0 L17.5002386,0 L17.5002386,0 Z" id="Fill-3"></path>
                            </g>
                        </g>
                    </g>
                </g>
            </g>
        </g>
    </g>
</svg>
