<?xml version="1.0" encoding="utf-8"?>
<!-- Generator: Adobe Illustrator 23.0.3, SVG Export Plug-In . SVG Version: 6.00 Build 0)  -->
<svg version="1.1" xmlns="http://www.w3.org/2000/svg" xmlns:xlink="http://www.w3.org/1999/xlink" x="0px" y="0px"
	 viewBox="0 0 35 35" style="enable-background:new 0 0 35 35;" xml:space="preserve" width="35px" height="35px">
<style type="text/css">
	.st0{fill:none;stroke:#000000;stroke-width:2;stroke-miterlimit:10;}
	.st1{display:none;}
	.st2{display:inline;fill-rule:evenodd;clip-rule:evenodd;}
	.st3{fill-rule:evenodd;clip-rule:evenodd;}
	.st4{display:inline;}
</style>
<g id="Circle" shape-rendering="geometricPrecision">
	<title>linkedin</title>
	<circle class="st0" cx="17.5" cy="17.5" r="16.3"/>
</g>
<g id="Xing" class="st1">
	<path id="Fill-1" class="st2" d="M25,10.2l-5.8,10.2c0,0,0,0,0,0l3.7,6.7c0.1,0.1,0.1,0.3,0,0.4c-0.1,0.1-0.2,0.2-0.3,0.2h-2.6
		c-0.4,0-0.6-0.3-0.7-0.5c0,0-3.7-6.8-3.7-6.8c0.2-0.3,5.9-10.2,5.9-10.2c0.1-0.3,0.3-0.5,0.7-0.5h2.7c0.2,0,0.3,0.1,0.4,0.2
		C25.1,9.9,25.1,10.1,25,10.2L25,10.2z M12.6,22.2H9.9c-0.2,0-0.3-0.1-0.3-0.2c-0.1-0.1-0.1-0.3,0-0.4l2.8-4.9c0,0,0,0,0,0l-1.8-3
		c-0.1-0.1-0.1-0.3,0-0.4c0.1-0.1,0.2-0.2,0.4-0.2h2.6c0.4,0,0.6,0.3,0.7,0.5c0,0,1.8,3.1,1.8,3.1c-0.1,0.2-2.8,5-2.8,5
		C13.2,22,13,22.2,12.6,22.2L12.6,22.2z"/>
</g>
<g id="Facebook">
	<path class="st3" d="M19.1,14.6c0-0.6,0.1-1,1.1-1h1.3v-2.4h-2.1c-2.5,0-3.4,1.2-3.4,3.2V16h-1.6v2.4h1.6v7.2h3.2v-7.2h2.1l0.3-2.4
		h-2.4L19.1,14.6z"/>
</g>
<g id="Linkedin_1_" class="st1">
	<rect x="10" y="14.6" class="st4" width="3.3" height="9.9"/>
	<path class="st4" d="M11.7,13.3c1.1,0,1.9-0.8,1.9-1.7c0-1-0.7-1.7-1.8-1.7c-1.1,0-1.9,0.7-1.9,1.7C9.8,12.5,10.6,13.3,11.7,13.3
		L11.7,13.3z"/>
	<path class="st4" d="M25.2,24.5v-5.7c0-3-1.6-4.4-3.8-4.4c-1.7,0-2.5,1-3,1.6v-1.4h-3.3c0,0.9,0,9.9,0,9.9h3.3V19
		c0-0.3,0-0.6,0.1-0.8c0.2-0.6,0.8-1.2,1.7-1.2c1.2,0,1.7,0.9,1.7,2.2v5.3H25.2z"/>
</g>
</svg>
