<?xml version="1.0" encoding="UTF-8" standalone="no"?>
<svg width="35px" height="36px" shape-rendering="geometricPrecision" viewBox="0 0 35 36" version="1.1" xmlns="http://www.w3.org/2000/svg" xmlns:xlink="http://www.w3.org/1999/xlink">
    <!-- Generator: sketchtool 3.7.2 (28276) - http://www.bohemiancoding.com/sketch -->
    <title>334F39BA-3DA4-4545-8141-59F9B878FED8</title>
    <desc>Created with sketchtool.</desc>
    <defs></defs>
    <g id="Symbols" stroke="none" stroke-width="1" fill="none" fill-rule="evenodd">
        <g id="header_normal_230" transform="translate(-121.000000, -990.000000)" fill="#000000">
            <g id="Social">
                <g transform="translate(32.000000, 990.878131)">
                    <g id="Facebook" transform="translate(89.000000, 0.000000)">
                        <path d="M19.0816023,13.7215909 C19.0816023,13.0780682 19.147625,12.7336364 20.1379659,12.7336364 L21.4608068,12.7336364 L21.4608068,10.3393182 L19.3433068,10.3393182 C16.8010341,10.3393182 15.9053523,11.5372727 15.9053523,13.5505682 L15.9053523,15.1056818 L14.3200114,15.1056818 L14.3200114,17.5 L15.9053523,17.5 L15.9053523,24.6606818 L19.077625,24.6606818 L19.077625,17.5 L21.195125,17.5 L21.4767159,15.1056818 L19.077625,15.1056818 L19.0816023,13.7215909 Z M17.5002386,33.4090909 C8.71364773,33.4090909 1.59114773,26.2865909 1.59114773,17.5 C1.59114773,8.71420455 8.71364773,1.59090909 17.5002386,1.59090909 C26.2868295,1.59090909 33.4093295,8.71420455 33.4093295,17.5 C33.4093295,26.2865909 26.2868295,33.4090909 17.5002386,33.4090909 L17.5002386,33.4090909 Z M17.5002386,0 C7.83467045,0 0.000238636364,7.83522727 0.000238636364,17.5 C0.000238636364,27.1647727 7.83467045,35 17.5002386,35 C27.1650114,35 35.0002386,27.1647727 35.0002386,17.5 C35.0002386,7.83522727 27.1650114,0 17.5002386,0 L17.5002386,0 Z" id="Fill-3"></path>
                    </g>
                </g>
            </g>
        </g>
    </g>
</svg>
