<?xml version="1.0" encoding="utf-8"?>
<!-- Generator: Adobe Illustrator 26.0.1, SVG Export Plug-In . SVG Version: 6.00 Build 0)  -->
<svg version="1.1" id="Layer_1" xmlns="http://www.w3.org/2000/svg" xmlns:xlink="http://www.w3.org/1999/xlink" x="0px" y="0px"
	 viewBox="0 0 32 32" style="enable-background:new 0 0 32 32;" xml:space="preserve">
<g>
	<path d="M19.5,8.7h-7.1c-0.3,0-0.5,0-0.8,0.1c-1.7,0.4-2.9,1.9-2.9,3.6c0,1.2,0,2.4,0,3.6c0,1.2,0,2.3,0,3.5c0,0.3,0,0.6,0.1,0.9
		c0.4,1.7,1.9,2.9,3.6,2.9h7.1c0.3,0,0.6,0,0.8-0.1c1.7-0.4,2.9-1.9,2.9-3.6c0-2.4,0-4.8,0-7.2c0-0.3,0-0.5-0.1-0.8
		C22.8,9.8,21.3,8.6,19.5,8.7z M15.9,20.8c-2.7,0-4.9-2.2-4.9-4.9c0,0,0,0,0,0c0-2.7,2.2-4.8,4.9-4.8c0,0,0,0,0,0
		c2.7,0,4.9,2.2,4.9,4.9C20.8,18.7,18.6,20.8,15.9,20.8z M20.8,11.9C20.8,11.9,20.8,11.9,20.8,11.9c-0.4,0-0.7-0.3-0.7-0.7
		c0,0,0,0,0,0c0-0.4,0.3-0.7,0.7-0.7c0,0,0,0,0,0c0.4,0,0.7,0.3,0.7,0.7C21.5,11.6,21.2,11.9,20.8,11.9z"/>
	<path d="M15.9,12.7c-1.8,0-3.2,1.4-3.2,3.2c0,1.8,1.4,3.2,3.2,3.2c1.8,0,3.2-1.4,3.2-3.2c0,0,0,0,0,0
		C19.2,14.2,17.7,12.7,15.9,12.7z"/>
	<path d="M15.9,0.1C7.2,0.1,0.1,7.2,0.1,16c0,8.7,7.1,15.8,15.8,15.8c8.7,0,15.8-7.1,15.8-15.8C31.8,7.2,24.7,0.1,15.9,0.1z
		 M24.8,19.5c0,0.2,0,0.4,0,0.6c-0.3,2.7-2.6,4.8-5.3,4.8h-7.2c-0.3,0-0.5,0-0.8-0.1c-1.9-0.2-3.5-1.5-4.2-3.3
		C7.2,21,7.1,20.6,7,20.2v-8.5c0-0.1,0-0.1,0.1-0.2c0.3-1.9,1.6-3.5,3.3-4.1c0.4-0.1,0.8-0.3,1.3-0.4h8.5c0,0,0.1,0,0.1,0
		c2.6,0.4,4.6,2.6,4.6,5.3V19.5z"/>
</g>
</svg>
