<?xml version="1.0" encoding="utf-8"?>
<!-- Generator: Adobe Illustrator 26.0.1, SVG Export Plug-In . SVG Version: 6.00 Build 0)  -->
<svg version="1.1" id="Layer_1" xmlns="http://www.w3.org/2000/svg" xmlns:xlink="http://www.w3.org/1999/xlink" x="0px" y="0px"
	 viewBox="0 0 32 32" style="enable-background:new 0 0 32 32;" xml:space="preserve">
<style type="text/css">
	.st0{fill:none;stroke:#000000;stroke-width:2;stroke-miterlimit:10;}
</style>
<g id="Circle">
	<circle class="st0" cx="15.9" cy="16" r="14.8"/>
</g>
<path d="M11.7,7.1h8.5c0,0,0.1,0,0.1,0c2.6,0.4,4.6,2.6,4.6,5.3v7.2c0,0.2,0,0.4,0,0.6c-0.3,2.7-2.6,4.8-5.3,4.8h-7.2
	c-0.3,0-0.5,0-0.8-0.1c-1.9-0.2-3.5-1.5-4.2-3.3C7.2,21,7.1,20.6,7,20.2v-8.5c0-0.1,0-0.1,0.1-0.2c0.3-1.9,1.6-3.5,3.3-4.1
	C10.8,7.3,11.3,7.1,11.7,7.1z M8.6,16c0,1.2,0,2.3,0,3.5c0,0.3,0,0.6,0.1,0.9c0.4,1.7,1.9,2.9,3.6,2.9h7.1c0.3,0,0.6,0,0.8-0.1
	c1.7-0.4,2.9-1.9,2.9-3.6c0-2.4,0-4.8,0-7.2c0-0.3,0-0.5-0.1-0.8c-0.3-1.7-1.9-3-3.6-2.9h-7.1c-0.3,0-0.5,0-0.8,0.1
	c-1.7,0.4-2.9,1.9-2.9,3.6C8.6,13.6,8.6,14.8,8.6,16z"/>
<path d="M15.9,11.1c2.7,0,4.9,2.2,4.9,4.9c0,2.7-2.2,4.9-4.9,4.9c-2.7,0-4.9-2.2-4.9-4.9c0,0,0,0,0,0C11.1,13.3,13.3,11.1,15.9,11.1
	C15.9,11.1,15.9,11.1,15.9,11.1z M15.9,12.7c-1.8,0-3.2,1.4-3.2,3.2c0,1.8,1.4,3.2,3.2,3.2c1.8,0,3.2-1.4,3.2-3.2c0,0,0,0,0,0
	C19.2,14.2,17.7,12.7,15.9,12.7z"/>
<path d="M20.8,11.9c-0.4,0-0.7-0.3-0.7-0.7c0,0,0,0,0,0c0-0.4,0.3-0.7,0.7-0.7c0,0,0,0,0,0c0.4,0,0.7,0.3,0.7,0.7
	C21.5,11.6,21.2,11.9,20.8,11.9C20.8,11.9,20.8,11.9,20.8,11.9z"/>
</svg>
