<?xml version="1.0" encoding="UTF-8"?>
<svg width="35px" height="36px" shape-rendering="geometricPrecision" viewBox="0 0 35 36" version="1.1" xmlns="http://www.w3.org/2000/svg" xmlns:xlink="http://www.w3.org/1999/xlink">
    <title>Group</title>
    <defs>
        <path d="M17.5,-2.22044605e-16 C7.83522727,-2.22044605e-16 0,7.83522727 0,17.5 C0,27.1647727 7.83522727,35 17.5,35 C27.1647727,35 35,27.1647727 35,17.5 C35,7.83522727 27.1647727,-2.22044605e-16 17.5,-2.22044605e-16 L17.5,-2.22044605e-16 L17.5,-2.22044605e-16 Z" id="path-1"></path>
    </defs>
    <g id="Page-1" stroke="none" stroke-width="1" fill="none" fill-rule="evenodd">
        <g id="Group">
            <path d="M10.0370703,24.4795359 L13.3196875,24.4795359 L13.3196875,14.6058391 L10.0370703,14.6058391 L10.0370703,24.4795359 Z M11.6783789,13.2568078 C12.8229883,13.2568078 13.5350195,12.4978875 13.5350195,11.5504266 C13.5149219,10.5819109 12.8229883,9.84403437 11.6994336,9.84403437 C10.57875,9.84403437 9.84375,10.5819109 9.84375,11.5504266 C9.84375,12.4978875 10.5557812,13.2568078 11.6573242,13.2568078 L11.6783789,13.2568078 Z M25.15625,24.4795359 L25.15625,18.8177391 C25.15625,15.78395 23.5359961,14.3742375 21.3769336,14.3742375 C19.6341797,14.3742375 18.8551563,15.3293547 18.417793,16.0050187 L18.417793,14.6068016 L15.1361328,14.6068016 C15.1782422,15.5312938 15.1361328,24.4795359 15.1361328,24.4795359 L18.417793,24.4795359 L18.417793,18.9651219 C18.417793,18.6684422 18.4388477,18.3765422 18.5259375,18.1650438 C18.7632812,17.5764641 19.3049609,16.9630125 20.2103125,16.9630125 C21.3989453,16.9630125 21.8736328,17.8702781 21.8736328,19.1967234 L21.8736328,24.4795359 L25.15625,24.4795359 Z" id="linkedin" fill="#000000" fill-rule="nonzero"></path>
            <g id="Fill-1-Clipped"></g>
            <mask id="mask-2" fill="white">
                <use xlink:href="#path-1"></use>
            </mask>
            <g id="path-1"></g>
            <g id="Fill-1" mask="url(#mask-2)" stroke-width="3" stroke="#000000">
                <g id="path-1">
                    <path d="M17.5,-2.22044605e-16 C7.83522727,-2.22044605e-16 0,7.83522727 0,17.5 C0,27.1647727 7.83522727,35 17.5,35 C27.1647727,35 35,27.1647727 35,17.5 C35,7.83522727 27.1647727,-2.22044605e-16 17.5,-2.22044605e-16 L17.5,-2.22044605e-16 L17.5,-2.22044605e-16 Z" id="Shape"></path>
                </g>
            </g>
        </g>
    </g>
</svg>
