<?xml version="1.0" encoding="utf-8"?>
<!-- Generator: Adobe Illustrator 23.0.3, SVG Export Plug-In . SVG Version: 6.00 Build 0)  -->
<svg version="1.1" id="Layer_1" shape-rendering="geometricPrecision"
	 xmlns="http://www.w3.org/2000/svg" xmlns:xlink="http://www.w3.org/1999/xlink" x="0px" y="0px" viewBox="0 0 35 35"
	 style="enable-background:new 0 0 35 35;" xml:space="preserve">
<title>linkedin</title>
<rect x="10.04" y="14.61" width="3.28" height="9.87"/>
<path d="M11.68,13.26c1.14,0,1.86-0.76,1.86-1.71c-0.02-0.97-0.71-1.71-1.84-1.71c-1.12,0-1.86,0.74-1.86,1.71
	c0,0.95,0.71,1.71,1.81,1.71H11.68z"/>
<path d="M25.16,24.48v-5.66c0-3.03-1.62-4.44-3.78-4.44c-1.74,0-2.52,0.96-2.96,1.63v-1.4h-3.28c0.04,0.92,0,9.87,0,9.87h3.28v-5.51
	c0-0.3,0.02-0.59,0.11-0.8c0.24-0.59,0.78-1.2,1.68-1.2c1.19,0,1.66,0.91,1.66,2.23v5.28H25.16z"/>
<circle style="fill:none;stroke:#000000;stroke-width:2;stroke-miterlimit:10;" cx="17.53" cy="17.53" r="16.4"/>
</svg>
