<?xml version="1.0" encoding="utf-8"?>
<svg version="1.1" id="Layer_1" xmlns="http://www.w3.org/2000/svg" xmlns:xlink="http://www.w3.org/1999/xlink" x="0px" y="0px"
	 viewBox="0 0 35 35" style="enable-background:new 0 0 35 35;" xml:space="preserve" width="35px" height="35px">
<style type="text/css">
	.st0{fill:#010101;}
</style>
<path class="st0" d="M17.5,0.2C7.9,0.2,0.2,7.9,0.2,17.5s7.8,17.3,17.3,17.3s17.3-7.8,17.3-17.3S27.1,0.2,17.5,0.2z M13.3,24.5H10
	v-9.9h3.3V24.5z M11.7,13.3c-1.1,0-1.9-0.8-1.8-1.7c0-1,0.8-1.7,1.9-1.7c1.1,0,1.8,0.7,1.8,1.7C13.6,12.5,12.8,13.3,11.7,13.3z
	 M25.2,24.5h-3.3v-5.3c0-1.3-0.5-2.2-1.7-2.2c-0.9,0-1.5,0.6-1.7,1.2c-0.1,0.2-0.1,0.5-0.1,0.8v5.5h-3.3c0,0,0-9,0-9.9h3.3V16
	c0.5-0.6,1.3-1.6,3-1.6c2.2,0,3.8,1.4,3.8,4.4V24.5z"/>
</svg>
