<?xml version="1.0" encoding="utf-8"?>
<svg version="1.1" id="Layer_1" shape-rendering="geometricPrecision"
	 xmlns="http://www.w3.org/2000/svg" xmlns:xlink="http://www.w3.org/1999/xlink" x="0px" y="0px" viewBox="0 0 35 35"
	 style="enable-background:new 0 0 35 35;" xml:space="preserve">
<style type="text/css">
	.st0{fill:none;stroke:#000000;stroke-miterlimit:10;}
</style>
<title>linkedin</title>
<rect x="10" y="14.6" width="3.3" height="9.9"/>
<path d="M11.7,13.3c1.1,0,1.9-0.8,1.9-1.7c0-1-0.7-1.7-1.8-1.7c-1.1,0-1.9,0.7-1.9,1.7C9.8,12.5,10.6,13.3,11.7,13.3L11.7,13.3z"/>
<path d="M25.2,24.5v-5.7c0-3-1.6-4.4-3.8-4.4c-1.7,0-2.5,1-3,1.6v-1.4h-3.3c0,0.9,0,9.9,0,9.9h3.3V19c0-0.3,0-0.6,0.1-0.8
	c0.2-0.6,0.8-1.2,1.7-1.2c1.2,0,1.7,0.9,1.7,2.2v5.3H25.2z"/>
<circle class="st0" cx="17.5" cy="17.5" r="16.9"/>
</svg>
