<?xml version="1.0" encoding="utf-8"?>
<!-- Generator: Adobe Illustrator 23.0.3, SVG Export Plug-In . SVG Version: 6.00 Build 0)  -->
<svg version="1.1" id="Layer_1" xmlns="http://www.w3.org/2000/svg" xmlns:xlink="http://www.w3.org/1999/xlink" x="0px" y="0px"
	 viewBox="0 0 35 35" style="enable-background:new 0 0 35 35;" xml:space="preserve" width="35px" height="35px">
<style type="text/css">
	.st0{fill:#010101;}
</style>
<path class="st0" d="M17.5,0.2C7.9,0.2,0.2,7.9,0.2,17.5s7.8,17.3,17.3,17.3s17.3-7.8,17.3-17.3S27.1,0.2,17.5,0.2z M24.9,15.1
	c0,0.1,0,0.3,0,0.4c0,4.5-3.5,9.7-9.9,9.7c-1.9,0-3.8-0.5-5.3-1.5c0.3,0,0.5,0,0.8,0c1.7,0,3.2-0.5,4.4-1.5c-1.5,0-2.8-1-3.2-2.3
	c0.2,0.1,0.4,0.1,0.6,0.1c0.3,0,0.6,0,1-0.1c-1.6-0.3-2.8-1.7-2.8-3.4c0.5,0.2,1.1,0.4,1.6,0.4c-1-0.6-1.6-1.7-1.6-2.9
	c0-0.6,0.1-1.2,0.4-1.7c1.7,2.1,4.2,3.5,7.1,3.6C18,15.7,18,15.5,18,15.2c0-1.9,1.6-3.4,3.5-3.4c1.1,0,1.9,0.4,2.5,1.1
	c0.8-0.2,1.6-0.4,2.2-0.8c-0.2,0.7-0.8,1.4-1.5,1.8c0.6,0,1.4-0.2,1.8-0.5C26.2,14,25.6,14.5,24.9,15.1z"/>
</svg>
