<?xml version="1.0" encoding="UTF-8" standalone="no"?>
<svg width="35px" height="36px" viewBox="0 0 35 36" version="1.1" xmlns="http://www.w3.org/2000/svg" xmlns:xlink="http://www.w3.org/1999/xlink">
    <!-- Generator: Sketch 3.7.2 (28276) - http://www.bohemiancoding.com/sketch -->
    <title>twitter</title>
    <desc>Created with Sketch.</desc>
    <defs>
        <path d="M17.5,-2.22044605e-16 C7.83522727,-2.22044605e-16 0,7.83522727 0,17.5 C0,27.1647727 7.83522727,35 17.5,35 C27.1647727,35 35,27.1647727 35,17.5 C35,7.83522727 27.1647727,-2.22044605e-16 17.5,-2.22044605e-16 L17.5,-2.22044605e-16 L17.5,-2.22044605e-16 Z" id="path-1"></path>
    </defs>
    <g id="Page-1" stroke="none" stroke-width="1" fill="none" fill-rule="evenodd">
        <g id="twitter">
            <g id="Page-1">
                <g id="twitter">
                    <g id="Symbols">
                        <g id="header_normal_230">
                            <g id="Social">
                                <g id="Group" transform="translate(0.000000, 0.878131)">
                                    <g id="Twitter" transform="translate(0.000000, -0.000000)">
                                        <g id="Fill-1-Clipped" transform="translate(0.000000, -0.000000)">
                                            <mask id="mask-2" fill="white">
                                                <use xlink:href="#path-1"></use>
                                            </mask>
                                            <g id="path-1"></g>
                                            <g id="Fill-1" mask="url(#mask-2)" stroke="#000000" stroke-width="3">
                                                <g transform="translate(0.000000, -0.000000)" id="path-1">
                                                    <path d="M17.5,-2.22044605e-16 C7.83522727,-2.22044605e-16 0,7.83522727 0,17.5 C0,27.1647727 7.83522727,35 17.5,35 C27.1647727,35 35,27.1647727 35,17.5 C35,7.83522727 27.1647727,-2.22044605e-16 17.5,-2.22044605e-16 L17.5,-2.22044605e-16 L17.5,-2.22044605e-16 Z"></path>
                                                </g>
                                            </g>
                                        </g>
                                        <path d="M25.8101136,11.3726136 C25.1793182,11.7409091 24.4809091,12.0081818 23.7379545,12.1521591 C23.1429545,11.5277273 22.2942045,11.1379545 21.3555682,11.1379545 C19.5530682,11.1379545 18.0918182,12.5769318 18.0918182,14.35 C18.0918182,14.6013636 18.1196591,14.8463636 18.1761364,15.0826136 C15.4628409,14.9481818 13.0581818,13.6690909 11.4489773,11.725 C11.1673864,12.2006818 11.0067045,12.7511364 11.0067045,13.3405682 C11.0067045,14.455 11.5818182,15.4381818 12.4584091,16.0148864 C11.9238636,15.9973864 11.4203409,15.8534091 10.9804545,15.6123864 C10.9796591,15.6267045 10.9796591,15.6386364 10.9796591,15.6529545 C10.9796591,17.2096591 12.1052273,18.5086364 13.5982955,18.80375 C13.3238636,18.8761364 13.0367045,18.9151136 12.7384091,18.9151136 C12.5284091,18.9151136 12.3231818,18.8952273 12.1243182,18.8578409 C12.5395455,20.1353409 13.7446591,21.0628409 15.1725,21.0890909 C14.0556818,21.9513636 12.6485227,22.4636364 11.1188636,22.4636364 C10.8547727,22.4636364 10.59625,22.4501136 10.3409091,22.4206818 C11.7854545,23.3306818 13.50125,23.8628409 15.3443182,23.8628409 C21.3484091,23.8628409 24.63125,18.9684091 24.63125,14.7222727 C24.63125,14.5830682 24.6280682,14.4446591 24.6217045,14.3070455 C25.2588636,13.8536364 25.8117045,13.2880682 26.25,12.6445455 C25.6645455,12.8998864 25.0361364,13.0725 24.3759091,13.1496591 C25.0488636,12.7519318 25.5667045,12.1227273 25.8101136,11.3726136" id="Fill-1-path" fill="#000000"></path>
                                    </g>
                                </g>
                            </g>
                        </g>
                    </g>
                </g>
            </g>
        </g>
    </g>
</svg>