<?xml version="1.0" encoding="UTF-8" standalone="no"?>
<svg width="35px" height="36px" shape-rendering="geometricPrecision" viewBox="0 0 35 36" version="1.1" xmlns="http://www.w3.org/2000/svg" xmlns:xlink="http://www.w3.org/1999/xlink">
    <!-- Generator: Sketch 3.7.2 (28276) - http://www.bohemiancoding.com/sketch -->
    <title>Group</title>
    <desc>Created with Sketch.</desc>
    <defs></defs>
    <g id="Page-1" stroke="none" stroke-width="1" fill="none" fill-rule="evenodd">
        <g id="xing" fill="#000000">
            <g id="Symbols">
                <g id="header_normal_230">
                    <g id="Social">
                        <g id="Group" transform="translate(0.000000, 0.878131)">
                            <g id="Xing">
                                <path d="M17.5,0 C7.83522727,0 0,7.83522727 0,17.5 C0,27.1647727 7.83522727,35 17.5,35 C27.1647727,35 35,27.1647727 35,17.5 C35,7.83522727 27.1647727,0 17.5,0 Z M25.0333333,9.31641234 L19.2011364,19.4812175 C19.1977273,19.4864448 19.1977273,19.4931656 19.2011364,19.4983929 L22.9147727,26.1863149 C22.9882576,26.3304383 22.9901515,26.4768019 22.9200758,26.5876948 C22.8530303,26.6944805 22.7291667,26.753474 22.5704545,26.753474 L19.9393939,26.753474 C19.5359848,26.753474 19.3340909,26.4891234 19.2034091,26.25875 C19.2034091,26.25875 15.4700758,19.5077273 15.4606061,19.4901786 C15.6473485,19.1642208 21.3223485,9.24472403 21.3223485,9.24472403 C21.4636364,8.99456169 21.6340909,8.75 22.0276515,8.75 L24.6886364,8.75 C24.8473485,8.75 24.9719697,8.80899351 25.0390152,8.91577922 C25.1083333,9.02667208 25.1064394,9.17303571 25.0337121,9.31641234 L25.0333333,9.31641234 Z M12.5772727,21.3634091 L9.94318182,21.3634091 C9.7844697,21.3634091 9.66590909,21.2932143 9.59886364,21.1864286 C9.52954545,21.0755357 9.52575758,20.9314123 9.59886364,20.7880357 L12.3977273,15.9195779 C12.4007576,15.9143506 12.4007576,15.9106169 12.3977273,15.9046429 L10.6166667,12.8653571 C10.5431818,12.7208604 10.532197,12.5778571 10.6015152,12.4669643 C10.6685606,12.3594318 10.8018939,12.3045455 10.9606061,12.3045455 L13.594697,12.3045455 C13.9988636,12.3045455 14.1969697,12.5610552 14.3280303,12.7914286 C14.3280303,12.7914286 16.1284091,15.8870942 16.1390152,15.9042695 C16.032197,16.0894643 13.2954545,20.8612175 13.2954545,20.8612175 C13.1609848,21.1005519 12.9708333,21.3626623 12.5768939,21.3626623 L12.5772727,21.3634091 Z" id="Combined-Shape"></path>
                            </g>
                        </g>
                    </g>
                </g>
            </g>
        </g>
    </g>
</svg>
