<?xml version="1.0" encoding="utf-8"?>
<svg version="1.1" id="Layer_1" xmlns="http://www.w3.org/2000/svg" xmlns:xlink="http://www.w3.org/1999/xlink" x="0px" y="0px"
	 viewBox="0 0 35 35" style="enable-background:new 0 0 35 35;" xml:space="preserve" width="35px" height="35px">
<style type="text/css">
	.st0{fill:#010101;}
</style>
<path class="st0" d="M17.5,0.2C7.9,0.2,0.2,7.9,0.2,17.5s7.8,17.3,17.3,17.3s17.3-7.8,17.3-17.3S27.1,0.2,17.5,0.2z M12.3,22.5H9.4
	c-0.2,0-0.3-0.1-0.3-0.2C9,22.2,9,22,9.1,21.9l3-5.2l-1.9-3.2c-0.1-0.1-0.1-0.3,0-0.4c0.1-0.1,0.2-0.2,0.4-0.2h2.8
	c0.4,0,0.6,0.3,0.7,0.5l1.9,3.3c-0.1,0.2-3,5.3-3,5.3C12.9,22.3,12.7,22.5,12.3,22.5z M25.5,9.7l-6.2,10.8l3.9,7.1
	c0.1,0.1,0.1,0.3,0,0.4c-0.1,0.1-0.2,0.2-0.3,0.2h-2.8c-0.4,0-0.6-0.3-0.7-0.5l-3.9-7.2c0.2-0.3,6.3-10.8,6.3-10.8
	c0.1-0.3,0.3-0.5,0.7-0.5h2.9c0.2,0,0.3,0.1,0.4,0.2C25.6,9.4,25.6,9.6,25.5,9.7z"/>
</svg>
