<svg id="Layer_1" data-name="Layer 1" xmlns="http://www.w3.org/2000/svg" viewBox="0 0 275.82 384.8">
  <defs>
    <style>.cls-1{fill:#fcfdfd;}.cls-2{fill:#a6d403;}.cls-3{fill:#40bead;}.cls-4{fill:#a5d300;}.cls-5{fill:#016e63;}.cls-6{fill:#067165;}</style>
  </defs>
  <path class="cls-1" d="M92.26,274a1.42,1.42,0,0,0,1.79,0c1,.09,2,.24,3,.24q82.24,0,164.49,0c1.08,0,2.3.45,3-.24l-86.66-86.75c-24,0-48.69,0-73.35,0-3.49,0-7,.25-10.45.38l-1.62-.52v-85L5.22,14.84c-.48.37-.07,1.26-.07,2q0,83.18,0,166.34c0,1.33.17,2.65.26,4-.08,1.32-.24,2.64-.24,4q0,39.42,0,78.83v4.32c2.06,0,3.68,0,5.3,0Z" transform="translate(-2.37 -4.1)"/><path class="cls-1" d="M274.9,91.8a23,23,0,0,0,.25-2.47q0-41,0-82c0-.94.32-2-1.09-3.09-22.89,0-46.19,0-69.49,0-5.49,0-11,.22-16.46.34-1.48-.13-3-.36-4.44-.36q-82.69,0-165.39,0c-1,0-2.35-.63-3,.54L102,91.6H187.9v84.94l87.25,87.3v-3.09q0-82.48,0-165C275.14,94.46,275,93.13,274.9,91.8Z" transform="translate(-2.37 -4.1)"/><path class="cls-1" d="M61,342.63,39.12,284.8H25.51L2.37,346.28a72.25,72.25,0,0,0,13.36-.14c1.25-3.42,2.44-6.67,3.67-10H44.79l3.81,10.14h24c2.44-3,2-7.36,4.65-10.24h24.42c2.59,3.12,2,7.55,4.95,10.53,4.16-.49,8.45.61,12.8-.69l-23-61.1H82.79C75.63,303.76,68.51,322.6,61,342.63Z" transform="translate(-2.37 -4.1)"/><path class="cls-1" d="M230.62,284.59v61.53c10.77,0,21.25.43,31.67-.13,8.39-.46,13.87-5.54,15.4-12.63,1.67-7.71-.77-13.05-8.48-18.14,6.78-4.23,9.32-10.36,7.52-18-1.68-7.08-6.74-11.06-13.71-12C252.3,283.74,241.49,284.73,230.62,284.59Z" transform="translate(-2.37 -4.1)"/><path class="cls-1" d="M162.42,327c-6.39,7.9-15,10.51-22.95,7.05-7.06-3.08-11.15-11.65-10.06-21.09,1.19-10.36,5.71-15.76,14.37-17.18,9.52-1.55,15.33,1.8,20.2,11.89,4.2-.49,8.62.63,13-.63-3.25-18.6-20.37-25.46-34.31-23.53-17.06,2.36-27.39,15.66-26.7,34,.64,16.9,12.65,29.36,29.22,30.31,15,.87,28.68-8.4,30.59-20.85Z" transform="translate(-2.37 -4.1)"/><path class="cls-1" d="M178.35,326.83A18.52,18.52,0,0,0,190,345.44c8.32,3.34,16.65,2.94,24.83-.37a17.56,17.56,0,0,0,11.41-17.13c-.18-7.91-4.13-13.23-11.53-15.74-5.34-1.81-10.88-3-16.28-4.67-3-.91-5.66-2.53-5.55-6.16s2.8-5.46,6-6.37c6.8-1.91,10.94.48,15.25,8.66h11.45c-.93-16.67-18.31-25.6-34.61-18a18.2,18.2,0,0,0-10.87,17.58c.3,7.85,4.16,13,12.32,15.68,5.19,1.73,10.55,2.95,15.79,4.53,2.91.88,5.12,2.66,5,6-.11,3.55-2.56,5.19-5.63,6.12-7.93,2.4-13.72-.42-18-8.73Z" transform="translate(-2.37 -4.1)"/><path class="cls-1" d="M112.45,377.31c1.87,3.63,3.74,7.27,5.6,10.87h7c-2.17-4-4.13-7.57-6.21-11.39a18.14,18.14,0,0,0,2.66-2.21,9.84,9.84,0,0,0,1.88-9.77c-1-3.16-3.17-5.41-6.29-5.65-5.36-.4-10.78-.11-16.11-.11v29.12c2.12.25,3.92.68,6-.6V377.31Z" transform="translate(-2.37 -4.1)"/><path class="cls-1" d="M247.44,388.27c5.08.25,9.74.63,14.35-.16,7.4-1.27,11.78-6.74,11.8-14.46,0-7.45-4.35-13.55-11.19-14.42-4.86-.62-9.85-.12-15-.12Z" transform="translate(-2.37 -4.1)"/><path class="cls-1" d="M157,359v29.16a50.65,50.65,0,0,0,14.45-.09c7.43-1.35,11.8-7.23,11.53-15.1-.25-7.47-5.23-13.32-12.3-13.9C166.31,358.69,161.84,359,157,359Z" transform="translate(-2.37 -4.1)"/><path class="cls-1" d="M129.47,359.06v29.09h20.91a6.48,6.48,0,0,0-.31-5.32H135.83v-6.76h14c.17-2.12.63-3.72-.34-5.3-4.54-.86-9.24.54-13.71-.85-.08-1.86-.58-3.5.64-5.51h14c.52-2.08.79-3.65-.15-5.35Z" transform="translate(-2.37 -4.1)"/><path class="cls-1" d="M242.57,359.25H221.39v28.91h20.92a6.31,6.31,0,0,0-.3-5.39H227.44c-.18-2.45-.6-4.39.4-6.69H241.5a7.54,7.54,0,0,0,.07-5.29c-4.66-.86-9.51.42-14.12-.75V364.4h15.12Z" transform="translate(-2.37 -4.1)"/><path class="cls-1" d="M57.91,369.79c2.3,0,4.24.54,6.06-.4-1.75-7.85-8.1-12.19-15.93-11.11C39.92,359.4,34.79,365.5,35,373.83s5.9,14.32,13.73,15c6.75.6,15-4,15.11-11.2a9.76,9.76,0,0,0-5.94-.08c-2,4.56-5.59,6.54-10.44,5.17-4.56-1.28-5.91-5-5.84-9.35.06-4.09,1.21-7.77,5.65-8.95C52,363.16,55.79,364.66,57.91,369.79Z" transform="translate(-2.37 -4.1)"/><path class="cls-1" d="M96.75,369.7c-1.59-8-7.93-12.51-16-11.42-8.51,1.15-13.5,7.55-12.9,16.54.56,8.26,6.4,13.88,14.56,14,7.92.11,13.38-4.33,14-11.47H90.86c-2.14,4.43-5.55,6.76-10.45,5.43-4.24-1.14-6-4.44-6.09-8.69-.12-4.1.89-7.66,5-9.44,4.26-1.85,7.75-.28,12,5.05Z" transform="translate(-2.37 -4.1)"/><path class="cls-1" d="M23,359H16.36L5.2,388.62c2.68-.5,4.66.33,6.6-.74q.93-2.24,1.88-4.48H25.46l2.09,5c2.34-.09,4.45.56,6.41-.47C30.25,378.14,26.67,368.7,23,359Z" transform="translate(-2.37 -4.1)"/><path class="cls-1" d="M211.25,388V364.63l7.42-.38c.43-1.9.78-3.61-.16-5.12H197c-.29,1.87-.73,3.49.23,5,2.41.92,5-.44,7.81,1.19v22.76A10.46,10.46,0,0,0,211.25,388Z" transform="translate(-2.37 -4.1)"/><path class="cls-1" d="M192.75,387.9V359.29a8.67,8.67,0,0,0-5.58,0V388A8.28,8.28,0,0,0,192.75,387.9Z" transform="translate(-2.37 -4.1)"/><path class="cls-2" d="M187.9,91.6H102L15.23,4.81c.69-1.17,2-.54,3-.54q82.7-.06,165.39,0c1.48,0,3,.23,4.44.36l.12,86.49A.64.64,0,0,0,187.9,91.6Z" transform="translate(-2.37 -4.1)"/><path class="cls-3" d="M5.41,187.17c-.09-1.33-.26-2.65-.26-4q0-83.16,0-166.34c0-.75-.41-1.64.07-2l87.22,87.33c0,27.07,0,56,0,85a.86.86,0,0,1-.31.5l-1-.22c-1.32-.09-2.65-.26-4-.26Q46.29,187.14,5.41,187.17Z" transform="translate(-2.37 -4.1)"/><path class="cls-3" d="M274.9,91.8c.08,1.33.24,2.66.24,4q0,82.48,0,165v3.09l-87.25-87.3v-85a.61.61,0,0,1,.32-.48c1.86,1.06,3.9.62,5.86.62Q234.49,91.82,274.9,91.8Z" transform="translate(-2.37 -4.1)"/><path class="cls-4" d="M94.06,187.65c3.48-.13,7-.37,10.45-.38,24.66,0,49.32,0,73.35,0L264.52,274c-.71.69-1.93.24-3,.24q-82.24,0-164.49,0c-1,0-2-.15-3-.24Z" transform="translate(-2.37 -4.1)"/><path class="cls-5" d="M274.9,91.8q-40.41,0-80.82-.06c-2,0-4,.44-5.86-.62l-.12-86.5c5.49-.12,11-.33,16.46-.34,23.3,0,46.6,0,69.49,0,1.41,1.07,1.09,2.15,1.09,3.09q0,41,0,82A23,23,0,0,1,274.9,91.8Z" transform="translate(-2.37 -4.1)"/><path class="cls-5" d="M5.41,187.17q40.89,0,81.77,0c1.32,0,2.65.17,4,.25l.87.6c.08,2,.22,4,.23,5.95q0,40,0,80.08l-81.8.25c-1.62,0-3.24,0-5.3,0V270q0-39.42,0-78.83C5.17,189.81,5.33,188.49,5.41,187.17Z" transform="translate(-2.37 -4.1)"/><path class="cls-6" d="M61,342.63c7.55-20,14.67-38.87,21.83-57.86H96.36l23,61.1c-4.35,1.3-8.64.2-12.8.69-3-3-2.36-7.41-4.95-10.53H77.23c-2.69,2.88-2.21,7.26-4.65,10.24h-24l-3.81-10.14H19.4c-1.23,3.34-2.42,6.59-3.67,10a72.25,72.25,0,0,1-13.36.14L25.51,284.8H39.12ZM32.08,300.25c-3,8.66-5.66,16.07-8.34,23.72h16.7C37.68,316.15,35.08,308.77,32.08,300.25Zm65.79,23.86c-2.85-8-5.5-15.4-8.47-23.7-3,8.33-5.63,15.87-8.41,23.7Z" transform="translate(-2.37 -4.1)"/><path class="cls-6" d="M230.62,284.59c10.87.14,21.68-.85,32.4.65,7,1,12,4.95,13.71,12,1.8,7.59-.74,13.72-7.52,18,7.71,5.09,10.15,10.43,8.48,18.14-1.53,7.09-7,12.17-15.4,12.63-10.42.56-20.9.13-31.67.13ZM243.1,321c0,5-.55,9.43.38,13.94,5.1,0,9.92,0,14.73,0,4.4,0,6.83-2.24,6.93-6.72s-2.39-7-7.1-7.17S248.44,321,243.1,321Zm.19-11.53c5.18,0,10,.24,14.78-.08,3.68-.25,6.27-2.29,6.33-6.38.07-4.31-2.53-6.49-6.47-6.74-4.78-.3-9.58-.07-14.64-.07Z" transform="translate(-2.37 -4.1)"/><path class="cls-6" d="M162.42,327h13.33c-1.91,12.45-15.61,21.72-30.59,20.85-16.57-.95-28.58-13.41-29.22-30.31-.69-18.37,9.64-31.67,26.7-34,13.94-1.93,31.06,4.93,34.31,23.53-4.35,1.26-8.77.14-13,.63-4.87-10.09-10.68-13.44-20.2-11.89-8.66,1.42-13.18,6.82-14.37,17.18-1.09,9.44,3,18,10.06,21.09C147.42,337.52,156,334.91,162.42,327Z" transform="translate(-2.37 -4.1)"/><path class="cls-6" d="M178.35,326.83h11.31c4.27,8.32,10.06,11.14,18,8.74,3.07-.93,5.52-2.57,5.63-6.12.11-3.36-2.1-5.14-5-6-5.24-1.58-10.6-2.8-15.79-4.53-8.16-2.71-12-7.83-12.32-15.68A18.2,18.2,0,0,1,191,285.63c16.3-7.57,33.68,1.36,34.61,18H214.19c-4.31-8.18-8.45-10.57-15.25-8.66-3.24.91-5.93,2.62-6,6.37s2.55,5.25,5.55,6.16c5.4,1.65,10.94,2.86,16.28,4.67,7.4,2.51,11.35,7.83,11.53,15.74a17.56,17.56,0,0,1-11.41,17.13c-8.18,3.31-16.51,3.71-24.83.37A18.52,18.52,0,0,1,178.35,326.83Z" transform="translate(-2.37 -4.1)"/><path class="cls-6" d="M112.45,377.31H107v10.26c-2,1.28-3.85.85-6,.6V359.05c5.33,0,10.75-.29,16.11.11,3.12.24,5.27,2.49,6.29,5.65a9.84,9.84,0,0,1-1.88,9.77,18.14,18.14,0,0,1-2.66,2.21c2.08,3.82,4,7.42,6.21,11.39h-7C116.19,384.58,114.32,380.94,112.45,377.31Zm-5-5.75c3.29-.25,6.91,1.45,9.68-1.49,1.66-1.77.63-3.64-1.18-5.46-2.78-.16-5.8-.8-8.86.25C106.84,367.14,106.47,369.22,107.42,371.56Z" transform="translate(-2.37 -4.1)"/><path class="cls-6" d="M247.44,388.27V359.11c5.11,0,10.1-.5,15,.12,6.84.87,11.21,7,11.19,14.42,0,7.72-4.4,13.19-11.8,14.46C257.18,388.9,252.52,388.52,247.44,388.27Zm6.35-5.74c4.88.68,9.39.63,12.13-3.92a9.32,9.32,0,0,0-.45-10.81c-3-4-7.27-3.88-11.68-3Z" transform="translate(-2.37 -4.1)"/><path class="cls-6" d="M157,359c4.8,0,9.27-.29,13.68.07,7.07.58,12.05,6.43,12.3,13.9.27,7.87-4.1,13.75-11.53,15.1a50.65,50.65,0,0,1-14.45.09Zm6.27,5.73v18c9.69.46,13.15-2.23,12.95-9.71C176.07,366.25,172.3,363.79,163.31,364.71Z" transform="translate(-2.37 -4.1)"/><path class="cls-6" d="M129.47,359.06h20.72c.94,1.7.67,3.27.15,5.35h-14c-1.22,2-.72,3.65-.64,5.51,4.47,1.39,9.17,0,13.71.85,1,1.58.51,3.18.34,5.3h-14v6.76h14.24a6.48,6.48,0,0,1,.31,5.32H129.47Z" transform="translate(-2.37 -4.1)"/><path class="cls-6" d="M242.57,359.25v5.15H227.45V370c4.61,1.17,9.46-.11,14.12.75a7.54,7.54,0,0,1-.07,5.29H227.84c-1,2.3-.58,4.24-.4,6.69H242a6.31,6.31,0,0,1,.3,5.39H221.39V359.25Z" transform="translate(-2.37 -4.1)"/><path class="cls-6" d="M57.91,369.79c-2.12-5.13-5.91-6.63-10.68-5.36-4.44,1.18-5.59,4.86-5.65,8.95-.07,4.33,1.28,8.07,5.84,9.35,4.85,1.37,8.45-.61,10.44-5.17a9.76,9.76,0,0,1,5.94.08c-.07,7.16-8.36,11.8-15.11,11.2-7.83-.69-13.56-6.76-13.73-15s5-14.43,13.08-15.55c7.83-1.08,14.18,3.26,15.93,11.11C62.15,370.33,60.21,369.79,57.91,369.79Z" transform="translate(-2.37 -4.1)"/><path class="cls-6" d="M96.75,369.7H91.26c-4.2-5.33-7.69-6.9-12-5.05-4.1,1.78-5.11,5.34-5,9.44.12,4.25,1.85,7.55,6.09,8.69,4.9,1.33,8.31-1,10.45-5.43H96.4c-.57,7.14-6,11.58-14,11.47-8.16-.12-14-5.74-14.56-14-.6-9,4.39-15.39,12.9-16.54C88.82,357.19,95.16,361.67,96.75,369.7Z" transform="translate(-2.37 -4.1)"/><path class="cls-6" d="M23,359c3.68,9.68,7.26,19.12,11,28.87-2,1-4.07.38-6.41.47l-2.09-5H13.68q-.94,2.25-1.88,4.48c-1.94,1.07-3.92.24-6.6.74L16.36,359ZM15.4,378.09c3.15-.54,5.54.36,8.1-.81l-4-10.7C18,370.7,16.9,373.9,15.4,378.09Z" transform="translate(-2.37 -4.1)"/>
  <path class="cls-6" d="M211.25,388a10.46,10.46,0,0,1-6.23.12V365.33c-2.77-1.63-5.4-.27-7.81-1.19-1-1.52-.52-3.14-.23-5h21.53c.94,1.51.59,3.22.16,5.12l-7.42.38Z" transform="translate(-2.37 -4.1)"/>
  <path class="cls-2" d="M92.26,274q0-40,0-80.08c0-2-.15-4-.23-5.95l.1-.37a.86.86,0,0,0,.31-.5l1.63.52q0,43.17,0,86.36A1.42,1.42,0,0,1,92.26,274Z" transform="translate(-2.37 -4.1)"/>
  <path class="cls-6" d="M192.75,387.9a8.28,8.28,0,0,1-5.58.06V359.3a8.67,8.67,0,0,1,5.58,0Z" transform="translate(-2.37 -4.1)"/>
  <path class="cls-6" d="M92.12,187.63,92,188l-.87-.6Z" transform="translate(-2.37 -4.1)"/>
  <path class="cls-1" d="M32.08,300.25c3,8.52,5.6,15.9,8.36,23.72H23.74C26.42,316.32,29,308.91,32.08,300.25Z" transform="translate(-2.37 -4.1)"/>
  <path class="cls-1" d="M97.87,324.11H81c2.78-7.83,5.45-15.37,8.41-23.7C92.37,308.71,95,316.13,97.87,324.11Z" transform="translate(-2.37 -4.1)"/>
  <path class="cls-1" d="M243.1,321c5.34,0,10.14-.11,14.94,0s7.2,2.75,7.1,7.17-2.53,6.68-6.93,6.72c-4.81.06-9.63,0-14.73,0C242.55,330.43,243.14,326,243.1,321Z" transform="translate(-2.37 -4.1)"/>
  <path class="cls-1" d="M243.29,309.47V296.2c5.06,0,9.86-.23,14.64.07,3.94.25,6.54,2.43,6.47,6.74-.06,4.09-2.65,6.13-6.33,6.38C253.29,309.71,248.47,309.47,243.29,309.47Z" transform="translate(-2.37 -4.1)"/>
  <path class="cls-1" d="M107.42,371.56c-1-2.34-.58-4.42-.36-6.7,3.06-1.05,6.08-.41,8.86-.25,1.81,1.82,2.84,3.69,1.18,5.46C114.33,373,110.71,371.31,107.42,371.56Z" transform="translate(-2.37 -4.1)"/>
  <path class="cls-1" d="M253.79,382.53V364.82c4.41-.9,8.68-1.05,11.68,3a9.32,9.32,0,0,1,.45,10.81C263.18,383.16,258.67,383.21,253.79,382.53Z" transform="translate(-2.37 -4.1)"/>
  <path class="cls-1" d="M163.31,364.71c9-.92,12.76,1.54,12.95,8.24.2,7.48-3.26,10.17-12.95,9.71Z" transform="translate(-2.37 -4.1)"/>
  <path class="cls-1" d="M15.4,378.09c1.5-4.19,2.63-7.39,4.1-11.51l4,10.7C20.94,378.45,18.55,377.55,15.4,378.09Z" transform="translate(-2.37 -4.1)"/>
</svg>