        <svg width="25" height="24" viewBox="0 0 25 24" fill="none" xmlns="http://www.w3.org/2000/svg">
        <path d="M5.5 18.75V21C5.5 21.5523 5.94772 22 6.5 22H21.5C22.0523 22 22.5 21.5523 22.5 21V3C22.5 2.44772 22.0523 2 21.5 2H6.5C5.94772 2 5.5 2.44772 5.5 3V5.25" stroke="black" stroke-width="1.5"/>
        <path d="M14 12.2002C11.5147 12.2002 9.5 14.2149 9.5 16.7002H18.5C18.5 14.2149 16.4853 12.2002 14 12.2002Z" stroke="black" stroke-width="1.5"/>
        <circle cx="14" cy="9.2002" r="2.25" stroke="black" stroke-width="1.5"/>
        <path d="M5.5 8.25049V11.2505H2.5" stroke="black" stroke-width="1.5"/>
        <path d="M5.5 13.501V16.501H2.5" stroke="black" stroke-width="1.5"/>
        <path d="M5.5 4V6H2.5" stroke="black" stroke-width="1.5"/>
        </svg>