<?xml version="1.0" encoding="UTF-8" standalone="no"?>
<svg width="22px" height="22px" viewBox="0 0 22 22" version="1.1" xmlns="http://www.w3.org/2000/svg" xmlns:xlink="http://www.w3.org/1999/xlink">
    <!-- Generator: sketchtool 39.1 (31720) - http://www.bohemiancoding.com/sketch -->
    <title>A474D2F4-2CC8-4098-AD31-DFB50FAD9C59</title>
    <desc>Created with sketchtool.</desc>
    <defs></defs>
    <g id="Desktop" stroke="none" stroke-width="1" fill="none" fill-rule="evenodd">
        <g id="Suche_Resultate@2x" transform="translate(-38.000000, -496.000000)" fill="#000000">
            <g id="content" transform="translate(1.000000, 0.000000)">
                <g id="Event" transform="translate(33.000000, 492.000000)">
                    <path d="M25,11 L5,11 L5,8.0005 C5,7.448 5.448,7 6,7 L8,7 L8,8.5 C8,8.7765 8.224,9 8.5,9 C8.7765,9 9,8.7765 9,8.5 L9,7 L21,7 L21,8.5 C21,8.7765 21.224,9 21.5,9 C21.7765,9 22,8.7765 22,8.5 L22,7 L24,7 C24.5525,7 25,7.448 25,8.0005 L25,11 Z M25,24 C25,24.5525 24.5525,25 24,25 L6,25 C5.448,25 5,24.5525 5,24 L5,12 L25,12 L25,24 Z M22,6 L22,4.5 C22,4.224 21.7765,4 21.5,4 C21.224,4 21,4.224 21,4.5 L21,6 L9,6 L9,4.5 C9,4.224 8.7765,4 8.5,4 C8.224,4 8,4.224 8,4.5 L8,6 L6,6 C4.8955,6 4,6.8955 4,8.0005 L4,24 C4,25.1045 4.8955,26 6,26 L24,26 C25.1045,26 26,25.1045 26,24 L26,8.0005 C26,6.8955 25.1045,6 24,6 L22,6 Z" id="Fill-1"></path>
                </g>
            </g>
        </g>
    </g>
</svg>