<?xml version="1.0" encoding="UTF-8" standalone="no"?>
<svg width="38px" height="26px" viewBox="0 0 38 26" version="1.1" xmlns="http://www.w3.org/2000/svg" xmlns:xlink="http://www.w3.org/1999/xlink">
    <!-- Generator: sketchtool 42 (36781) - http://www.bohemiancoding.com/sketch -->
    <title>CC538FAB-A75E-407B-B9FE-749A18A3ED8B</title>
    <desc>Created with sketchtool.</desc>
    <defs>
        <polygon id="path-1" points="18.4439631 12.2555099 18.4439631 0.035775382 0.056627507 0.035775382 0.056627507 12.2555099 18.4439631 12.2555099"></polygon>
        <polygon id="path-3" points="0 25.9556207 37.9540302 25.9556207 37.9540302 0 0 0"></polygon>
    </defs>
    <g id="Symbols" stroke="none" stroke-width="1" fill="#FFFFFF" fill-rule="evenodd">
        <g id="primary_black_360" transform="translate(-32.000000, -16.000000)">
            <g id="Page-1" transform="translate(32.000000, 16.000000)">
                <g id="Group-3" transform="translate(19.510067, 10.586163)">
                    <mask id="mask-2" fill="white">
                        <use xlink:href="#path-1"></use>
                    </mask>
                    <g id="Clip-2"></g>
                    <path d="M11.4463715,0.0666330049 C11.0264587,-0.0540812808 10.5887574,0.190100985 10.4687641,0.611864532 C10.3486433,1.03356404 10.5916903,1.47325862 11.0115393,1.59378079 C14.6205829,2.63057882 16.8625829,4.13428818 16.8625829,5.51811576 C16.8625829,6.53089901 15.6361903,7.64255911 13.4979889,8.56799261 C11.1454319,9.58621921 7.80812651,10.3311897 4.09706946,10.6666921 L0.858143289,10.622569 C0.854381544,10.622569 0.850747315,10.6225049 0.847176846,10.6225049 C0.415405034,10.6225049 0.0625661074,10.9711355 0.0567003356,11.4060271 C0.0508345638,11.844569 0.400039262,12.2049187 0.836656711,12.2108103 L4.11638826,12.2554458 C4.12008624,12.2554458 4.12359295,12.2555099 4.12716342,12.2555099 C4.15062651,12.2555099 4.17402584,12.2545493 4.19742517,12.2525 C8.0873245,11.9041256 11.6125896,11.1136232 14.1237775,10.0268103 C17.6945023,8.48121921 18.4439822,6.72186453 18.4439822,5.51811576 C18.4439822,3.29889409 15.9588077,1.36285468 11.4463715,0.0666330049" id="Fill-1" fill="#FFFFFF" mask="url(#mask-2)"></path>
                </g>
                <path d="M8.81512651,9.6723202 C8.40254597,9.6723202 8.06794195,10.008335 8.06794195,10.422798 C8.06794195,10.8373251 8.40254597,11.1732759 8.81512651,11.1732759 L11.8877708,11.1732759 L11.8877708,14.2754089 L8.81512651,14.2754089 C8.40254597,14.2754089 8.06794195,14.6114236 8.06794195,15.0258867 C8.06794195,15.4404778 8.40254597,15.7764926 8.81512651,15.7764926 L12.6350829,15.7764926 C13.0477272,15.7764926 13.3822674,15.4404778 13.3822674,15.0258867 L13.3822674,5.81964532 C13.3822674,5.40511823 13.0477272,5.06916749 12.6350829,5.06916749 L8.81512651,5.06916749 C8.40254597,5.06916749 8.06794195,5.40511823 8.06794195,5.81964532 C8.06794195,6.23417241 8.40254597,6.57018719 8.81512651,6.57018719 L11.8877708,6.57018719 L11.8877708,9.6723202 L8.81512651,9.6723202 Z" id="Fill-4" fill="#FFFFFF"></path>
                <mask id="mask-4" fill="white">
                    <use xlink:href="#path-3"></use>
                </mask>
                <g id="Clip-7"></g>
                <path d="M16.436849,14.2754089 L19.5254329,14.2754089 L19.5254329,11.1732759 L16.436849,11.1732759 L16.436849,14.2754089 Z M15.6896644,15.7765567 L20.2726812,15.7765567 C20.6852617,15.7765567 21.0199295,15.4406059 21.0199295,15.0260148 L21.0199295,10.4228621 C21.0199295,10.008399 20.6853893,9.6723202 20.2726812,9.6723202 L16.436849,9.6723202 L16.436849,6.57018719 L19.5094933,6.57018719 C19.9222013,6.57018719 20.2566779,6.23417241 20.2566779,5.81964532 C20.2566779,5.40511823 19.9222013,5.06916749 19.5094933,5.06916749 L15.6896644,5.06916749 C15.2768926,5.06916749 14.9424161,5.40511823 14.9424161,5.81964532 L14.9424161,15.0260148 C14.9424161,15.4406059 15.2768926,15.7765567 15.6896644,15.7765567 L15.6896644,15.7765567 Z" id="Fill-6" fill="#FFFFFF" mask="url(#mask-4)"></path>
                <path d="M24.0766342,6.5701936 L27.1652181,6.5701936 L27.1652181,14.2754793 L24.076698,14.2754793 L24.076698,6.5701936 L24.0766342,6.5701936 Z M23.3293859,15.7765631 L27.9124027,15.7765631 C28.325047,15.7765631 28.659651,15.4406123 28.659651,15.0260212 L28.659651,5.81965172 C28.659651,5.40512463 28.325047,5.06917389 27.9124027,5.06917389 L23.3293859,5.06917389 C22.9168691,5.06917389 22.5822013,5.40512463 22.5822013,5.81965172 L22.5822013,15.0260212 C22.5822013,15.4406123 22.9168691,15.7765631 23.3293859,15.7765631 L23.3293859,15.7765631 Z" id="Fill-8" fill="#FFFFFF" mask="url(#mask-4)"></path>
                <path d="M14.4587067,18.1827094 C14.1766396,17.8478473 13.6776664,17.8060296 13.3442738,18.0893399 C13.0108812,18.3726502 12.9693107,18.8736946 13.2513141,19.2086207 L15.0197805,21.3084729 C11.2879383,21.022601 7.90804228,20.3356502 5.42286779,19.3507241 C2.98155906,18.3830887 1.58136107,17.1998966 1.58136107,16.1043103 C1.58136107,14.8321675 3.45821678,13.4612118 6.60182416,12.4370296 C7.01727383,12.3017143 7.24476376,11.8537586 7.11004228,11.4364778 C6.97538456,11.0193251 6.52926711,10.7908325 6.11400872,10.9260837 C4.28516309,11.5219064 2.83491477,12.2306946 1.80343154,13.0327241 C0.606750336,13.9635369 2.55033556e-05,14.9968768 2.55033556e-05,16.1043103 C2.55033556e-05,17.9392315 1.67451208,19.5726207 4.84247517,20.8282414 C7.41735772,21.8486453 10.8698107,22.5650542 14.6650926,22.8739163 L13.0881564,24.6293645 C12.7955691,24.9550049 12.8212,25.457266 13.1454752,25.7510148 C13.2966463,25.8880591 13.4860725,25.9556207 13.6749248,25.9556207 C13.8908745,25.9556207 14.1061228,25.8671823 14.2622034,25.6934433 L17.1393644,22.4908325 C17.2704517,22.3449507 17.3430087,22.15533 17.3430087,21.9587931 L17.3430087,21.8981478 C17.3430087,21.7103202 17.2767638,21.5285764 17.1560691,21.3852562 L14.4587067,18.1827094 Z" id="Fill-9" fill="#FFFFFF" mask="url(#mask-4)"></path>
                <path d="M30.9494698,3.24782266 L32.6004295,3.24782266 L32.6004295,1.5884335 L30.9494698,1.5884335 L30.9494698,3.24782266 Z M30.158802,4.83619212 L33.3911611,4.83619212 C33.8277785,4.83619212 34.1818289,4.48064532 34.1818289,4.04197537 L34.1818289,0.794216749 C34.1818289,0.355610837 33.8277785,0 33.3911611,0 L30.158802,0 C29.7221208,0 29.3680705,0.355610837 29.3680705,0.794216749 L29.3680705,4.04203941 C29.3680705,4.48064532 29.7221208,4.83619212 30.158802,4.83619212 L30.158802,4.83619212 Z" id="Fill-10" fill="#FFFFFF" mask="url(#mask-4)"></path>
            </g>
        </g>
    </g>
</svg>
