<?xml version="1.0" encoding="UTF-8" standalone="no"?>
<svg width="32px" height="32px" viewBox="0 0 32 32" version="1.1" xmlns="http://www.w3.org/2000/svg" xmlns:xlink="http://www.w3.org/1999/xlink">
    <!-- Generator: sketchtool 41.2 (35397) - http://www.bohemiancoding.com/sketch -->
    <title>69552CD3-5820-45EB-9304-CB461F059FB3</title>
    <desc>Created with sketchtool.</desc>
    <defs></defs>
    <g id="Desktop_2nd-Round" stroke="none" stroke-width="1" fill="none" fill-rule="evenodd">
        <g id="1680_ST_Hochschule_A@2x" transform="translate(-330.000000, -3058.000000)" fill="#767573">
            <path d="M347.490455,3070.13068 C347.490455,3069.48716 347.556477,3069.14273 348.546818,3069.14273 L349.869659,3069.14273 L349.869659,3066.74841 L347.752159,3066.74841 C345.209886,3066.74841 344.314205,3067.94636 344.314205,3069.95966 L344.314205,3071.51477 L342.728864,3071.51477 L342.728864,3073.90909 L344.314205,3073.90909 L344.314205,3081.06977 L347.486477,3081.06977 L347.486477,3073.90909 L349.603977,3073.90909 L349.885568,3071.51477 L347.486477,3071.51477 L347.490455,3070.13068 Z M345.909091,3089.81818 C337.1225,3089.81818 330,3082.69568 330,3073.90909 C330,3065.1233 337.1225,3058 345.909091,3058 C354.695682,3058 361.818182,3065.1233 361.818182,3073.90909 C361.818182,3082.69568 354.695682,3089.81818 345.909091,3089.81818 L345.909091,3089.81818 Z" id="Facebook"></path>
        </g>
    </g>
</svg>