<?xml version="1.0" encoding="UTF-8" standalone="no"?>
<svg width="37px" height="22px" viewBox="0 0 37 22" version="1.1" xmlns="http://www.w3.org/2000/svg" xmlns:xlink="http://www.w3.org/1999/xlink">
    <!-- Generator: sketchtool 3.8.3 (29802) - http://www.bohemiancoding.com/sketch -->
    <title>D6D90FC2-FE84-49EA-8F7D-6AAF5B4D844D</title>
    <desc>Created with sketchtool.</desc>
    <defs>
        <rect id="path-1" x="0" y="0" width="45" height="28"></rect>
    </defs>
    <g id="Symbols" stroke="none" stroke-width="1" fill="none" fill-rule="evenodd">
        <g id="footer_230" transform="translate(-328.000000, -404.000000)">
            <g id="FHNW_10mm_mobile_Wortmarke">
                <g transform="translate(324.000000, 401.000000)">
                    <mask id="mask-2" fill="white">
                        <use xlink:href="#path-1"></use>
                    </mask>
                    <use id="Mask" fill="#D8D8D8" opacity="0" xlink:href="#path-1"></use>
                    <g id="FHNW_10mm" mask="url(#mask-2)" fill="#1A1918">
                        <g transform="translate(4.444444, 2.857143)">
                            <polygon id="Fill-1" points="15.1353637 22.0859113 15.8584092 22.0859113 15.8584092 0.302009852 15.1353637 0.302009852"></polygon>
                            <path d="M4.26955529,7.54333005 C4.61244284,7.04535961 5.39810258,5.48612808 7.69544919,5.48612808 C9.31447477,5.48612808 10.1754207,6.15085714 10.5175628,6.48360591 C11.5052281,7.48108374 11.5656061,8.91505419 11.5656061,9.72502463 L11.5656061,16.6374384 L7.41293967,16.6374384 L7.41293967,10.5618916 C7.41293967,10.438936 7.39430447,9.01879803 6.00262825,9.01879803 C4.53044799,9.01879803 4.49168679,10.4128079 4.49168679,10.7855172 L4.49168679,16.6374384 L0.339020353,16.6374384 L0.339020353,5.75586207 L4.26955529,5.75586207 L4.26955529,7.54333005" id="Fill-2"></path>
                            <path d="M34.2841428,5.50610837 C33.5059371,5.50610837 32.8753222,6.15700493 32.8753222,6.95852217 C32.8753222,7.76080788 33.5059371,8.41093596 34.2841428,8.41093596 C34.9974979,8.41093596 35.3135508,7.88068966 35.3224957,7.90758621 C35.7257613,9.17633498 33.5864411,15.7567685 30.6622066,15.7567685 C29.7155388,15.7567685 29.4225936,14.9675468 29.4225936,13.9454778 C29.4225936,12.73667 29.7610087,11.5048079 30.1896181,9.83184236 C30.6405898,8.18193103 31.0460916,6.60195074 31.2719501,5.75586207 L28.4550543,5.75586207 C28.070424,7.18291626 25.3139062,15.5477438 22.9763076,15.5477438 C22.6841077,15.5477438 22.3680549,15.2226798 22.3680549,14.6417143 C22.3680549,14.3174187 22.6378925,13.1777734 22.7743021,12.7589557 L23.6971168,9.50677833 C23.8998677,8.83205911 24.192813,7.95062069 24.192813,7.29972414 C24.192813,6.16084729 23.4272792,5.50995074 22.5260813,5.50995074 C19.9790231,5.50995074 18.9197987,7.856867 18.4002495,8.80900493 L18.8296044,9.08872906 C19.0770798,8.6706798 20.2041362,6.69570443 20.9704154,6.69570443 C21.0829719,6.69570443 21.1739117,6.83479803 21.1739117,7.25284729 C21.1739117,7.53180296 21.0158852,8.15887685 20.8578588,8.73984236 L19.8888288,12.0388966 C19.7308023,12.6436847 19.3469173,13.8056158 19.3469173,14.6417143 C19.3469173,16.1755862 20.4747192,16.9425222 21.4661115,16.9425222 C25.0805936,16.9425222 26.6504222,12.4338916 27.1684806,11.1336355 L27.2139505,11.1797438 C27.1461184,11.4356453 26.8300655,12.8058325 26.8300655,13.5036059 C26.8300655,15.5016355 27.6962293,16.9425222 29.5888195,16.9425222 C35.0772566,16.9425222 38.0715594,5.50610837 34.2841428,5.50610837" id="Fill-3"></path>
                        </g>
                    </g>
                </g>
            </g>
        </g>
    </g>
</svg>