<?xml version="1.0" encoding="UTF-8" standalone="no"?>
<svg width="32px" height="32px" viewBox="0 0 32 32" version="1.1" xmlns="http://www.w3.org/2000/svg" xmlns:xlink="http://www.w3.org/1999/xlink">
    <!-- Generator: sketchtool 42 (36781) - http://www.bohemiancoding.com/sketch -->
    <title>3435A61F-8A26-4C6F-9796-8470B0494CE4</title>
    <desc>Created with sketchtool.</desc>
    <defs></defs>
    <g id="Desktop_2nd-Round" stroke="none" stroke-width="1" fill="none" fill-rule="evenodd">
        <g id="1680_ST_Hochschule_A@2x" transform="translate(-330.000000, -3900.000000)" fill="#767573">
            <path d="M345.909091,3931.81818 C337.1225,3931.81818 330,3924.69568 330,3915.90909 C330,3907.1233 337.1225,3900 345.909091,3900 C354.695682,3900 361.818182,3907.1233 361.818182,3915.90909 C361.818182,3924.69568 354.695682,3931.81818 345.909091,3931.81818 L345.909091,3931.81818 Z M352.344477,3914.27608 L352.344477,3911.46029 L350.566672,3911.46029 L350.566672,3914.27608 L347.759612,3914.27608 L347.759612,3916.05942 L350.566672,3916.05942 L350.566672,3918.8752 L352.344477,3918.8752 L352.344477,3916.05942 L355.151537,3916.05942 L355.151537,3914.27608 L352.344477,3914.27608 Z M345.094402,3911.03248 C345.516584,3912.52166 344.879007,3914.07898 343.863413,3914.366 C343.746826,3914.39885 343.625748,3914.41575 343.503735,3914.41575 C342.573101,3914.41575 341.650888,3913.47133 341.309549,3912.17062 C341.118856,3911.43983 341.134202,3910.80102 341.353152,3910.18681 C341.56836,3909.58254 341.954612,3909.17444 342.441169,3909.03721 C342.55813,3909.00399 342.679582,3908.98709 342.801221,3908.98709 C343.924794,3908.98709 344.646957,3909.45433 345.094402,3911.03248 L345.094402,3911.03248 Z M346.217975,3920.39517 C346.300128,3921.7154 345.174497,3922.68928 343.484272,3922.8128 C341.767474,3922.93858 340.354213,3922.1633 340.271873,3920.84476 C340.232012,3920.21139 340.509911,3919.59023 341.053358,3919.09596 C341.604852,3918.59494 342.361823,3918.28595 343.185414,3918.22513 C343.282538,3918.21894 343.379101,3918.215 343.475103,3918.215 C345.064086,3918.215 346.140125,3919.1519 346.217975,3920.39517 L346.217975,3920.39517 Z M339.271998,3911.93579 C339.271998,3913.33767 339.738718,3914.34986 340.65906,3914.94455 C341.412288,3915.43131 342.287342,3915.50414 342.741711,3915.50414 C342.851935,3915.50414 342.940451,3915.50001 343.002207,3915.49588 C343.002207,3915.49588 342.857924,3916.43748 343.554075,3917.36951 L343.522635,3917.36932 C342.316535,3917.36932 338.382347,3917.62199 338.382347,3920.86616 C338.382347,3924.1672 341.995595,3924.33483 342.720378,3924.33483 C342.77708,3924.33483 342.810391,3924.33371 342.810391,3924.33371 C342.818438,3924.33389 342.870275,3924.33596 342.958416,3924.33596 C343.42364,3924.33596 344.626184,3924.2772 345.742833,3923.73282 C347.191276,3923.02737 347.926351,3921.80062 347.926351,3920.08637 C347.926351,3918.42975 346.806709,3917.44385 345.98948,3916.72319 C345.490572,3916.2843 345.059594,3915.90511 345.059594,3915.53643 C345.059594,3915.1608 345.374359,3914.87847 345.772401,3914.52087 C346.417089,3913.94251 347.024537,3913.11936 347.024537,3911.56335 C347.024537,3910.19544 346.847692,3909.27731 345.758552,3908.69481 C345.872145,3908.63643 346.273554,3908.59382 346.472294,3908.56641 C347.062525,3908.48551 347.926351,3908.39371 347.926351,3907.91015 L347.926351,3907.81666 L343.623128,3907.81666 C343.580087,3907.81779 339.271998,3907.97791 339.271998,3911.93579 L339.271998,3911.93579 Z" id="google+"></path>
        </g>
    </g>
</svg>