<svg xmlns="http://www.w3.org/2000/svg" width="32" height="32" viewBox="0 0 32 32">
    <path fill="#767573" fill-rule="evenodd" d="M15.91 31.818C7.122 31.818 0 24.696 0 15.91 0 7.123 7.123 0 15.91 0c8.786 0 15.908 7.123 15.908 15.91 0 8.786-7.122 15.908-15.909 15.908zm6.434-17.542V11.46h-1.777v2.816H17.76v1.783h2.807v2.816h1.777V16.06h2.808v-1.783h-2.808zm-7.25-3.244c.423 1.49-.215 3.047-1.23 3.334-.117.033-.238.05-.36.05-.93 0-1.853-.945-2.194-2.245-.191-.731-.176-1.37.043-1.984.215-.604.602-1.013 1.088-1.15a1.32 1.32 0 0 1 .36-.05c1.124 0 1.846.467 2.293 2.045zm1.124 9.363c.082 1.32-1.044 2.294-2.734 2.418-1.717.126-3.13-.65-3.212-1.968-.04-.634.238-1.255.781-1.749.552-.501 1.309-.81 2.132-.87.098-.007.194-.011.29-.011 1.59 0 2.665.937 2.743 2.18zm-6.946-8.46c0 1.403.467 2.415 1.387 3.01.753.486 1.628.56 2.083.56.11 0 .198-.005.26-.01 0 0-.144.942.552 1.875h-.031c-1.206 0-5.14.252-5.14 3.496 0 3.301 3.613 3.469 4.337 3.469l.09-.001c.008 0 .06.002.148.002.466 0 1.668-.059 2.785-.603 1.448-.706 2.183-1.932 2.183-3.647 0-1.656-1.12-2.642-1.937-3.363-.498-.439-.93-.818-.93-1.187 0-.375.315-.658.713-1.015.645-.578 1.253-1.402 1.253-2.958 0-1.368-.177-2.286-1.266-2.868.113-.059.515-.101.713-.129.59-.08 1.454-.172 1.454-.656v-.093h-4.303c-.043 0-4.351.16-4.351 4.119z"/>
</svg>
