        <svg width="25" height="24" viewBox="0 0 25 24" fill="none" xmlns="http://www.w3.org/2000/svg">
        <g clip-path="url(#clip0)">
        <path fill-rule="evenodd" clip-rule="evenodd" d="M12.5001 0.75C7.82462 0.75 4.03516 3.46019 4.03516 8.18535C4.03516 14.8767 12.5012 23.056 12.5012 23.056C12.5012 23.056 20.965 14.8767 20.965 8.18535C20.965 3.47398 17.1755 0.75 12.5001 0.75Z" stroke="#202020" stroke-width="1.5"/>
        <path fill-rule="evenodd" clip-rule="evenodd" d="M14.5611 13.9148L14.4098 14.5339C13.9558 14.7127 13.5935 14.8492 13.323 14.9432C13.0524 15.0372 12.7383 15.0842 12.3806 15.0842C11.8303 15.0842 11.4026 14.95 11.0977 14.6818C10.7927 14.4135 10.6402 14.073 10.6402 13.6603C10.6402 13.4998 10.6517 13.3358 10.6746 13.1684C10.6976 13.0011 10.7342 12.8119 10.7847 12.6009L11.3488 10.5923C11.3992 10.3997 11.4416 10.2175 11.476 10.0455C11.5104 9.87351 11.5276 9.71645 11.5276 9.57429C11.5276 9.31748 11.4749 9.13863 11.3694 9.03774C11.2639 8.93685 11.0621 8.88641 10.7641 8.88641C10.6173 8.88641 10.4671 8.90934 10.3135 8.9552C10.1599 9.00106 10.028 9.04462 9.91797 9.08589L10.0693 8.46681C10.4408 8.31547 10.7962 8.18592 11.1355 8.07815C11.4749 7.97039 11.7959 7.9165 12.0985 7.9165C12.6443 7.9165 13.065 8.04835 13.3608 8.31203C13.6566 8.57572 13.8045 8.91851 13.8045 9.34041C13.8045 9.42754 13.7942 9.58116 13.7735 9.80129C13.7529 10.0214 13.715 10.2232 13.66 10.4066L13.096 12.4083C13.0501 12.5688 13.0088 12.7523 12.9721 12.9586C12.9355 13.165 12.9171 13.3209 12.9171 13.4264C12.9171 13.6924 12.9767 13.8735 13.096 13.9698C13.2152 14.0661 13.4216 14.1143 13.715 14.1143C13.8526 14.1143 14.0085 14.0902 14.1828 14.042C14.3571 13.9939 14.4832 13.9515 14.5611 13.9148Z" fill="black"/>
        <path fill-rule="evenodd" clip-rule="evenodd" d="M14.7073 5.51569C14.7073 5.86422 14.5754 6.16115 14.3117 6.40649C14.048 6.65184 13.7305 6.77451 13.359 6.77451C12.9876 6.77451 12.6689 6.65184 12.4029 6.40649C12.1369 6.16115 12.0039 5.86422 12.0039 5.51569C12.0039 5.16717 12.1369 4.86909 12.4029 4.62145C12.6689 4.37382 12.9876 4.25 13.359 4.25C13.7305 4.25 14.048 4.37382 14.3117 4.62145C14.5754 4.86909 14.7073 5.16717 14.7073 5.51569Z" fill="black"/>
        </g>
        <defs>
        <clipPath id="clip0">
        <rect width="24" height="24" fill="white" transform="translate(0.5)"/>
        </clipPath>
        </defs>
        </svg>