<svg id="Layer_1" data-name="Layer 1" xmlns="http://www.w3.org/2000/svg" viewBox="0 0 26 26" width="22" height="22">
<defs>
 <style>.cls-1{fill:none;stroke:#4c4c4c;}.cls-2{fill:#4c4c4c;fill-rule:evenodd;}</style>
 </defs>
 <path class="cls-1" d="M19,10a9,9,0,1,1-9-9A9,9,0,0,1,19,10Z" transform="translate(-0.54 -0.54)"/>
 <path class="cls-2" d="M12.19,14.77l-.17.67-1.18.44a2.88,2.88,0,0,1-1,.16,2.08,2.08,0,0,1-1.4-.44,1.41,1.41,0,0,1-.49-1.11A4.84,4.84,0,0,1,8,14c0-.18.07-.39.12-.62l.62-2.18c.05-.21.1-.41.13-.59a2.52,2.52,0,0,0,.06-.52.82.82,0,0,0-.17-.58,1,1,0,0,0-.66-.16,1.71,1.71,0,0,0-.49.07l-.43.14.17-.67c.4-.16.79-.3,1.16-.42a3.3,3.3,0,0,1,1-.18,2,2,0,0,1,1.37.43,1.44,1.44,0,0,1,.48,1.12c0,.09,0,.26,0,.5a3.23,3.23,0,0,1-.12.66l-.62,2.17c-.05.18-.09.38-.13.6a3.07,3.07,0,0,0-.06.51.73.73,0,0,0,.19.59,1.16,1.16,0,0,0,.68.15,1.88,1.88,0,0,0,.5-.07C12,14.85,12.1,14.81,12.19,14.77Zm.15-9.12a1.25,1.25,0,0,1-.43,1,1.43,1.43,0,0,1-1,.4,1.46,1.46,0,0,1-1-.4,1.3,1.3,0,0,1,0-1.93,1.47,1.47,0,0,1,1-.41,1.44,1.44,0,0,1,1,.41A1.25,1.25,0,0,1,12.34,5.65Z" transform="translate(-0.54 -0.54)"/>
</svg>