<?xml version="1.0" encoding="UTF-8" standalone="no"?>
<svg id="issuu-logo-symbol-black" xmlns="http://www.w3.org/2000/svg" viewBox="0 0 105.33333 98.14668">
 <title>issuu-icon</title>
 <path d="m52.635 26.482a22.551 22.551 0 1 0 22.339 22.763 22.553 22.553 0 0 0 -22.339 -22.763zm-0.32 33.969a11.419 11.419 0 1 1 11.526 -11.311 11.419 11.419 0 0 1 -11.526 11.311z"/>
 <path d="m52.129 4.1641c-0.07173 0-0.14211 0.00261-0.21361 0.00277v-0.0048h-40.944a3.7426 3.7426 0 0 0 -3.7317 3.7317v41.16a44.889 44.889 0 1 0 44.89 -44.89zm-30.84 44.27a31.167 31.167 0 1 1 30.872 31.457 31.169 31.169 0 0 1 -30.872 -31.457z"/>
</svg>
