<?xml version="1.0" encoding="UTF-8" standalone="no"?>
<svg width="32px" height="32px" viewBox="0 0 32 32" version="1.1" xmlns="http://www.w3.org/2000/svg" xmlns:xlink="http://www.w3.org/1999/xlink">
    <!-- Generator: sketchtool 42 (36781) - http://www.bohemiancoding.com/sketch -->
    <title>501E1149-F3AD-493A-9C08-79446C071850</title>
    <desc>Created with sketchtool.</desc>
    <defs></defs>
    <g id="Desktop_2nd-Round" stroke="none" stroke-width="1" fill="none" fill-rule="evenodd">
        <g id="1680_ST_Hochschule_A@2x" transform="translate(-972.000000, -3835.000000)" fill="#767573">
            <path d="M980.88868,3854.44366 C981.459984,3854.42826 982.010277,3854.41346 982.565013,3854.39852 L982.565013,3851.76526 C981.81736,3852.56758 981.300806,3853.47008 980.88868,3854.44366 Z M989.439501,3855.45659 C989.979977,3855.16911 990.551721,3854.93807 991.154584,3854.76368 C991.723701,3854.59909 992.302893,3854.47928 992.896092,3854.4466 C993.297468,3854.42448 993.70024,3854.4214 994.102384,3854.42144 C994.313659,3854.42149 994.524888,3854.44664 994.741771,3854.46083 C994.745168,3854.44035 994.749193,3854.43209 994.747099,3854.42578 C994.736442,3854.39344 994.725622,3854.36098 994.712243,3854.32964 C994.459132,3853.73639 994.161765,3853.16553 993.798967,3852.62927 C993.515607,3852.2104 993.198625,3851.81789 992.818958,3851.47668 C992.791104,3851.45163 992.765473,3851.43578 992.737713,3851.42991 C992.709953,3851.42403 992.680065,3851.42812 992.643697,3851.44297 C992.447337,3851.52312 992.246974,3851.59384 992.048799,3851.66974 C990.671835,3852.19688 989.295336,3852.72513 987.917114,3853.24915 C987.889775,3853.25954 987.856758,3853.26463 987.823724,3853.26451 C987.790693,3853.26438 987.75764,3853.25905 987.730229,3853.24862 C986.987903,3852.96595 986.246007,3852.68219 985.504253,3852.39807 C984.800791,3852.12861 984.09746,3851.85883 983.394012,3851.58935 C983.27681,3851.54446 983.158073,3851.50341 983.029819,3851.45688 L983.029819,3854.46419 C983.210682,3854.49076 983.386846,3854.51121 983.560822,3854.54307 C985.12812,3854.83031 986.523792,3855.47346 987.73788,3856.48883 C987.805753,3856.54559 987.844494,3856.54473 987.911949,3856.48823 C988.389749,3856.08804 988.898968,3855.7441 989.439456,3855.45661 Z M987.909091,3866.81818 C979.1225,3866.81818 972,3859.69568 972,3850.90909 C972,3842.1233 979.1225,3835 987.909091,3835 C996.695682,3835 1003.81818,3842.1233 1003.81818,3850.90909 C1003.81818,3859.69568 996.695682,3866.81818 987.909091,3866.81818 Z M983.119494,3850.9596 C983.186507,3850.99046 983.219873,3851.00823 983.254985,3851.02164 C984.751408,3851.59327 986.247739,3852.16515 987.745605,3852.73314 C987.79626,3852.75236 987.868647,3852.74744 987.920628,3852.72773 C989.028845,3852.30788 990.135573,3851.88426 991.24258,3851.46138 C993.449614,3850.61827 995.656671,3849.77519 997.863565,3848.93177 C997.897071,3848.91897 997.928925,3848.90205 997.985211,3848.87619 C997.929112,3848.85035 997.900003,3848.83497 997.869452,3848.82318 C997.419329,3848.64965 996.969369,3848.47574 996.518687,3848.30357 C994.719103,3847.61608 992.919099,3846.92948 991.119491,3846.24192 C990.04848,3845.83271 988.978144,3845.42175 987.906318,3845.01456 C987.860759,3844.99725 987.797167,3844.99442 987.752283,3845.01125 C987.137793,3845.2416 986.524886,3845.47594 985.912095,3845.7106 C984.696984,3846.17587 983.482385,3846.6425 982.267181,3847.10755 C980.770967,3847.68017 979.274357,3848.25171 977.77805,3848.82407 C977.747941,3848.83559 977.719577,3848.85151 977.663152,3848.87831 C977.722276,3848.90399 977.754991,3848.91968 977.7888,3848.93266 C977.997888,3849.01278 978.207301,3849.0921 978.416459,3849.17206 C979.73979,3849.67806 981.063331,3850.1835 982.385755,3850.69176 C982.467706,3850.72325 982.536277,3850.72236 982.617692,3850.6905 C983.077867,3850.51035 983.540299,3850.33569 984.001777,3850.15874 C984.9497,3849.79526 985.897715,3849.43199 986.844568,3849.06578 C986.877608,3849.05301 986.925401,3849.00454 986.920794,3848.98151 C986.867673,3848.7175 987.015589,3848.55855 987.222955,3848.44808 C987.618095,3848.23748 988.023427,3848.24051 988.42222,3848.44429 C988.598523,3848.53438 988.74032,3848.66987 988.740273,3848.87502 C988.740226,3849.09069 988.589123,3849.2262 988.405072,3849.31901 C988.090462,3849.47763 987.762893,3849.48931 987.423759,3849.39856 C987.344671,3849.37739 987.244385,3849.37787 987.168856,3849.40647 C986.04242,3849.83273 984.918427,3850.2652 983.794062,3850.69668 C983.579134,3850.77918 983.36509,3850.86381 983.119494,3850.9596 Z M983.410812,3858.27351 L983.410812,3858.15811 C983.410882,3857.40947 983.411626,3856.66085 983.410765,3855.91224 C983.410346,3855.55052 983.154583,3855.29894 982.792204,3855.30031 C982.439993,3855.30161 982.186766,3855.55691 982.186487,3855.91379 C982.185882,3856.66241 982.18644,3857.41107 982.186952,3858.15968 C982.186975,3858.19622 982.190884,3858.23276 982.193234,3858.27351 L983.410812,3858.27351 Z" id="iTunes"></path>
        </g>
    </g>
</svg>