<?xml version="1.0" encoding="UTF-8" standalone="no"?>
<svg width="32px" height="32px" viewBox="0 0 32 32" version="1.1" xmlns="http://www.w3.org/2000/svg" xmlns:xlink="http://www.w3.org/1999/xlink">
    <!-- Generator: sketchtool 42 (36781) - http://www.bohemiancoding.com/sketch -->
    <title>501E1149-F3AD-493A-9C08-79446C071850</title>
    <desc>Created with sketchtool.</desc>
    <defs></defs>
    <g id="Desktop_2nd-Round" stroke="none" stroke-width="1" fill="none" fill-rule="evenodd">
        <g id="1680_ST_Hochschule_A@2x" transform="translate(-972.000000, -3835.000000)" fill="#767573">
            <path d="M987.909091,3866.81818 C979.1225,3866.81818 972,3859.69568 972,3850.90909 C972,3842.1233 979.1225,3835 987.909091,3835 C996.695682,3835 1003.81818,3842.1233 1003.81818,3850.90909 C1003.81818,3859.69568 996.695682,3866.81818 987.909091,3866.81818 L987.909091,3866.81818 Z M994.579698,3853.40287 C994.227885,3854.17457 994.059156,3854.51877 993.606052,3855.20046 C992.973656,3856.1527 992.082614,3857.33743 990.978156,3857.34814 C989.996656,3857.35698 989.74451,3856.716 988.412552,3856.72323 C987.080864,3856.73073 986.802989,3857.35912 985.821219,3857.35002 C984.71676,3857.34011 983.872031,3856.26975 983.239635,3855.31805 C981.471364,3852.65636 981.286385,3849.53261 982.377031,3847.87216 C983.152156,3846.69171 984.374698,3846.00118 985.524385,3846.00118 C986.695198,3846.00118 987.431052,3846.63573 988.39901,3846.63573 C989.337989,3846.63573 989.909719,3846.00011 991.263073,3846.00011 C992.28601,3846.00011 993.369885,3846.55109 994.142302,3847.50332 C991.611906,3848.87448 992.023031,3852.4477 994.579698,3853.40287 M990.34314,3844.406 C990.83419,3843.78189 991.20728,3842.90091 991.072004,3842.00011 C990.269551,3842.05502 989.33101,3842.5602 988.783145,3843.21886 C988.285872,3843.81698 987.875176,3844.70359 988.035072,3845.56582 C988.910845,3845.59261 989.81719,3845.07457 990.34314,3844.406" id="iTunes"></path>
        </g>
    </g>
</svg>