<?xml version="1.0" encoding="UTF-8" standalone="no"?>
<svg xmlns="http://www.w3.org/2000/svg" viewBox="0 0 24 24" style="enable-background:new 0 0 24 24;" xml:space="preserve" x="0px" y="0px">
  <style type="text/css">
	  .st0 {fill:#FFFFFF; }
  </style>
  <path class="st0" d="M13,10.45c.16-.06.17-.18.23-.27a4.37,4.37,0,0,1,3.28-1.85,6.29,6.29,0,0,1,2.55.27,3.75,3.75,0,0,1,2.49,2.48,9.92,9.92,0,0,1,.47,3.25c0,2.48,0,5,0,7.44,0,.18,0,.27-.24.26-1.24,0-2.47,0-3.71,0-.2,0-.26-.06-.26-.26V15.21a7.07,7.07,0,0,0-.17-1.72,1.84,1.84,0,0,0-2-1.52,2.15,2.15,0,0,0-2.34,1.76,4.86,4.86,0,0,0-.16,1.08c0,2.29,0,4.58,0,6.87,0,.35,0,.35-.35.35-1.18,0-2.37,0-3.55,0C9.09,22,9,22,9,21.78Q9,15.33,9,8.87c0-.2.07-.25.26-.25,1.15,0,2.29,0,3.43,0,.24,0,.32.07.31.31C13,9.43,13,9.92,13,10.45Z" transform="translate(-1.93 -1.97)"/>
  <path class="st0" d="M6.42,15.35v6.33c0,.34,0,.34-.34.34H2.55c-.21,0-.29-.06-.29-.28q0-6.42,0-12.83c0-.22.07-.29.29-.28,1.2,0,2.4,0,3.6,0,.23,0,.27.09.27.29,0,2.15,0,4.29,0,6.43Z" transform="translate(-1.93 -1.97)"/>
  <path class="st0" d="M4.36,2a2.43,2.43,0,1,1,0,4.85A2.43,2.43,0,0,1,4.36,2Z" transform="translate(-1.93 -1.97)"/>
</svg>