<?xml version="1.0" encoding="utf-8"?>
<svg version="1.1" xmlns="http://www.w3.org/2000/svg" xmlns:xlink="http://www.w3.org/1999/xlink" x="0px" y="0px"
	 viewBox="0 0 17.7 17.7" style="enable-background:new 0 0 17.7 17.7;" xml:space="preserve">
<g id="Layer_1" style="display:none;">
	<path style="display:inline;" d="M14.5,17.7c-3.8,0-7.5,0-11.3,0c0-1.1,0-2.1,0-3.2c-0.1,0-0.1,0-0.2,0c-0.6,0-1.2,0-1.8,0
		c-0.5,0-0.8-0.2-1-0.6C0.1,13.8,0,13.7,0,13.6C0,11,0,8.4,0,5.8c0,0,0,0,0,0c0.2-0.6,0.6-0.8,1.2-0.8c0.5,0,1,0,1.6,0
		c0.1,0,0.3,0,0.4,0c0-1.7,0-3.3,0-4.9c3.8,0,7.5,0,11.3,0c0,1.6,0,3.3,0,4.9c0.1,0,0.1,0,0.2,0c0.6,0,1.2,0,1.8,0
		c0.5,0,0.9,0.3,1.1,0.7c0,0,0,0.1,0.1,0.1c0,2.6,0,5.2,0,7.8c0,0,0,0,0,0c-0.2,0.6-0.6,0.9-1.2,0.9c-0.6,0-1.2,0-1.8,0
		c-0.1,0-0.1,0-0.2,0C14.5,15.6,14.5,16.6,14.5,17.7z M14.5,13.8c0.7,0,1.4,0,2,0c0.3,0,0.4-0.1,0.4-0.4c0-2.4,0-4.9,0-7.3
		c0-0.3-0.1-0.4-0.4-0.4c-0.8,0-1.6,0-2.4,0c-4.3,0-8.7,0-13,0c-0.3,0-0.4,0.1-0.4,0.4c0,2.4,0,4.9,0,7.3c0,0.3,0.1,0.4,0.4,0.4
		c0.6,0,1.3,0,1.9,0c0,0,0.1,0,0.2,0c0-1.3,0-2.6,0-3.9c3.8,0,7.5,0,11.3,0C14.5,11.2,14.5,12.5,14.5,13.8z M13.8,16.9
		c0-2.1,0-4.2,0-6.3c-3.3,0-6.6,0-9.9,0c0,2.1,0,4.2,0,6.3C7.2,16.9,10.5,16.9,13.8,16.9z M13.8,0.7c-3.3,0-6.6,0-9.9,0
		c0,1.4,0,2.8,0,4.2c3.3,0,6.6,0,9.9,0C13.8,3.5,13.8,2.1,13.8,0.7z"/>
	<path style="display:inline;fill:#FFFFFF;" d="M13.8,0.7c0,1.4,0,2.8,0,4.2c-3.3,0-6.6,0-9.9,0c0-1.4,0-2.8,0-4.2
		C7.2,0.7,10.5,0.7,13.8,0.7z"/>
	<path style="display:inline;" d="M14.5,7.4c0-0.4,0.3-0.7,0.7-0.7c0.4,0,0.7,0.3,0.7,0.7c0,0.4-0.3,0.7-0.7,0.7
		C14.8,8.1,14.5,7.8,14.5,7.4z"/>
	<path style="display:inline;" d="M8.8,12c1.2,0,2.3,0,3.5,0c0.3,0,0.5,0.2,0.4,0.4c0,0.2-0.1,0.3-0.3,0.3c-0.1,0-0.1,0-0.2,0
		c-2.3,0-4.5,0-6.8,0c-0.1,0-0.1,0-0.2,0c-0.2,0-0.3-0.2-0.3-0.3c0-0.2,0.1-0.3,0.3-0.4c0.1,0,0.1,0,0.2,0C6.6,12,7.7,12,8.8,12z"/>
	<path style="display:inline;" d="M8.8,14.8c1.1,0,2.3,0,3.4,0c0.1,0,0.2,0,0.2,0c0.2,0.1,0.2,0.2,0.2,0.3c0,0.2-0.1,0.3-0.3,0.3
		c-0.1,0-0.1,0-0.2,0c-2.3,0-4.5,0-6.8,0c-0.1,0-0.1,0-0.2,0c-0.2,0-0.3-0.2-0.3-0.3c0-0.2,0.1-0.3,0.3-0.4c0.1,0,0.1,0,0.2,0
		C6.6,14.8,7.7,14.8,8.8,14.8z"/>
	<path style="display:inline;" d="M8.1,13.4c0.9,0,1.9,0,2.8,0c0.3,0,0.5,0.2,0.4,0.5c0,0.1-0.1,0.2-0.3,0.2c-0.1,0-0.1,0-0.2,0
		c-1.8,0-3.6,0-5.3,0c0,0,0,0-0.1,0c-0.3,0-0.5-0.1-0.5-0.4c0-0.2,0.2-0.4,0.5-0.4C6.3,13.4,7.2,13.4,8.1,13.4z"/>
</g>
<g id="Layer_2">
	<rect x="3.5" y="0.5" style="fill:none;stroke:#FFFFFF;stroke-miterlimit:10;" width="10.6" height="4.6"/>
	<rect x="3.5" y="10.3" style="fill:none;stroke:#FFFFFF;stroke-miterlimit:10;" width="10.6" height="6.8"/>
	<polyline style="fill:none;stroke:#FFFFFF;stroke-miterlimit:10;" points="14.1,14.1 17.1,14.1 17.1,5.3 0.5,5.3 0.5,14.1
		3.5,14.1 	"/>
	<line style="fill:none;stroke:#FFFFFF;stroke-width:0.5;stroke-miterlimit:10;" x1="4.9" y1="12.3" x2="12.9" y2="12.3"/>
	<line style="fill:none;stroke:#FFFFFF;stroke-width:0.5;stroke-miterlimit:10;" x1="4.9" y1="13.8" x2="12.9" y2="13.8"/>
	<line style="fill:none;stroke:#FFFFFF;stroke-width:0.5;stroke-miterlimit:10;" x1="4.9" y1="15.3" x2="12.9" y2="15.3"/>
	<circle style="fill:#FFFFFF;" cx="15.2" cy="7.4" r="1"/>
</g>
</svg>
