<?xml version="1.0" encoding="utf-8"?>
<!-- Generator: Adobe Illustrator 20.0.0, SVG Export Plug-In . SVG Version: 6.00 Build 0)  -->
<svg version="1.1" id="Layer_1" xmlns="http://www.w3.org/2000/svg" xmlns:xlink="http://www.w3.org/1999/xlink" x="0px" y="0px"
	 viewBox="0 0 18 20" style="enable-background:new 0 0 18 20;" xml:space="preserve">
<style type="text/css">
	.st0{fill:none;stroke:#000000;stroke-width:1.8;}
</style>
<title>A86225EE-A967-4188-8329-AC573312478C</title>
<desc>Created with sketchtool.</desc>
<g id="Symbols">
	<g id="modul_Standortelement" transform="translate(-443.000000, -792.000000)">
		<g id="Route" transform="translate(444.000000, 793.000000)">
			<path id="Stroke-1" class="st0" d="M5.8,0.2c-3.1,0-5.6,2.5-5.6,5.5c0,5,5.6,11.1,5.6,11.1s5.6-6.1,5.6-11.1
				C11.3,2.7,8.9,0.2,5.8,0.2L5.8,0.2z"/>
			<path id="Stroke-3" class="st0" d="M8,5.7C8,7,7,7.9,5.8,7.9c-1.2,0-2.2-1-2.2-2.2c0-1.2,1-2.2,2.2-2.2C7,3.5,8,4.5,8,5.7L8,5.7z
				"/>
			<path id="Stroke-5" class="st0" d="M9.1,12.2c1.1,1.7,2.2,2.9,2.2,2.9s4.5-4.9,4.5-8.9c0-2.4-2-4.4-4.5-4.4c-0.5,0-1,0.1-1.4,0.2
				"/>
		</g>
	</g>
</g>
</svg>
