<?xml version="1.0" encoding="UTF-8" standalone="no"?>
<svg width="18px" height="20px" viewBox="0 0 18 20" version="1.1" xmlns="http://www.w3.org/2000/svg" xmlns:xlink="http://www.w3.org/1999/xlink">
    <!-- Generator: sketchtool 39.1 (31720) - http://www.bohemiancoding.com/sketch -->
    <title>A86225EE-A967-4188-8329-AC573312478C</title>
    <desc>Created with sketchtool.</desc>
    <defs></defs>
    <g id="Symbols" stroke="none" stroke-width="1" fill="none" fill-rule="evenodd" opacity="0.600000024">
        <g id="modul_Standortelement" transform="translate(-443.000000, -792.000000)" stroke="#000000" stroke-width="1.8">
            <g id="Route" transform="translate(444.000000, 793.000000)">
                <path d="M5.76744186,0.184782609 C2.68465116,0.184782609 0.186046512,2.66641304 0.186046512,5.72826087 C0.186046512,10.7170217 5.76818605,16.8152174 5.76818605,16.8152174 C5.76818605,16.8152174 11.3488372,10.7170217 11.3488372,5.72826087 C11.3488372,2.66641304 8.85023256,0.184782609 5.76744186,0.184782609 L5.76744186,0.184782609 Z" id="Stroke-1"></path>
                <path d="M8,5.7278913 C8,6.95263043 7.00055814,7.94528261 5.76744186,7.94528261 C4.53469767,7.94528261 3.53488372,6.95263043 3.53488372,5.7278913 C3.53488372,4.50352174 4.53469767,3.5105 5.76744186,3.5105 C7.00055814,3.5105 8,4.50352174 8,5.7278913 L8,5.7278913 Z" id="Stroke-3"></path>
                <path d="M9.11698605,12.213687 C10.2332651,13.9325348 11.3502884,15.1517304 11.3502884,15.1517304 C11.3502884,15.1517304 15.8146605,10.2734696 15.8146605,6.28216522 C15.8146605,3.83305652 13.8154047,1.84738261 11.3495442,1.84738261 C10.8632186,1.84738261 10.3962419,1.92462174 9.95791628,2.06727391" id="Stroke-5"></path>
            </g>
        </g>
    </g>
</svg>
