<?xml version="1.0" encoding="UTF-8" standalone="no"?>
<svg width="51px" height="51px" viewBox="0 0 51 51" version="1.1" xmlns="http://www.w3.org/2000/svg" xmlns:xlink="http://www.w3.org/1999/xlink">
    <!-- Generator: sketchtool 39.1 (31720) - http://www.bohemiancoding.com/sketch -->
    <title>E44ED099-890E-47FA-907F-8F3F89CF2734</title>
    <desc>Created with sketchtool.</desc>
    <defs></defs>
    <g id="Desktop" stroke="none" stroke-width="1" fill="none" fill-rule="evenodd" opacity="0.699999988">
        <g id="1680_ST_Produkt_CAS_V3@2x" transform="translate(-1529.000000, -5189.000000)" fill="#000000">
            <g id="top-link" transform="translate(1529.000000, 5189.000000)">
                <path d="M25.5,51 C39.5832611,51 51,39.5832611 51,25.5 C51,11.4167389 39.5832611,0 25.5,0 C11.4167389,0 -1.77635684e-15,11.4167389 -1.77635684e-15,25.5 C-1.77635684e-15,39.5832611 11.4167389,51 25.5,51 Z M26.1633835,23.1317869 L29.8677209,23.1317869 C30.0731349,23.1317869 30.1993669,23.0285061 30.1775632,22.8907984 C30.1706778,22.8448958 30.146579,22.794403 30.1029715,22.7416151 L25.8214094,16.3955849 C25.7181286,16.1867282 25.5115671,16.1867282 25.3394324,16.3955849 L21.0590179,22.7416151 C20.9224577,22.9493242 21.0303288,23.1317869 21.3057442,23.1317869 L25.0158193,23.1317869 L25.0158193,35.7810576 L26.1633835,35.7810576 L26.1633835,23.1317869 Z" id="Combined-Shape"></path>
            </g>
        </g>
    </g>
</svg>