<?xml version="1.0" encoding="utf-8"?>
<!-- Generator: Adobe Illustrator 20.0.0, SVG Export Plug-In . SVG Version: 6.00 Build 0)  -->
<svg version="1.1" id="Layer_1" xmlns="http://www.w3.org/2000/svg" xmlns:xlink="http://www.w3.org/1999/xlink" x="0px" y="0px"
	 viewBox="0 0 51 51" style="enable-background:new 0 0 51 51;" xml:space="preserve">
<style type="text/css">
	.st0{opacity:0.7;}
	.st1{fill:#555555;}
	.st2{fill:#FFFFFF;}
</style>
<title>E44ED099-890E-47FA-907F-8F3F89CF2734</title>
<desc>Created with sketchtool.</desc>
<g id="Desktop" class="st0">
	<g id="_x31_680_x5F_ST_x5F_Produkt_x5F_CAS_x5F_V3_x40_2x" transform="translate(-1529.000000, -5189.000000)">
		<g id="top-link" transform="translate(1529.000000, 5189.000000)">
			<path id="Combined-Shape" class="st1" d="M25.5,51C39.6,51,51,39.6,51,25.5S39.6,0,25.5,0S0,11.4,0,25.5S11.4,51,25.5,51z"/>
		</g>
	</g>
</g>
<path class="st2" d="M26.2,23.1h3.7c0.2,0,0.3-0.1,0.3-0.2c0,0,0-0.1-0.1-0.1l-4.3-6.3c-0.1-0.2-0.3-0.2-0.5,0l-4.3,6.3
	c-0.1,0.2,0,0.4,0.2,0.4H25v12.6h1.1V23.1z"/>
</svg>
