<?xml version="1.0" encoding="UTF-8" standalone="no"?>
<svg width="32px" height="32px" viewBox="0 0 32 32" version="1.1" xmlns="http://www.w3.org/2000/svg" xmlns:xlink="http://www.w3.org/1999/xlink">
    <!-- Generator: sketchtool 41.2 (35397) - http://www.bohemiancoding.com/sketch -->
    <title>B3D053DE-2F8C-40CF-8A7A-847061123FD5</title>
    <desc>Created with sketchtool.</desc>
    <defs></defs>
    <g id="Desktop_2nd-Round" stroke="none" stroke-width="1" fill="none" fill-rule="evenodd">
        <g id="1680_ST_Hochschule_A@2x" transform="translate(-544.000000, -3058.000000)" fill="#767573">
            <path d="M559.909091,3089.81818 C551.1225,3089.81818 544,3082.69568 544,3073.90909 C544,3065.1233 551.1225,3058 559.909091,3058 C568.695682,3058 575.818182,3065.1233 575.818182,3073.90909 C575.818182,3082.69568 568.695682,3089.81818 559.909091,3089.81818 Z M567.469205,3068.23466 C566.838409,3068.60295 566.14,3068.87023 565.397045,3069.0142 C564.802045,3068.38977 563.953295,3068 563.014659,3068 C561.212159,3068 559.750909,3069.43898 559.750909,3071.21205 C559.750909,3071.46341 559.77875,3071.70841 559.835227,3071.94466 C557.121932,3071.81023 554.717273,3070.53114 553.108068,3068.58705 C552.826477,3069.06273 552.665795,3069.61318 552.665795,3070.20261 C552.665795,3071.31705 553.240909,3072.30023 554.1175,3072.87693 C553.582955,3072.85943 553.079432,3072.71545 552.639545,3072.47443 C552.63875,3072.48875 552.63875,3072.50068 552.63875,3072.515 C552.63875,3074.0717 553.764318,3075.37068 555.257386,3075.6658 C554.982955,3075.73818 554.695795,3075.77716 554.3975,3075.77716 C554.1875,3075.77716 553.982273,3075.75727 553.783409,3075.71989 C554.198636,3076.99739 555.40375,3077.92489 556.831591,3077.95114 C555.714773,3078.81341 554.307614,3079.32568 552.777955,3079.32568 C552.513864,3079.32568 552.255341,3079.31216 552,3079.28273 C553.444545,3080.19273 555.160341,3080.72489 557.003409,3080.72489 C563.0075,3080.72489 566.290341,3075.83045 566.290341,3071.58432 C566.290341,3071.44511 566.287159,3071.3067 566.280795,3071.16909 C566.917955,3070.71568 567.470795,3070.15011 567.909091,3069.50659 C567.323636,3069.76193 566.695227,3069.93455 566.035,3070.0117 C566.707955,3069.61398 567.225795,3068.98477 567.469205,3068.23466 Z" id="Twitter"></path>
        </g>
    </g>
</svg>