<svg xmlns="http://www.w3.org/2000/svg" width="32" height="32" viewBox="0 0 32 32">
    <path fill="#767573" fill-rule="evenodd" d="M15.91 31.818C7.121 31.818 0 24.696 0 15.91 0 7.123 7.122 0 15.91 0c8.786 0 15.908 7.123 15.908 15.91 0 8.786-7.122 15.908-15.909 15.908zM7.8 13.781l.616.771s1.275-.957 1.699-.478c.424.478 2.045 6.267 2.585 7.334.473.935 1.775 2.174 3.202 1.287 1.427-.882 6.172-4.75 7.023-9.32.847-4.569-5.712-3.614-6.407.368 1.736-.996 2.662.406 1.775 1.99-.886 1.584-1.697 2.616-2.122 2.616-.422 0-.748-1.057-1.234-2.912-.502-1.915-.498-5.366-2.585-4.974C10.385 10.83 7.8 13.78 7.8 13.78z"/>
</svg>
