<?xml version="1.0" encoding="UTF-8" standalone="no"?>
<svg width="32px" height="32px" viewBox="0 0 32 32" version="1.1" xmlns="http://www.w3.org/2000/svg" xmlns:xlink="http://www.w3.org/1999/xlink">
    <!-- Generator: sketchtool 41.2 (35397) - http://www.bohemiancoding.com/sketch -->
    <title>C39557B6-A7B8-4A7B-9AF0-9972056241F0</title>
    <desc>Created with sketchtool.</desc>
    <defs></defs>
    <g id="Desktop_2nd-Round" stroke="none" stroke-width="1" fill="none" fill-rule="evenodd">
        <g id="1680_ST_Hochschule_A@2x" transform="translate(-758.000000, -3058.000000)" fill="#767573">
            <path d="M778.856896,3078.19769 L778.123986,3078.19769 L778.123986,3077.69968 C778.123986,3077.41499 778.205359,3077.21936 778.498634,3077.21936 C778.775523,3077.21936 778.856896,3077.43288 778.856896,3077.69968 L778.856896,3078.19769 Z M780.778551,3080.72355 C780.697178,3081.9329 779.834109,3082.64443 778.775523,3082.69771 C777.162975,3082.78678 775.550611,3082.78678 773.938063,3082.78678 C772.325698,3082.78678 770.697133,3082.78678 769.10097,3082.69771 C768.042201,3082.64443 767.178947,3081.9329 767.097758,3080.72355 C767.048787,3079.86967 767,3078.9981 767,3078.14441 C767,3077.29053 767.048787,3076.41896 767.097758,3075.56528 C767.178947,3074.35573 768.042201,3073.64439 769.10097,3073.59091 C770.697133,3073.50205 772.325698,3073.50205 773.938063,3073.50205 C775.550611,3073.50205 777.17936,3073.50205 778.775523,3073.59091 C779.834109,3073.64439 780.697178,3074.35573 780.778551,3075.56528 C780.827522,3076.41896 780.876309,3077.29053 780.876309,3078.14441 C780.876309,3078.9981 780.827522,3079.86967 780.778551,3080.72355 L780.778551,3080.72355 Z M779.719965,3079.42494 L778.856896,3079.42494 C778.856896,3079.7985 778.970671,3080.36768 778.482249,3080.36768 C778.123986,3080.36768 778.123986,3080.0476 778.123986,3079.74522 L778.123986,3078.89134 L779.719965,3078.89134 L779.719965,3077.75316 C779.719965,3076.93487 779.296531,3076.41896 778.531036,3076.41896 C777.798126,3076.41896 777.244348,3076.93487 777.244348,3077.75316 L777.244348,3079.76291 C777.244348,3080.5989 777.667966,3081.16809 778.465864,3081.16809 C779.312916,3081.16809 779.719965,3080.67007 779.719965,3079.76291 L779.719965,3079.42494 Z M778.938085,3072.54161 L777.8957,3072.54161 L777.8957,3071.91894 C777.586409,3072.27481 777.162975,3072.61278 776.690569,3072.61278 C776.136975,3072.61278 775.95766,3072.15035 775.95766,3071.61675 L775.95766,3066.97438 L777.000045,3066.97438 L777.000045,3071.24319 C777.000045,3071.45651 777.049016,3071.61675 777.277118,3071.61675 C777.472266,3071.61675 777.76554,3071.34975 777.8957,3071.18991 L777.8957,3066.97438 L778.938085,3066.97438 L778.938085,3072.54161 Z M775.746127,3080.01202 C775.746127,3080.24323 775.680771,3080.38558 775.452853,3080.38558 C775.257336,3080.38558 775.175963,3080.3321 775.045803,3080.18995 L775.045803,3077.3796 C775.143377,3077.27284 775.257336,3077.20167 775.404066,3077.20167 C775.664386,3077.20167 775.746127,3077.3796 775.746127,3077.6464 L775.746127,3080.01202 Z M776.609196,3077.61081 C776.609196,3077.02373 776.41368,3076.49013 775.794914,3076.49013 C775.50164,3076.49013 775.240951,3076.66807 775.045803,3076.89928 L775.045803,3074.94281 L774.198751,3074.94281 L774.198751,3081.04363 L775.045803,3081.04363 L775.045803,3080.68797 C775.289922,3080.97246 775.485439,3081.09691 775.843701,3081.09691 C776.41368,3081.09691 776.609196,3080.67007 776.609196,3080.10088 L776.609196,3077.61081 Z M774.01962,3068.20163 C774.01962,3067.95252 773.775132,3067.79248 773.563599,3067.79248 C773.351882,3067.79248 773.140165,3067.95252 773.140165,3068.20163 L773.140165,3071.24319 C773.140165,3071.52768 773.302911,3071.70562 773.563599,3071.70562 C773.840489,3071.70562 774.01962,3071.56327 774.01962,3071.24319 L774.01962,3068.20163 Z M775.078389,3071.15412 C775.078389,3072.18594 774.459255,3072.68375 773.563599,3072.68375 C772.70053,3072.68375 772.065194,3072.11477 772.065194,3071.13643 L772.065194,3068.2549 C772.065194,3067.27677 772.798104,3066.83204 773.612386,3066.83204 C774.394267,3066.83204 775.078389,3067.36564 775.078389,3068.2728 L775.078389,3071.15412 Z M773.368083,3081.04363 L773.368083,3076.54361 L772.537416,3076.54361 L772.537416,3079.95854 C772.423641,3080.10088 772.22794,3080.29651 772.032608,3080.29651 C771.853293,3080.29651 771.820707,3080.15416 771.820707,3079.99432 L771.820707,3076.54361 L770.974023,3076.54361 L770.974023,3080.3321 C770.974023,3080.74125 771.136769,3081.11481 771.560203,3081.11481 C771.902264,3081.11481 772.309498,3080.81242 772.537416,3080.54562 L772.537416,3081.04363 L773.368083,3081.04363 Z M772.113981,3065.00002 L771.218326,3067.93482 C771.039011,3068.52171 770.876265,3068.82409 770.762121,3069.41117 C770.745736,3069.55332 770.762121,3072.23922 770.762121,3072.54161 L769.589393,3072.54161 C769.589393,3072.25691 769.605778,3069.66008 769.589393,3069.55332 C769.475618,3068.94875 769.312688,3068.62847 769.117355,3068.04159 L768.18893,3065.00002 L769.37786,3065.00002 L770.12697,3068.006 L770.208343,3068.006 L770.925052,3065.00002 L772.113981,3065.00002 Z M770.990224,3075.83208 L770.990224,3074.94281 L768.074971,3074.94281 L768.074971,3075.83208 L769.051999,3075.83208 L769.051999,3081.04363 L769.996626,3081.04363 L769.996626,3075.83208 L770.990224,3075.83208 Z M773.909091,3089.81818 C765.1225,3089.81818 758,3082.69568 758,3073.90909 C758,3065.1233 765.1225,3058 773.909091,3058 C782.695682,3058 789.818182,3065.1233 789.818182,3073.90909 C789.818182,3082.69568 782.695682,3089.81818 773.909091,3089.81818 Z" id="Youtube"></path>
        </g>
    </g>
</svg>