<svg xmlns="http://www.w3.org/2000/svg" width="118" height="70" viewBox="0 0 118 70"><defs><style>.a { fill: #fff; } .b { fill: #ec6607; } .c { fill: #bdbcbc; } .d { fill: #706f6f; }</style></defs><title>Zeichenfläche 1</title><path class="a" d="M41.2 30.7v13.63h9.61v-2.77h-6.6v-2.77h5.91v-2.78h-5.91v-2.54h6.6v-2.77h-9.61zM52.36 30.7v13.63h3.01v-5.31h5.67v-2.78h-5.67v-2.77h6.14v-2.77h-9.15zM69.86 41.56a4.22 4.22 0 1 0-4.16-4.22 4.18 4.18 0 0 0 4.16 4.22zm8.37 2.77h-8.23c-4.26 0-7.39-2.6-7.39-7a7.28 7.28 0 0 1 14.55 0 4.86 4.86 0 0 1-2.74 4.67h3.81v2.31zM79.79 30.7h4.54l3.14 8.89h.04l3.15-8.89h4.53v13.63h-3.01v-10.46h-.03l-3.59 10.46h-2.29l-3.44-10.46h-.04v10.46h-3v-13.63z"/><path class="b" d="M100.29 44.33h13.63v-13.63h-13.63v13.63z"/><path class="c" d="M59.38 17.07h54.54v-6.81h-54.54v6.81zM77.56 6.85h36.36v-6.81h-36.36v6.81z"/><path class="a" d="M115.7 28.9h.3c.27 0 .53 0 .53-.32s-.23-.31-.44-.31h-.42zm-.27-.88h.72c.47 0 .69.17.69.57a.51.51 0 0 1-.52.53l.56.87h-.29l-.53-.85h-.35v.86h-.27zm.63 2.43a1.46 1.46 0 1 0-1.43-1.45 1.43 1.43 0 0 0 1.43 1.45zm0-3.16a1.7 1.7 0 1 1-1.7 1.71 1.69 1.69 0 0 1 1.7-1.71z"/><path class="d" d="M41.2 27.3h72.72v-6.82h-72.72v6.82z"/><path class="a" d="M.23 53.87a3.73 3.73 0 0 1 .22-1.25 3.47 3.47 0 0 1 .64-1.11 3.29 3.29 0 0 1 1-.8 3.08 3.08 0 0 1 1.4-.31 2.89 2.89 0 0 1 1.59.42 2.56 2.56 0 0 1 1 1.1l-.54.33a2.06 2.06 0 0 0-.41-.58 2.26 2.26 0 0 0-.51-.38 2.16 2.16 0 0 0-.57-.21 2.71 2.71 0 0 0-.57-.08 2.32 2.32 0 0 0-1.1.25 2.54 2.54 0 0 0-.81.67 2.91 2.91 0 0 0-.49.93 3.38 3.38 0 0 0-.17 1 3.1 3.1 0 0 0 .2 1.15 3.14 3.14 0 0 0 .55.94 2.63 2.63 0 0 0 .82.65 2.25 2.25 0 0 0 1 .24 2.58 2.58 0 0 0 .6-.07 2.31 2.31 0 0 0 .6-.24 2.51 2.51 0 0 0 .53-.4 2.08 2.08 0 0 0 .41-.58l.57.29a2.13 2.13 0 0 1-.47.69 3.09 3.09 0 0 1-.67.5 3.36 3.36 0 0 1-.79.31 3.24 3.24 0 0 1-.82.11 2.77 2.77 0 0 1-1.31-.31 3.44 3.44 0 0 1-1-.82 3.8 3.8 0 0 1-.67-1.15 3.72 3.72 0 0 1-.24-1.31zm9.2 3.63a2.41 2.41 0 0 1-1-.21 2.5 2.5 0 0 1-.8-.57 2.6 2.6 0 0 1-.52-.84 2.77 2.77 0 0 1-.19-1 2.74 2.74 0 0 1 .19-1 2.67 2.67 0 0 1 .51-.88 2.56 2.56 0 0 1 .8-.58 2.34 2.34 0 0 1 1-.22 2.37 2.37 0 0 1 1 .22 2.55 2.55 0 0 1 .8.58 2.67 2.67 0 0 1 .53.84 2.74 2.74 0 0 1 .19 1 2.77 2.77 0 0 1-.19 1 2.6 2.6 0 0 1-.52.84 2.48 2.48 0 0 1-.8.57 2.44 2.44 0 0 1-1 .21zm-1.85-2.63a2.14 2.14 0 0 0 .15.8 2.17 2.17 0 0 0 .4.65 1.79 1.79 0 0 0 .59.44 1.68 1.68 0 0 0 .72.16 1.64 1.64 0 0 0 .72-.16 1.91 1.91 0 0 0 .59-.44 2.1 2.1 0 0 0 .4-.65 2.26 2.26 0 0 0 0-1.6 2.09 2.09 0 0 0-.4-.66 1.91 1.91 0 0 0-.59-.44 1.64 1.64 0 0 0-.72-.16 1.61 1.61 0 0 0-.71.16 1.89 1.89 0 0 0-.59.45 2.15 2.15 0 0 0-.4.66 2.21 2.21 0 0 0-.15.81zm13.07 2.53h-.65v-2.85a2.39 2.39 0 0 0-.28-1.31 1 1 0 0 0-.84-.42 1.42 1.42 0 0 0-.55.11 1.7 1.7 0 0 0-.48.3 2.08 2.08 0 0 0-.39.47 2.25 2.25 0 0 0-.25.59v3.11h-.66v-2.85a2.46 2.46 0 0 0-.27-1.32.94.94 0 0 0-.84-.41 1.5 1.5 0 0 0-1 .4 2.24 2.24 0 0 0-.65 1.06v3.12h-.66v-5.11h.61v1.16a2.41 2.41 0 0 1 .82-.92 2 2 0 0 1 1.12-.33 1.45 1.45 0 0 1 1 .36 1.58 1.58 0 0 1 .47 1 2.18 2.18 0 0 1 2-1.31 1.55 1.55 0 0 1 .73.16 1.23 1.23 0 0 1 .48.45 2.09 2.09 0 0 1 .26.7 4.54 4.54 0 0 1 .08.91zm9 0h-.65v-2.85a2.39 2.39 0 0 0-.28-1.31 1 1 0 0 0-.84-.42 1.42 1.42 0 0 0-.55.11 1.7 1.7 0 0 0-.48.3 2.08 2.08 0 0 0-.39.47 2.25 2.25 0 0 0-.25.59v3.11h-.66v-2.85a2.46 2.46 0 0 0-.27-1.32.94.94 0 0 0-.84-.41 1.5 1.5 0 0 0-1 .4 2.24 2.24 0 0 0-.65 1.06v3.12h-.66v-5.11h.61v1.16a2.41 2.41 0 0 1 .82-.92 2 2 0 0 1 1.12-.33 1.45 1.45 0 0 1 1 .36 1.58 1.58 0 0 1 .47 1 2.18 2.18 0 0 1 2-1.31 1.55 1.55 0 0 1 .73.16 1.23 1.23 0 0 1 .48.45 2.09 2.09 0 0 1 .26.7 4.54 4.54 0 0 1 .08.91zm1.41 0v-5.11h.66v5.11zm0-6.17v-1h.66v1zm4.57 5.93l-.17.08-.26.1-.33.09a1.89 1.89 0 0 1-.39 0 1.42 1.42 0 0 1-.48-.03 1 1 0 0 1-.34-.18.89.89 0 0 1-.23-.31 1 1 0 0 1-.09-.43v-3.66h-.7v-.53h.7v-1.72h.66v1.72h1.17v.53h-1.17v3.47a.53.53 0 0 0 .2.42.69.69 0 0 0 .42.13 1.25 1.25 0 0 0 .5-.09l.27-.13zm3.27 0l-.17.08-.26.1-.33.09a1.89 1.89 0 0 1-.39 0 1.42 1.42 0 0 1-.41-.06 1 1 0 0 1-.34-.18.89.89 0 0 1-.23-.31 1 1 0 0 1-.09-.43v-3.63h-.68v-.53h.7v-1.72h.66v1.72h1.14v.53h-1.18v3.47a.53.53 0 0 0 .2.42.69.69 0 0 0 .42.13 1.25 1.25 0 0 0 .5-.09l.27-.13zm3 .34a2.44 2.44 0 0 1-1-.21 2.5 2.5 0 0 1-.81-.58 2.69 2.69 0 0 1-.53-.85 2.76 2.76 0 0 1-.19-1 2.7 2.7 0 0 1 .19-1 2.63 2.63 0 0 1 .53-.83 2.51 2.51 0 0 1 .81-.57 2.48 2.48 0 0 1 2.83.57 2.7 2.7 0 0 1 .7 1.83v.14a.4.4 0 0 1 0 .11h-4.37a2.15 2.15 0 0 0 .19.76 2.09 2.09 0 0 0 .42.6 1.86 1.86 0 0 0 .58.4 1.74 1.74 0 0 0 .7.14 1.8 1.8 0 0 0 .49-.07 2 2 0 0 0 .45-.19 1.67 1.67 0 0 0 .37-.29 1.24 1.24 0 0 0 .25-.38l.58.16a1.7 1.7 0 0 1-.33.51 2.32 2.32 0 0 1-.5.4 2.44 2.44 0 0 1-.63.26 2.71 2.71 0 0 1-.71.09zm1.88-2.92a2.07 2.07 0 0 0-.19-.75 2 2 0 0 0-.41-.58 1.82 1.82 0 0 0-.58-.38 1.79 1.79 0 0 0-.7-.14 1.83 1.83 0 0 0-.7.14 1.8 1.8 0 0 0-.58.38 1.88 1.88 0 0 0-.4.59 2.23 2.23 0 0 0-.18.74zm3.75 2.92a2.19 2.19 0 0 1-1-.22 2.49 2.49 0 0 1-.77-.58 2.68 2.68 0 0 1-.5-.84 2.77 2.77 0 0 1-.18-1 3 3 0 0 1 .18-1 2.74 2.74 0 0 1 .48-.85 2.28 2.28 0 0 1 .73-.57 2.07 2.07 0 0 1 .93-.21 2 2 0 0 1 1.14.34 2.56 2.56 0 0 1 .78.82v-3.14h.68v6.29q0 .27.23.27v.59h-.23a.61.61 0 0 1-.41-.15.47.47 0 0 1-.18-.37v-.5a2.23 2.23 0 0 1-.82.79 2.15 2.15 0 0 1-1.08.29zm.15-.59a1.58 1.58 0 0 0 .52-.1 2.15 2.15 0 0 0 .52-.27 1.8 1.8 0 0 0 .42-.4 1.09 1.09 0 0 0 .21-.49v-1.58a1.75 1.75 0 0 0-.28-.49 2.28 2.28 0 0 0-.43-.41 2 2 0 0 0-.51-.27 1.59 1.59 0 0 0-.54-.1 1.56 1.56 0 0 0-.74.18 1.88 1.88 0 0 0-.57.47 2.08 2.08 0 0 0-.37.66 2.35 2.35 0 0 0-.13.76 2.14 2.14 0 0 0 .55 1.44 1.94 1.94 0 0 0 .6.45 1.71 1.71 0 0 0 .75.17zm8.78.24l-.17.08-.26.1-.33.09a1.89 1.89 0 0 1-.39 0 1.42 1.42 0 0 1-.41-.06 1 1 0 0 1-.34-.18.89.89 0 0 1-.23-.31 1 1 0 0 1-.09-.43v-3.62h-.7v-.53h.7v-1.72h.66v1.72h1.17v.53h-1.16v3.47a.53.53 0 0 0 .2.42.69.69 0 0 0 .42.13 1.25 1.25 0 0 0 .5-.09l.27-.13zm3 .34a2.41 2.41 0 0 1-1-.21 2.5 2.5 0 0 1-.8-.57 2.6 2.6 0 0 1-.52-.84 2.77 2.77 0 0 1-.19-1 2.74 2.74 0 0 1 .19-1 2.67 2.67 0 0 1 .53-.84 2.56 2.56 0 0 1 .8-.58 2.34 2.34 0 0 1 1-.22 2.37 2.37 0 0 1 1 .22 2.55 2.55 0 0 1 .8.58 2.67 2.67 0 0 1 .53.84 2.74 2.74 0 0 1 .19 1 2.77 2.77 0 0 1-.19 1 2.6 2.6 0 0 1-.52.84 2.48 2.48 0 0 1-.8.57 2.44 2.44 0 0 1-1 .21zm-1.85-2.63a2.14 2.14 0 0 0 .15.8 2.17 2.17 0 0 0 .4.65 1.79 1.79 0 0 0 .59.44 1.68 1.68 0 0 0 .72.16 1.64 1.64 0 0 0 .72-.16 1.91 1.91 0 0 0 .59-.44 2.1 2.1 0 0 0 .4-.65 2.26 2.26 0 0 0 0-1.6 2.09 2.09 0 0 0-.4-.66 1.91 1.91 0 0 0-.59-.44 1.64 1.64 0 0 0-.72-.16 1.61 1.61 0 0 0-.71.16 1.89 1.89 0 0 0-.59.45 2.15 2.15 0 0 0-.4.66 2.21 2.21 0 0 0-.15.81zm10.2 2.64a2.44 2.44 0 0 1-1-.21 2.5 2.5 0 0 1-.81-.58 2.69 2.69 0 0 1-.53-.85 2.76 2.76 0 0 1-.19-1 2.7 2.7 0 0 1 .19-1 2.63 2.63 0 0 1 .53-.86 2.51 2.51 0 0 1 .81-.57 2.48 2.48 0 0 1 2.83.57 2.7 2.7 0 0 1 .7 1.83v.17a.4.4 0 0 1 0 .11h-4.34a2.15 2.15 0 0 0 .19.76 2.09 2.09 0 0 0 .42.6 1.86 1.86 0 0 0 .58.4 1.74 1.74 0 0 0 .7.14 1.8 1.8 0 0 0 .49-.07 2 2 0 0 0 .45-.19 1.67 1.67 0 0 0 .37-.29 1.24 1.24 0 0 0 .25-.38l.58.16a1.7 1.7 0 0 1-.33.51 2.32 2.32 0 0 1-.5.4 2.44 2.44 0 0 1-.63.26 2.71 2.71 0 0 1-.71.09zm1.88-2.92a2.07 2.07 0 0 0-.19-.75 2 2 0 0 0-.41-.58 1.82 1.82 0 0 0-.58-.38 1.79 1.79 0 0 0-.7-.14 1.83 1.83 0 0 0-.7.14 1.8 1.8 0 0 0-.58.38 1.88 1.88 0 0 0-.4.59 2.23 2.23 0 0 0-.18.74zm1.79-2.28l1.52 2 .08.15.08-.15 1.52-2h.71l-1.95 2.57 1.96 2.53h-.71l-1.52-2-.08-.14-.08.14-1.52 2h-.71l1.95-2.54-1.95-2.57zm4.45 2.54a2.8 2.8 0 0 1 .19-1 2.55 2.55 0 0 1 .52-.84 2.44 2.44 0 0 1 .81-.56 2.55 2.55 0 0 1 1-.21 2.37 2.37 0 0 1 1.26.33 2.11 2.11 0 0 1 .81.89l-.65.21a1.55 1.55 0 0 0-.6-.61 1.77 1.77 0 0 0-1.55-.05 1.86 1.86 0 0 0-.59.43 2 2 0 0 0-.39.64 2.37 2.37 0 0 0 0 1.63 2.08 2.08 0 0 0 .4.66 1.91 1.91 0 0 0 .59.44 1.64 1.64 0 0 0 .72.16 1.75 1.75 0 0 0 .48-.07 1.87 1.87 0 0 0 .44-.19 1.6 1.6 0 0 0 .35-.28.91.91 0 0 0 .21-.33l.65.2a1.67 1.67 0 0 1-.31.5 2.16 2.16 0 0 1-.48.4 2.37 2.37 0 0 1-.62.26 2.61 2.61 0 0 1-.7.09 2.47 2.47 0 0 1-1.84-.79 2.69 2.69 0 0 1-.53-.85 2.76 2.76 0 0 1-.19-1zm7.92 2.67a2.44 2.44 0 0 1-1-.21 2.5 2.5 0 0 1-.81-.58 2.69 2.69 0 0 1-.53-.85 2.76 2.76 0 0 1-.19-1 2.7 2.7 0 0 1 .19-1 2.63 2.63 0 0 1 .49-.87 2.51 2.51 0 0 1 .81-.57 2.48 2.48 0 0 1 2.83.57 2.7 2.7 0 0 1 .7 1.83v.17a.4.4 0 0 1 0 .11h-4.34a2.15 2.15 0 0 0 .19.76 2.09 2.09 0 0 0 .42.6 1.86 1.86 0 0 0 .58.4 1.74 1.74 0 0 0 .7.14 1.8 1.8 0 0 0 .49-.07 2 2 0 0 0 .45-.19 1.67 1.67 0 0 0 .37-.29 1.24 1.24 0 0 0 .25-.38l.58.16a1.7 1.7 0 0 1-.33.51 2.32 2.32 0 0 1-.5.4 2.44 2.44 0 0 1-.63.26 2.71 2.71 0 0 1-.71.09zm1.88-2.92a2.07 2.07 0 0 0-.19-.75 2 2 0 0 0-.41-.58 1.82 1.82 0 0 0-.58-.38 1.79 1.79 0 0 0-.7-.14 1.83 1.83 0 0 0-.7.14 1.8 1.8 0 0 0-.58.38 1.88 1.88 0 0 0-.4.59 2.23 2.23 0 0 0-.18.74zm1.69-4.33h.66v6a.61.61 0 0 0 .16.45.58.58 0 0 0 .44.16h.25l.27-.08.12.54a2.19 2.19 0 0 1-.45.13 2.64 2.64 0 0 1-.46 0 .91.91 0 0 1-1-1zm2.66 0h.66v6a.61.61 0 0 0 .16.45.58.58 0 0 0 .44.16h.25l.27-.08.12.54a2.19 2.19 0 0 1-.45.13 2.64 2.64 0 0 1-.46 0 .91.91 0 0 1-1-1zm4.82 7.24a2.44 2.44 0 0 1-1-.21 2.5 2.5 0 0 1-.81-.58 2.69 2.69 0 0 1-.53-.85 2.76 2.76 0 0 1-.19-1 2.7 2.7 0 0 1 .19-1 2.63 2.63 0 0 1 .53-.83 2.51 2.51 0 0 1 .81-.57 2.48 2.48 0 0 1 2.83.57 2.7 2.7 0 0 1 .7 1.83v.14a.4.4 0 0 1 0 .11h-4.43a2.15 2.15 0 0 0 .19.76 2.09 2.09 0 0 0 .42.6 1.86 1.86 0 0 0 .58.4 1.74 1.74 0 0 0 .7.14 1.8 1.8 0 0 0 .49-.07 2 2 0 0 0 .45-.19 1.67 1.67 0 0 0 .37-.29 1.24 1.24 0 0 0 .25-.38l.58.16a1.7 1.7 0 0 1-.33.51 2.32 2.32 0 0 1-.5.4 2.44 2.44 0 0 1-.63.26 2.71 2.71 0 0 1-.71.09zm1.88-2.92a2.07 2.07 0 0 0-.19-.75 2 2 0 0 0-.41-.58 1.82 1.82 0 0 0-.58-.38 1.79 1.79 0 0 0-.7-.14 1.83 1.83 0 0 0-.7.14 1.8 1.8 0 0 0-.58.38 1.88 1.88 0 0 0-.4.59 2.23 2.23 0 0 0-.18.74zm5.94 2.82h-.66v-2.85a2.49 2.49 0 0 0-.27-1.32.92.92 0 0 0-.83-.41 1.69 1.69 0 0 0-.59.11 2 2 0 0 0-.54.3 2.32 2.32 0 0 0-.44.47 1.83 1.83 0 0 0-.28.58v3.12h-.66v-5.11h.55v1.16a2.4 2.4 0 0 1 .89-.9 2.45 2.45 0 0 1 1.27-.34 1.5 1.5 0 0 1 .71.16 1.22 1.22 0 0 1 .47.44 2 2 0 0 1 .25.7 4.9 4.9 0 0 1 .08.91zm1.07-2.57a2.8 2.8 0 0 1 .19-1 2.55 2.55 0 0 1 .52-.84 2.44 2.44 0 0 1 .81-.56 2.55 2.55 0 0 1 1-.21 2.37 2.37 0 0 1 1.26.33 2.11 2.11 0 0 1 .81.89l-.65.21a1.55 1.55 0 0 0-.6-.61 1.77 1.77 0 0 0-1.58-.06 1.86 1.86 0 0 0-.59.43 2 2 0 0 0-.39.64 2.37 2.37 0 0 0 0 1.63 2.08 2.08 0 0 0 .4.66 1.91 1.91 0 0 0 .59.44 1.64 1.64 0 0 0 .72.16 1.75 1.75 0 0 0 .48-.07 1.87 1.87 0 0 0 .44-.19 1.6 1.6 0 0 0 .35-.28.91.91 0 0 0 .21-.33l.65.2a1.67 1.67 0 0 1-.31.5 2.16 2.16 0 0 1-.48.4 2.37 2.37 0 0 1-.62.26 2.61 2.61 0 0 1-.7.09 2.47 2.47 0 0 1-1.84-.79 2.69 2.69 0 0 1-.53-.85 2.76 2.76 0 0 1-.19-1zm7.92 2.67a2.44 2.44 0 0 1-1-.21 2.5 2.5 0 0 1-.81-.58 2.69 2.69 0 0 1-.53-.85 2.76 2.76 0 0 1-.19-1 2.7 2.7 0 0 1 .19-1 2.63 2.63 0 0 1 .53-.83 2.51 2.51 0 0 1 .81-.57 2.48 2.48 0 0 1 2.83.57 2.7 2.7 0 0 1 .7 1.83v.14a.4.4 0 0 1 0 .11h-4.36a2.15 2.15 0 0 0 .19.76 2.09 2.09 0 0 0 .42.6 1.86 1.86 0 0 0 .58.4 1.74 1.74 0 0 0 .7.14 1.8 1.8 0 0 0 .49-.07 2 2 0 0 0 .45-.19 1.67 1.67 0 0 0 .37-.29 1.24 1.24 0 0 0 .25-.38l.58.16a1.7 1.7 0 0 1-.33.51 2.32 2.32 0 0 1-.5.4 2.44 2.44 0 0 1-.63.26 2.71 2.71 0 0 1-.71.09zm1.88-2.92a2.07 2.07 0 0 0-.19-.75 2 2 0 0 0-.41-.58 1.82 1.82 0 0 0-.58-.38 1.79 1.79 0 0 0-.7-.14 1.83 1.83 0 0 0-.7.14 1.8 1.8 0 0 0-.58.38 1.88 1.88 0 0 0-.4.59 2.23 2.23 0 0 0-.18.74zm-54.17 14a3.92 3.92 0 0 1 .06-.67 2.34 2.34 0 0 1 .23-.67 2.49 2.49 0 0 1 .49-.64 3.57 3.57 0 0 1 .8-.6l.59-.29a3.93 3.93 0 0 0 .57-.32 1.78 1.78 0 0 0 .43-.4.83.83 0 0 0 .17-.51.87.87 0 0 0-.08-.37 1 1 0 0 0-.24-.32 1.25 1.25 0 0 0-.4-.23 1.63 1.63 0 0 0-.56-.09 1.67 1.67 0 0 0-.58.09 2.09 2.09 0 0 0-.44.22 2 2 0 0 0-.33.27l-.21.23-.44-.48.22-.22a2.39 2.39 0 0 1 .43-.31 3.45 3.45 0 0 1 .63-.28 2.52 2.52 0 0 1 .81-.12 2.43 2.43 0 0 1 .8.12 1.77 1.77 0 0 1 .6.34 1.47 1.47 0 0 1 .37.49 1.39 1.39 0 0 1 .13.58 1.33 1.33 0 0 1-.18.7 2 2 0 0 1-.43.51 3.07 3.07 0 0 1-.55.37l-.53.26a6.3 6.3 0 0 0-.61.31 3.3 3.3 0 0 0-.53.38 1.91 1.91 0 0 0-.39.46 1.09 1.09 0 0 0-.15.57h3.5v.61zm9.58.1a3.54 3.54 0 0 1-1.16-.2 2.79 2.79 0 0 1-1-.57l.3-.45a3.31 3.31 0 0 0 .86.54 2.56 2.56 0 0 0 1 .18 1.72 1.72 0 0 0 1-.25.81.81 0 0 0 .37-.71.62.62 0 0 0-.1-.36.85.85 0 0 0-.29-.25 2.25 2.25 0 0 0-.48-.19l-.67-.17q-.44-.11-.76-.22a2.33 2.33 0 0 1-.53-.24.88.88 0 0 1-.31-.34 1.1 1.1 0 0 1-.1-.5 1.46 1.46 0 0 1 .15-.68 1.38 1.38 0 0 1 .41-.49 1.86 1.86 0 0 1 .61-.29 2.7 2.7 0 0 1 .74-.1 2.85 2.85 0 0 1 1.07.19 2.11 2.11 0 0 1 .77.5l-.32.39a1.79 1.79 0 0 0-.69-.44 2.46 2.46 0 0 0-.85-.15 2.09 2.09 0 0 0-.49.05 1.18 1.18 0 0 0-.4.17.84.84 0 0 0-.27.3.89.89 0 0 0-.1.43.7.7 0 0 0 .07.33.58.58 0 0 0 .22.22 1.83 1.83 0 0 0 .4.17l.58.15q.49.12.86.24a2.7 2.7 0 0 1 .62.27 1.08 1.08 0 0 1 .38.38 1.1 1.1 0 0 1 .13.55 1.33 1.33 0 0 1-.54 1.12 2.32 2.32 0 0 1-1.48.44zm5.51-.34l-.17.08-.26.1-.33.09a1.89 1.89 0 0 1-.39 0 1.42 1.42 0 0 1-.41-.06 1 1 0 0 1-.34-.18.89.89 0 0 1-.23-.31 1 1 0 0 1-.09-.43v-3.63h-.7v-.53h.7v-1.7h.66v1.72h1.17v.51h-1.18v3.47a.53.53 0 0 0 .2.42.69.69 0 0 0 .42.13 1.25 1.25 0 0 0 .5-.09l.27-.13zm2.11.34a1.8 1.8 0 0 1-.67-.12 1.69 1.69 0 0 1-.54-.34 1.52 1.52 0 0 1-.48-1.13 1.26 1.26 0 0 1 .16-.62 1.49 1.49 0 0 1 .44-.49 2.15 2.15 0 0 1 .67-.32 3.1 3.1 0 0 1 .86-.11 4.69 4.69 0 0 1 .79.07 3.42 3.42 0 0 1 .71.2v-.46a1.48 1.48 0 0 0-.38-1.07 1.39 1.39 0 0 0-1.06-.4 2.24 2.24 0 0 0-.8.16 3.86 3.86 0 0 0-.83.45l-.23-.44a3.43 3.43 0 0 1 1.92-.67 2.05 2.05 0 0 1 1.51.54 2 2 0 0 1 .55 1.49v2.3q0 .27.24.27v.59h-.25a.57.57 0 0 1-.4-.13.48.48 0 0 1-.15-.35v-.4a2.31 2.31 0 0 1-.88.71 2.72 2.72 0 0 1-1.15.24zm.16-.51a2.29 2.29 0 0 0 1-.2 1.56 1.56 0 0 0 .66-.52.61.61 0 0 0 .13-.19.49.49 0 0 0 0-.19v-.83a4.07 4.07 0 0 0-.69-.2 3.85 3.85 0 0 0-.73-.07 2 2 0 0 0-1.14.29.89.89 0 0 0-.44.77 1.06 1.06 0 0 0 .09.44 1.12 1.12 0 0 0 .25.36 1.19 1.19 0 0 0 .39.24 1.3 1.3 0 0 0 .48.09zm6.43-4.11a2.09 2.09 0 0 0-1.17.37 1.88 1.88 0 0 0-.7 1v3.17h-.66v-5.11h.63v1.22a2.32 2.32 0 0 1 .69-.91 1.76 1.76 0 0 1 1-.33h.13zm3.28 2.16v-.62h4.29v.62zm7.86 2.36a3.92 3.92 0 0 1 .06-.67 2.34 2.34 0 0 1 .23-.67 2.49 2.49 0 0 1 .49-.64 3.57 3.57 0 0 1 .87-.6l.59-.29a3.93 3.93 0 0 0 .57-.32 1.78 1.78 0 0 0 .43-.4.83.83 0 0 0 .17-.51.87.87 0 0 0-.08-.37 1 1 0 0 0-.24-.32 1.26 1.26 0 0 0-.4-.23 1.63 1.63 0 0 0-.56-.09 1.67 1.67 0 0 0-.58.09 2.09 2.09 0 0 0-.44.22 2 2 0 0 0-.33.27l-.21.23-.44-.48.22-.22a2.39 2.39 0 0 1 .43-.31 3.45 3.45 0 0 1 .63-.28 2.52 2.52 0 0 1 .81-.12 2.43 2.43 0 0 1 .8.12 1.77 1.77 0 0 1 .6.34 1.47 1.47 0 0 1 .37.49 1.39 1.39 0 0 1 .13.58 1.33 1.33 0 0 1-.18.7 2 2 0 0 1-.43.51 3.07 3.07 0 0 1-.55.37l-.53.26a6.3 6.3 0 0 0-.61.31 3.3 3.3 0 0 0-.53.38 1.91 1.91 0 0 0-.39.46 1.09 1.09 0 0 0-.15.57h3.48v.61zm10.11-2.87a3.66 3.66 0 0 1-.19 1.19 3 3 0 0 1-.51.94 2.33 2.33 0 0 1-.78.62 2.28 2.28 0 0 1-2 0 2.33 2.33 0 0 1-.78-.62 3 3 0 0 1-.51-.94 3.91 3.91 0 0 1 0-2.38 3 3 0 0 1 .51-.94 2.38 2.38 0 0 1 .8-.58 2.23 2.23 0 0 1 2 0 2.38 2.38 0 0 1 .78.62 3 3 0 0 1 .51.94 3.66 3.66 0 0 1 .19 1.19zm-.67 0a3.27 3.27 0 0 0-.13-1 2.34 2.34 0 0 0-.37-.74 1.68 1.68 0 0 0-.56-.48 1.52 1.52 0 0 0-.72-.17 1.55 1.55 0 0 0-.73.17 1.68 1.68 0 0 0-.56.48 2.34 2.34 0 0 0-.37.74 3.56 3.56 0 0 0 0 1.92 2.34 2.34 0 0 0 .37.74 1.63 1.63 0 0 0 .56.48 1.58 1.58 0 0 0 .73.17 1.56 1.56 0 0 0 .72-.17 1.63 1.63 0 0 0 .56-.48 2.34 2.34 0 0 0 .37-.74 3.27 3.27 0 0 0 .13-1zm5.21 2.29v.61h-3.31v-.61h1.31v-4.2a1.08 1.08 0 0 1-.27.25 3.27 3.27 0 0 1-.42.25 3.15 3.15 0 0 1-.47.2 1.43 1.43 0 0 1-.43.08v-.65a1.16 1.16 0 0 0 .49-.13 3.55 3.55 0 0 0 .51-.29 4.47 4.47 0 0 0 .41-.31.85.85 0 0 0 .18-.2h.68v5zm3.7 1.85v-1.75h-3.3v-.59l3.47-4.51h.45v4.49h.86v.61h-.86v1.74zm-2.55-2.35h2.62v-3.45z"/></svg>