<svg xmlns="http://www.w3.org/2000/svg" width="239.4" height="27.6833" viewBox="0 0 73.7 8.54"><defs><style>.cls-1{fill:#fff;}</style></defs><title>swissuniversities_Logo_minimal_Weiss</title><g id="Logo"><path class="cls-1" d="M3.72,4.72c0,1-.84,1.42-1.84,1.42A1.71,1.71,0,0,1,0,4.46H1c0,.61.38.82.89.82s.75-.13.75-.53-.47-.46-1.44-.84C.61,3.66.15,3.42.15,2.62s.8-1.33,1.74-1.33A1.64,1.64,0,0,1,3.65,2.84h-1a.65.65,0,0,0-.75-.71c-.37,0-.66.18-.66.51s.43.45,1.27.77c.64.25,1.26.48,1.26,1.31Z"/><polygon class="cls-1" points="7.87 2.56 6.65 6.01 5.93 6.01 4.14 1.4 5.3 1.4 6.3 4.32 7.34 1.4 8.39 1.4 9.44 4.32 10.44 1.4 11.59 1.4 9.8 6.01 9.08 6.01 7.87 2.56 7.87 2.56"/><path class="cls-1" d="M13.07,7a.8.8,0,1,1-.79.79A.8.8,0,0,1,13.07,7ZM12.53,1.4h1.08V6H12.53V1.4Z"/><path class="cls-1" d="M18.52,4.72c0,1-.83,1.42-1.84,1.42A1.72,1.72,0,0,1,14.8,4.46h1c0,.61.38.82.89.82s.75-.13.75-.53S17,4.28,16.05,3.9c-.64-.25-1.1-.49-1.1-1.29s.79-1.33,1.73-1.33a1.64,1.64,0,0,1,1.76,1.56h-1a.65.65,0,0,0-.74-.71c-.37,0-.66.18-.66.51s.42.45,1.27.77c.64.25,1.26.48,1.26,1.31Z"/><path class="cls-1" d="M23,4.72c0,1-.83,1.42-1.84,1.42a1.71,1.71,0,0,1-1.88-1.68h1c0,.61.38.82.89.82s.75-.13.75-.53-.47-.46-1.43-.84c-.65-.25-1.1-.49-1.1-1.29s.8-1.33,1.74-1.33A1.64,1.64,0,0,1,23,2.84h-1a.65.65,0,0,0-.74-.71c-.36,0-.66.18-.66.51s.43.45,1.27.77c.65.25,1.26.48,1.26,1.31Z"/><path class="cls-1" d="M28.37,1.4V6H27.29V5.37a1.67,1.67,0,0,1-1.51.76A1.57,1.57,0,0,1,24.4,5.5a2.31,2.31,0,0,1-.29-1.36V1.4h1.08V3.78c0,.79.23,1.39,1,1.39s1.11-.6,1.11-1.39V1.4Z"/><path class="cls-1" d="M29.82,1.4H30.9V2a1.62,1.62,0,0,1,1.5-.76,1.56,1.56,0,0,1,1.39.62,2.31,2.31,0,0,1,.3,1.37V6H33V3.63c0-.8-.23-1.39-1-1.39s-1.11.6-1.11,1.39V6H29.82V1.4Z"/><path class="cls-1" d="M35.95,7a.8.8,0,1,1-.79.79A.8.8,0,0,1,35.95,7ZM35.41,1.4h1.08V6H35.41V1.4Z"/><polygon class="cls-1" points="38.51 1.4 39.78 4.47 41.08 1.4 42.22 1.4 40.14 6.01 39.42 6.01 37.36 1.4 38.51 1.4 38.51 1.4"/><path class="cls-1" d="M43.49,4a1.08,1.08,0,0,0,1.2,1.19.91.91,0,0,0,1-.6h1.09A2,2,0,0,1,44.7,6.14a2.24,2.24,0,0,1-2.3-2.43,2.21,2.21,0,0,1,2.26-2.42A2.08,2.08,0,0,1,46.8,3.36a4.29,4.29,0,0,1,0,.67Zm0-.8h2.26a1,1,0,0,0-1.12-1,1,1,0,0,0-1.14,1Z"/><path class="cls-1" d="M50.9,2.4a1.64,1.64,0,0,0-.43-.05c-.91,0-1.42.52-1.42,1.68V6H48V1.4h1.07v.75a1.65,1.65,0,0,1,1.42-.8,1.09,1.09,0,0,1,.43.07v1Z"/><path class="cls-1" d="M55.07,4.72c0,1-.84,1.42-1.85,1.42a1.71,1.71,0,0,1-1.88-1.68h1c0,.61.37.82.9.82s.75-.13.75-.53-.46-.46-1.43-.84c-.65-.25-1.11-.49-1.11-1.29s.8-1.33,1.74-1.33A1.64,1.64,0,0,1,55,2.84h-1a.65.65,0,0,0-.75-.71c-.36,0-.67.18-.67.51s.43.45,1.27.77c.65.25,1.27.48,1.27,1.31Z"/><path class="cls-1" d="M56.72,7a.8.8,0,1,1-.79.79A.8.8,0,0,1,56.72,7ZM56.18,1.4h1.09V6H56.18V1.4Z"/><path class="cls-1" d="M61.34,6a5.89,5.89,0,0,1-.8.05c-.52,0-1.49-.06-1.49-1.62V2.3h-.79V1.4h.79V0h1.07V1.4h1.07v.9H60.12V4.2c0,.79.25.89.68.89l.54,0V6Z"/><path class="cls-1" d="M63,7a.8.8,0,1,1-.79.79A.8.8,0,0,1,63,7ZM62.51,1.4h1.09V6H62.51V1.4Z"/><path class="cls-1" d="M65.86,4a1.08,1.08,0,0,0,1.2,1.19.93.93,0,0,0,1-.6h1.09a2,2,0,0,1-2.08,1.52,2.24,2.24,0,0,1-2.3-2.43A2.21,2.21,0,0,1,67,1.28a2.08,2.08,0,0,1,2.14,2.08,4.11,4.11,0,0,1,0,.67Zm0-.8h2.26a1,1,0,0,0-1.12-1,1,1,0,0,0-1.14,1Z"/><path class="cls-1" d="M73.7,4.72c0,1-.83,1.42-1.85,1.42A1.71,1.71,0,0,1,70,4.46h1c0,.61.37.82.89.82s.75-.13.75-.53-.46-.46-1.43-.84c-.65-.25-1.11-.49-1.11-1.29s.8-1.33,1.74-1.33a1.64,1.64,0,0,1,1.76,1.56h-1c0-.43-.22-.71-.75-.71-.36,0-.66.18-.66.51s.43.45,1.27.77c.65.25,1.27.48,1.27,1.31Z"/></g></svg>
