<?xml version="1.0" encoding="UTF-8" standalone="no"?>
<svg width="15px" height="18px" viewBox="0 0 15 18" version="1.1" xmlns="http://www.w3.org/2000/svg" xmlns:xlink="http://www.w3.org/1999/xlink">
    <!-- Generator: sketchtool 3.7.2 (28276) - http://www.bohemiancoding.com/sketch -->
    <title>C759AF09-A9BB-4662-9911-31039ACDEDAF</title>
    <desc>Created with sketchtool.</desc>
    <defs></defs>
    <g id="Symbols" stroke="none" stroke-width="1" fill="none" fill-rule="evenodd">
        <g id="share" transform="translate(-43.000000, -41.000000)" fill="#000000">
            <g>
                <path d="M55.0843047,54 C54.5203047,54 54.0053047,54.193 53.5873047,54.509 L45.9793047,50.433 L53.7233047,45.592 C54.1153047,45.848 54.5813047,46 55.0843047,46 C56.4653047,46 57.5843047,44.88 57.5843047,43.5 C57.5843047,42.119 56.4653047,41 55.0843047,41 C53.7033047,41 52.5843047,42.119 52.5843047,43.5 C52.5843047,43.644 52.6033047,43.782 52.6263047,43.919 L43.4553047,49.652 C43.4383047,49.662 43.4293047,49.68 43.4133047,49.691 C43.3573047,49.73 43.3133047,49.78 43.2663047,49.831 C43.2203047,49.879 43.1753047,49.925 43.1413047,49.981 C43.1303047,49.999 43.1133047,50.009 43.1033047,50.027 C43.0833047,50.065 43.0823047,50.107 43.0673047,50.147 C43.0423047,50.212 43.0193047,50.274 43.0083047,50.343 C42.9983047,50.407 42.9993047,50.469 43.0013047,50.533 C43.0033047,50.596 43.0063047,50.656 43.0203047,50.719 C43.0363047,50.788 43.0643047,50.851 43.0943047,50.915 C43.1113047,50.952 43.1143047,50.993 43.1373047,51.029 C43.1473047,51.046 43.1653047,51.055 43.1763047,51.071 C43.2153047,51.126 43.2653047,51.171 43.3153047,51.218 C43.3643047,51.264 43.4113047,51.31 43.4673047,51.344 C43.4843047,51.354 43.4943047,51.371 43.5123047,51.381 L52.6083047,56.254 C52.6013047,56.336 52.5843047,56.416 52.5843047,56.5 C52.5843047,57.881 53.7033047,59 55.0843047,59 C56.4653047,59 57.5843047,57.881 57.5843047,56.5 C57.5843047,55.119 56.4653047,54 55.0843047,54"></path>
            </g>
        </g>
    </g>
</svg>